G04*
G04 #@! TF.GenerationSoftware,Altium Limited,Altium Designer,21.6.1 (37)*
G04*
G04 Layer_Color=8421504*
%FSLAX44Y44*%
%MOMM*%
G71*
G04*
G04 #@! TF.SameCoordinates,463AB4A2-C92B-4DBF-B99B-D3FD589B31D3*
G04*
G04*
G04 #@! TF.FilePolarity,Positive*
G04*
G01*
G75*
%ADD14R,2.7000X1.0000*%
%ADD15R,3.8000X1.8000*%
%ADD16R,1.0000X2.7000*%
%ADD17R,1.8000X3.8000*%
D14*
X1642000Y2686500D02*
D03*
Y2701500D02*
D03*
Y2716500D02*
D03*
Y2731500D02*
D03*
Y2746500D02*
D03*
Y2761500D02*
D03*
D15*
X1689000Y2664000D02*
D03*
Y2784000D02*
D03*
D16*
X1600000Y2795000D02*
D03*
X1585000D02*
D03*
X1570000D02*
D03*
X1555000D02*
D03*
X1540000D02*
D03*
X1525000D02*
D03*
X1599000Y2652000D02*
D03*
X1584000D02*
D03*
X1569000D02*
D03*
X1554000D02*
D03*
X1539000D02*
D03*
X1524000D02*
D03*
X1455381D02*
D03*
X1440381D02*
D03*
X1425381D02*
D03*
X1410381D02*
D03*
X1395381D02*
D03*
X1380381D02*
D03*
X1381000Y2795000D02*
D03*
X1396000D02*
D03*
X1411000D02*
D03*
X1426000D02*
D03*
X1441000D02*
D03*
X1456000D02*
D03*
D17*
X1622500Y2842000D02*
D03*
X1502500D02*
D03*
X1621500Y2605000D02*
D03*
X1501500D02*
D03*
X1477881D02*
D03*
X1357881D02*
D03*
X1358500Y2842000D02*
D03*
X1478500D02*
D03*
M02*
