G04*
G04 #@! TF.GenerationSoftware,Altium Limited,Altium Designer,21.6.1 (37)*
G04*
G04 Layer_Color=8388736*
%FSLAX44Y44*%
%MOMM*%
G71*
G04*
G04 #@! TF.SameCoordinates,463AB4A2-C92B-4DBF-B99B-D3FD589B31D3*
G04*
G04*
G04 #@! TF.FilePolarity,Negative*
G04*
G01*
G75*
%ADD18R,2.9032X1.2032*%
%ADD19R,4.0032X2.0032*%
%ADD20R,1.2032X2.9032*%
%ADD21R,2.0032X4.0032*%
%ADD22C,2.6032*%
G04:AMPARAMS|DCode=23|XSize=2.6032mm|YSize=2.6032mm|CornerRadius=0.4616mm|HoleSize=0mm|Usage=FLASHONLY|Rotation=180.000|XOffset=0mm|YOffset=0mm|HoleType=Round|Shape=RoundedRectangle|*
%AMROUNDEDRECTD23*
21,1,2.6032,1.6800,0,0,180.0*
21,1,1.6800,2.6032,0,0,180.0*
1,1,0.9232,-0.8400,0.8400*
1,1,0.9232,0.8400,0.8400*
1,1,0.9232,0.8400,-0.8400*
1,1,0.9232,-0.8400,-0.8400*
%
%ADD23ROUNDEDRECTD23*%
%ADD24C,1.8032*%
G04:AMPARAMS|DCode=25|XSize=2.6032mm|YSize=2.6032mm|CornerRadius=0.7016mm|HoleSize=0mm|Usage=FLASHONLY|Rotation=0.000|XOffset=0mm|YOffset=0mm|HoleType=Round|Shape=RoundedRectangle|*
%AMROUNDEDRECTD25*
21,1,2.6032,1.2000,0,0,0.0*
21,1,1.2000,2.6032,0,0,0.0*
1,1,1.4032,0.6000,-0.6000*
1,1,1.4032,-0.6000,-0.6000*
1,1,1.4032,-0.6000,0.6000*
1,1,1.4032,0.6000,0.6000*
%
%ADD25ROUNDEDRECTD25*%
%ADD26C,7.2032*%
D18*
X1642000Y2686500D02*
D03*
Y2701500D02*
D03*
Y2716500D02*
D03*
Y2731500D02*
D03*
Y2746500D02*
D03*
Y2761500D02*
D03*
D19*
X1689000Y2664000D02*
D03*
Y2784000D02*
D03*
D20*
X1600000Y2795000D02*
D03*
X1585000D02*
D03*
X1570000D02*
D03*
X1555000D02*
D03*
X1540000D02*
D03*
X1525000D02*
D03*
X1599000Y2652000D02*
D03*
X1584000D02*
D03*
X1569000D02*
D03*
X1554000D02*
D03*
X1539000D02*
D03*
X1524000D02*
D03*
X1455381D02*
D03*
X1440381D02*
D03*
X1425381D02*
D03*
X1410381D02*
D03*
X1395381D02*
D03*
X1380381D02*
D03*
X1381000Y2795000D02*
D03*
X1396000D02*
D03*
X1411000D02*
D03*
X1426000D02*
D03*
X1441000D02*
D03*
X1456000D02*
D03*
D21*
X1622500Y2842000D02*
D03*
X1502500D02*
D03*
X1621500Y2605000D02*
D03*
X1501500D02*
D03*
X1477881D02*
D03*
X1357881D02*
D03*
X1358500Y2842000D02*
D03*
X1478500D02*
D03*
D22*
X1586000Y2743000D02*
D03*
X1399000Y2702000D02*
D03*
D23*
X1586000Y2694000D02*
D03*
D24*
X1636038Y2773480D02*
D03*
X1635530Y2663752D02*
D03*
X1299178Y2782242D02*
D03*
X1298670Y2672260D02*
D03*
D25*
X1399000Y2751000D02*
D03*
D26*
X1687000Y2606000D02*
D03*
X1686000Y2840000D02*
D03*
X1308000Y2606000D02*
D03*
Y2840000D02*
D03*
M02*
