G04*
G04 #@! TF.GenerationSoftware,Altium Limited,Altium Designer,21.6.1 (37)*
G04*
G04 Layer_Physical_Order=2*
G04 Layer_Color=16711680*
%FSLAX44Y44*%
%MOMM*%
G71*
G04*
G04 #@! TF.SameCoordinates,463AB4A2-C92B-4DBF-B99B-D3FD589B31D3*
G04*
G04*
G04 #@! TF.FilePolarity,Positive*
G04*
G01*
G75*
%ADD27C,3.0000*%
%ADD28C,2.0000*%
%ADD30C,0.4000*%
%ADD31C,0.5000*%
%ADD32C,2.4000*%
G04:AMPARAMS|DCode=33|XSize=2.4mm|YSize=2.4mm|CornerRadius=0.36mm|HoleSize=0mm|Usage=FLASHONLY|Rotation=180.000|XOffset=0mm|YOffset=0mm|HoleType=Round|Shape=RoundedRectangle|*
%AMROUNDEDRECTD33*
21,1,2.4000,1.6800,0,0,180.0*
21,1,1.6800,2.4000,0,0,180.0*
1,1,0.7200,-0.8400,0.8400*
1,1,0.7200,0.8400,0.8400*
1,1,0.7200,0.8400,-0.8400*
1,1,0.7200,-0.8400,-0.8400*
%
%ADD33ROUNDEDRECTD33*%
%ADD34C,1.6000*%
G04:AMPARAMS|DCode=35|XSize=2.4mm|YSize=2.4mm|CornerRadius=0.6mm|HoleSize=0mm|Usage=FLASHONLY|Rotation=0.000|XOffset=0mm|YOffset=0mm|HoleType=Round|Shape=RoundedRectangle|*
%AMROUNDEDRECTD35*
21,1,2.4000,1.2000,0,0,0.0*
21,1,1.2000,2.4000,0,0,0.0*
1,1,1.2000,0.6000,-0.6000*
1,1,1.2000,-0.6000,-0.6000*
1,1,1.2000,-0.6000,0.6000*
1,1,1.2000,0.6000,0.6000*
%
%ADD35ROUNDEDRECTD35*%
%ADD36C,7.0000*%
%ADD37C,0.7000*%
%ADD38R,1.0000X2.7000*%
%ADD39R,0.6000X1.7000*%
%ADD40C,4.0000*%
%ADD41C,0.7000*%
G36*
X1719000Y2834666D02*
X1719000Y2607000D01*
X1686000Y2574000D01*
X1299000D01*
X1275000Y2598000D01*
X1275000Y2835000D01*
X1312000Y2872000D01*
X1691000Y2872000D01*
X1719000Y2834666D01*
D02*
G37*
%LPC*%
G36*
X1597000Y2846282D02*
X1512000D01*
X1510361Y2845956D01*
X1508972Y2845028D01*
X1504500Y2840556D01*
X1500328Y2844728D01*
X1498939Y2845656D01*
X1497300Y2845982D01*
X1411200D01*
X1409561Y2845656D01*
X1408172Y2844728D01*
X1401894Y2838450D01*
X1398550D01*
Y2818050D01*
X1401894D01*
X1406335Y2813609D01*
Y2807378D01*
X1406102Y2807029D01*
X1405698Y2805000D01*
X1406102Y2802971D01*
X1406268Y2802722D01*
X1405670Y2801602D01*
X1386896D01*
X1383552Y2804946D01*
Y2828250D01*
X1383148Y2830279D01*
X1382950Y2830576D01*
Y2838450D01*
X1373550D01*
Y2830576D01*
X1373352Y2830279D01*
X1372948Y2828250D01*
Y2802750D01*
X1373352Y2800721D01*
X1374242Y2799388D01*
X1373902Y2798879D01*
X1373498Y2796850D01*
Y2690034D01*
X1373902Y2688004D01*
X1375051Y2686284D01*
X1416448Y2644887D01*
Y2626250D01*
Y2621750D01*
X1416852Y2619721D01*
X1417050Y2619424D01*
Y2615444D01*
X1415877Y2614958D01*
X1413950Y2616885D01*
Y2622424D01*
X1414148Y2622721D01*
X1414552Y2624750D01*
X1414148Y2626779D01*
X1413950Y2627076D01*
Y2631950D01*
X1404550D01*
Y2627076D01*
X1404352Y2626779D01*
X1403948Y2624750D01*
X1404352Y2622721D01*
X1404550Y2622424D01*
Y2611550D01*
X1408615D01*
X1415832Y2604333D01*
X1415832Y2604332D01*
X1417056Y2603515D01*
X1418500Y2603228D01*
X1496000D01*
X1496000Y2603228D01*
X1497444Y2603515D01*
X1498668Y2604332D01*
X1505250Y2610915D01*
X1510832Y2605333D01*
X1510832Y2605332D01*
X1512056Y2604515D01*
X1513500Y2604228D01*
X1513500Y2604228D01*
X1589732D01*
X1589733Y2604228D01*
X1591176Y2604515D01*
X1592400Y2605332D01*
X1597934Y2610866D01*
X1597934Y2610866D01*
X1598391Y2611550D01*
X1603950D01*
Y2619424D01*
X1604148Y2619721D01*
X1604552Y2621750D01*
X1604148Y2623779D01*
X1603950Y2624076D01*
Y2631950D01*
X1594550D01*
Y2624076D01*
X1594352Y2623779D01*
X1593956Y2621791D01*
X1592720Y2620555D01*
X1592215Y2620623D01*
X1591450Y2621001D01*
Y2631950D01*
X1587546D01*
X1578067Y2641428D01*
X1578594Y2642698D01*
X1599804D01*
X1605948Y2636554D01*
Y2622250D01*
X1606352Y2620221D01*
X1607050Y2619176D01*
Y2611550D01*
X1611274D01*
X1611760Y2610377D01*
X1601666Y2600282D01*
X1590951D01*
X1590029Y2600898D01*
X1588000Y2601302D01*
X1585971Y2600898D01*
X1584251Y2599749D01*
X1583102Y2598029D01*
X1582698Y2596000D01*
X1583102Y2593971D01*
X1584251Y2592251D01*
X1585971Y2591102D01*
X1588000Y2590698D01*
X1590029Y2591102D01*
X1590951Y2591718D01*
X1603440D01*
X1605078Y2592044D01*
X1606468Y2592972D01*
X1642028Y2628532D01*
X1642956Y2629922D01*
X1643282Y2631560D01*
Y2648195D01*
X1650758Y2655670D01*
X1651686Y2657060D01*
X1652012Y2658699D01*
Y2713159D01*
X1651686Y2714798D01*
X1650758Y2716187D01*
X1643282Y2723663D01*
Y2728049D01*
X1643898Y2728971D01*
X1644302Y2731000D01*
X1643898Y2733029D01*
X1643282Y2733951D01*
Y2753264D01*
X1642956Y2754903D01*
X1642028Y2756293D01*
X1635766Y2762554D01*
X1636376Y2763741D01*
X1638570Y2764030D01*
X1640930Y2765007D01*
X1642956Y2766562D01*
X1644511Y2768588D01*
X1645488Y2770948D01*
X1645822Y2773480D01*
X1645488Y2776012D01*
X1644511Y2778372D01*
X1642956Y2780398D01*
X1640930Y2781953D01*
X1638570Y2782930D01*
X1636038Y2783264D01*
X1633506Y2782930D01*
X1631146Y2781953D01*
X1629120Y2780398D01*
X1627565Y2778372D01*
X1626588Y2776012D01*
X1626299Y2773818D01*
X1625112Y2773208D01*
X1609782Y2788539D01*
Y2817800D01*
X1610200D01*
Y2838200D01*
X1606856D01*
X1600028Y2845028D01*
X1598639Y2845956D01*
X1597000Y2846282D01*
D02*
G37*
G36*
X1395450Y2838450D02*
X1386050D01*
Y2830269D01*
X1385698Y2828500D01*
X1386050Y2826731D01*
Y2818050D01*
X1395450D01*
Y2825800D01*
X1395898Y2826471D01*
X1396302Y2828500D01*
X1395898Y2830529D01*
X1395450Y2831200D01*
Y2838450D01*
D02*
G37*
G36*
X1299178Y2792026D02*
X1296646Y2791692D01*
X1294286Y2790715D01*
X1292260Y2789160D01*
X1290705Y2787134D01*
X1289728Y2784774D01*
X1289394Y2782242D01*
X1289728Y2779710D01*
X1290705Y2777350D01*
X1292260Y2775324D01*
X1294286Y2773769D01*
X1296646Y2772792D01*
X1299178Y2772458D01*
X1301710Y2772792D01*
X1304070Y2773769D01*
X1306096Y2775324D01*
X1307651Y2777350D01*
X1308628Y2779710D01*
X1308962Y2782242D01*
X1308628Y2784774D01*
X1307651Y2787134D01*
X1306096Y2789160D01*
X1304070Y2790715D01*
X1301710Y2791692D01*
X1299178Y2792026D01*
D02*
G37*
G36*
X1298670Y2682044D02*
X1296138Y2681710D01*
X1293778Y2680733D01*
X1291752Y2679178D01*
X1290197Y2677152D01*
X1289220Y2674792D01*
X1288886Y2672260D01*
X1289220Y2669728D01*
X1290197Y2667368D01*
X1291752Y2665342D01*
X1293778Y2663787D01*
X1296138Y2662810D01*
X1298670Y2662476D01*
X1301202Y2662810D01*
X1303562Y2663787D01*
X1305588Y2665342D01*
X1307143Y2667368D01*
X1308120Y2669728D01*
X1308454Y2672260D01*
X1308120Y2674792D01*
X1307143Y2677152D01*
X1305588Y2679178D01*
X1303562Y2680733D01*
X1301202Y2681710D01*
X1298670Y2682044D01*
D02*
G37*
G36*
X1401450Y2631950D02*
X1392050D01*
Y2625769D01*
X1391698Y2624000D01*
X1392050Y2622231D01*
Y2611550D01*
X1401450D01*
Y2621300D01*
X1401898Y2621971D01*
X1402302Y2624000D01*
X1401898Y2626029D01*
X1401450Y2626700D01*
Y2631950D01*
D02*
G37*
%LPD*%
G36*
X1550218Y2821246D02*
X1550544Y2819607D01*
X1550718Y2819346D01*
Y2802401D01*
X1550102Y2801479D01*
X1549698Y2799450D01*
X1550102Y2797421D01*
X1550268Y2797172D01*
X1549669Y2796052D01*
X1487446D01*
X1484802Y2798696D01*
Y2808024D01*
X1486072Y2808702D01*
X1486971Y2808102D01*
X1489000Y2807698D01*
X1491029Y2808102D01*
X1492749Y2809251D01*
X1493898Y2810971D01*
X1494302Y2813000D01*
X1494134Y2813843D01*
X1494485Y2814368D01*
X1494772Y2815812D01*
Y2818800D01*
X1496700D01*
Y2834585D01*
X1497873Y2835071D01*
X1499800Y2833144D01*
Y2818800D01*
X1509200D01*
Y2833144D01*
X1513774Y2837718D01*
X1550218D01*
Y2821246D01*
D02*
G37*
G36*
X1474800Y2831326D02*
X1474602Y2831029D01*
X1474198Y2829000D01*
Y2801802D01*
X1443548D01*
X1442543Y2801602D01*
X1416331D01*
X1415732Y2802722D01*
X1415898Y2802971D01*
X1416302Y2805000D01*
X1415898Y2807029D01*
X1414900Y2808524D01*
Y2815383D01*
X1414574Y2817021D01*
X1413645Y2818411D01*
X1407950Y2824106D01*
Y2832394D01*
X1412974Y2837418D01*
X1474800D01*
Y2831326D01*
D02*
G37*
G36*
X1588300Y2832326D02*
X1588102Y2832029D01*
X1587698Y2830000D01*
X1588102Y2827971D01*
X1588300Y2827674D01*
Y2817800D01*
X1597700D01*
Y2827674D01*
X1597898Y2827971D01*
X1598302Y2830000D01*
X1597898Y2832029D01*
X1597700Y2832326D01*
Y2833585D01*
X1598873Y2834071D01*
X1600800Y2832144D01*
Y2817800D01*
X1601218D01*
Y2786765D01*
X1601544Y2785126D01*
X1602472Y2783737D01*
X1634718Y2751491D01*
Y2733951D01*
X1634102Y2733029D01*
X1633698Y2731000D01*
X1634102Y2728971D01*
X1634718Y2728049D01*
Y2722855D01*
X1633500Y2721802D01*
X1631471Y2721398D01*
X1629751Y2720249D01*
X1628602Y2718529D01*
X1628198Y2716500D01*
X1628602Y2714471D01*
X1629510Y2713112D01*
Y2712845D01*
X1595437Y2678773D01*
X1594714D01*
X1593029Y2679898D01*
X1591000Y2680302D01*
X1588971Y2679898D01*
X1587251Y2678749D01*
X1586102Y2677029D01*
X1585698Y2675000D01*
X1586102Y2672971D01*
X1587251Y2671251D01*
X1588971Y2670102D01*
X1591000Y2669698D01*
X1593029Y2670102D01*
X1594714Y2671227D01*
X1597000D01*
X1597000Y2671227D01*
X1598444Y2671515D01*
X1599668Y2672332D01*
X1635950Y2708615D01*
X1636768Y2709839D01*
X1637055Y2711282D01*
X1637055Y2711283D01*
Y2712621D01*
X1637249Y2712751D01*
X1638398Y2714471D01*
X1638461Y2714788D01*
X1639677Y2715157D01*
X1643448Y2711385D01*
Y2671285D01*
X1642178Y2670878D01*
X1640422Y2672225D01*
X1638062Y2673202D01*
X1635530Y2673536D01*
X1632998Y2673202D01*
X1630638Y2672225D01*
X1628612Y2670670D01*
X1627057Y2668644D01*
X1626080Y2666284D01*
X1625746Y2663752D01*
X1626080Y2661220D01*
X1627057Y2658860D01*
X1628612Y2656834D01*
X1630638Y2655279D01*
X1632998Y2654302D01*
X1635192Y2654013D01*
X1635555Y2653540D01*
X1635672Y2653282D01*
X1635788Y2652721D01*
X1635044Y2651607D01*
X1634718Y2649969D01*
Y2633334D01*
X1617623Y2616240D01*
X1616450Y2616726D01*
Y2619424D01*
X1616648Y2619721D01*
X1617052Y2621750D01*
X1616648Y2623779D01*
X1616552Y2623923D01*
Y2638750D01*
X1616148Y2640779D01*
X1614999Y2642499D01*
X1605749Y2651749D01*
X1604029Y2652898D01*
X1602000Y2653302D01*
X1579939D01*
X1576792Y2656449D01*
X1575072Y2657598D01*
X1573043Y2658002D01*
X1518349D01*
X1516320Y2657598D01*
X1514601Y2656449D01*
X1511453Y2653302D01*
X1448000D01*
X1445971Y2652898D01*
X1444251Y2651749D01*
X1428225Y2635723D01*
X1427052Y2636209D01*
Y2647084D01*
X1426648Y2649113D01*
X1425499Y2650833D01*
X1389779Y2686553D01*
X1390543Y2687584D01*
X1392578Y2686497D01*
X1395726Y2685542D01*
X1399000Y2685219D01*
X1401383D01*
X1404656Y2685542D01*
X1407804Y2686497D01*
X1410706Y2688047D01*
X1413248Y2690134D01*
X1416098Y2692983D01*
X1417600Y2693606D01*
X1420556Y2694194D01*
X1422043Y2694267D01*
X1431688D01*
X1431856Y2694300D01*
X1432026D01*
X1434665Y2694825D01*
X1434823Y2694890D01*
X1434990Y2694923D01*
X1437475Y2695953D01*
X1437617Y2696048D01*
X1437775Y2696113D01*
X1440012Y2697608D01*
X1440133Y2697728D01*
X1440275Y2697823D01*
X1441226Y2698774D01*
X1464718Y2722267D01*
X1528749D01*
X1531000Y2722045D01*
X1562000D01*
X1564251Y2722267D01*
X1578000D01*
X1578663Y2722399D01*
X1579226Y2722774D01*
X1585676Y2729225D01*
X1586000Y2729182D01*
X1589576Y2729653D01*
X1592909Y2731033D01*
X1595771Y2733229D01*
X1597967Y2736091D01*
X1599347Y2739424D01*
X1599818Y2743000D01*
X1599801Y2743134D01*
X1601442Y2744482D01*
X1603529Y2747025D01*
X1605080Y2749926D01*
X1606035Y2753074D01*
X1606357Y2756347D01*
X1606035Y2759621D01*
X1605080Y2762769D01*
X1603529Y2765670D01*
X1601442Y2768213D01*
X1587240Y2782416D01*
X1584697Y2784503D01*
X1581796Y2786053D01*
X1578648Y2787008D01*
X1575374Y2787331D01*
X1567988D01*
X1567502Y2788504D01*
X1584249Y2805251D01*
X1585398Y2806971D01*
X1585802Y2809000D01*
Y2828000D01*
X1585398Y2830029D01*
X1585200Y2830326D01*
Y2837718D01*
X1588300D01*
Y2832326D01*
D02*
G37*
G36*
X1481501Y2787001D02*
X1483221Y2785852D01*
X1485250Y2785448D01*
X1509060D01*
X1509514Y2784178D01*
X1507367Y2782416D01*
X1490684Y2765733D01*
X1441000D01*
X1440337Y2765602D01*
X1439774Y2765226D01*
X1391448Y2716899D01*
X1389677Y2715953D01*
X1387134Y2713866D01*
X1385372Y2711718D01*
X1384102Y2712173D01*
Y2790507D01*
X1384700Y2790998D01*
X1443348D01*
X1444354Y2791198D01*
X1477304D01*
X1481501Y2787001D01*
D02*
G37*
G36*
X1597000Y2761000D02*
Y2743000D01*
X1578000Y2724000D01*
X1464000D01*
X1440000Y2700000D01*
X1439049Y2699049D01*
X1436812Y2697554D01*
X1434327Y2696525D01*
X1431688Y2696000D01*
X1422000D01*
X1420343Y2695919D01*
X1417094Y2695272D01*
X1414034Y2694005D01*
X1411279Y2692164D01*
X1410050Y2691050D01*
X1409000Y2690000D01*
X1390000Y2713000D01*
X1441000Y2764000D01*
X1594000D01*
X1597000Y2761000D01*
D02*
G37*
G36*
X1564708Y2646278D02*
X1564541Y2646029D01*
X1564138Y2644000D01*
X1564541Y2641971D01*
X1565691Y2640251D01*
X1567411Y2639102D01*
X1568498Y2638885D01*
X1581718Y2625666D01*
Y2623951D01*
X1581102Y2623029D01*
X1580698Y2621000D01*
X1581102Y2618971D01*
X1582050Y2617552D01*
Y2611772D01*
X1522450D01*
Y2619424D01*
X1522648Y2619721D01*
X1523052Y2621750D01*
Y2643900D01*
X1522648Y2645928D01*
X1522415Y2646278D01*
X1523013Y2647398D01*
X1564109D01*
X1564708Y2646278D01*
D02*
G37*
G36*
X1488267Y2641428D02*
X1487251Y2640749D01*
X1486102Y2639029D01*
X1485698Y2637000D01*
X1486102Y2634971D01*
X1487251Y2633251D01*
X1487968Y2632772D01*
Y2622250D01*
X1488050Y2621837D01*
Y2611550D01*
X1487102Y2610772D01*
X1427398D01*
X1426450Y2611550D01*
Y2619424D01*
X1426648Y2619721D01*
X1427002Y2621498D01*
X1428779Y2621852D01*
X1430499Y2623001D01*
X1450196Y2642698D01*
X1487882D01*
X1488267Y2641428D01*
D02*
G37*
D27*
X1401383Y2702000D02*
X1442233Y2742850D01*
X1456200D02*
X1491533D01*
X1442233D02*
X1451000D01*
X1519233Y2770550D02*
X1575374D01*
X1589576Y2756347D01*
X1491533Y2742850D02*
X1519233Y2770550D01*
X1399000Y2702000D02*
X1401383D01*
D28*
X1530500Y2743350D02*
X1531000Y2743850D01*
X1530000Y2742850D02*
X1530500Y2743350D01*
D30*
X1591000Y2675000D02*
X1597000D01*
X1633282Y2711282D01*
Y2716282D02*
X1633500Y2716500D01*
X1633282Y2711282D02*
Y2716282D01*
X1513500Y2608000D02*
X1589733D01*
X1505250Y2616250D02*
X1513500Y2608000D01*
X1589733D02*
X1595266Y2613534D01*
Y2617766D02*
X1599250Y2621750D01*
X1595266Y2613534D02*
Y2617766D01*
X1409250Y2621750D02*
Y2624750D01*
X1418500Y2607000D02*
X1496000D01*
X1409250Y2616250D02*
X1418500Y2607000D01*
X1409250Y2616250D02*
Y2621750D01*
X1496000Y2607000D02*
X1505250Y2616250D01*
Y2621750D01*
X1491000Y2815812D02*
Y2828000D01*
X1492000Y2829000D01*
D31*
X1605500Y2786765D02*
X1639000Y2753264D01*
Y2721889D02*
Y2753264D01*
X1605500Y2786765D02*
Y2833500D01*
X1554500Y2821246D02*
X1555000Y2820746D01*
Y2799450D02*
Y2820746D01*
X1554500Y2821246D02*
Y2842000D01*
X1410617Y2805383D02*
X1411000Y2805000D01*
X1410617Y2805383D02*
Y2815383D01*
X1403250Y2822750D02*
Y2828250D01*
Y2822750D02*
X1410617Y2815383D01*
X1639000Y2649969D02*
X1647730Y2658699D01*
Y2713159D01*
X1639000Y2631560D02*
Y2649969D01*
Y2721889D02*
X1647730Y2713159D01*
X1603440Y2596000D02*
X1639000Y2631560D01*
X1547750Y2620750D02*
X1548750Y2621750D01*
X1574250D01*
X1586000Y2621000D02*
Y2627440D01*
X1588000Y2596000D02*
X1603440D01*
X1554500Y2842000D02*
X1597000D01*
X1512000D02*
X1554500D01*
X1597000D02*
X1605500Y2833500D01*
X1504500Y2834500D02*
X1512000Y2842000D01*
X1504500Y2829000D02*
Y2834500D01*
X1411200Y2841700D02*
X1497300D01*
X1504500Y2834500D01*
X1403250Y2833750D02*
X1411200Y2841700D01*
X1403250Y2828250D02*
Y2833750D01*
X1569440Y2644000D02*
X1586000Y2627440D01*
X1491000Y2636459D02*
Y2637000D01*
Y2636459D02*
X1492250Y2635209D01*
Y2622250D02*
Y2635209D01*
Y2622250D02*
X1492750Y2621750D01*
D32*
X1586000Y2743000D02*
D03*
X1399000Y2702000D02*
D03*
D33*
X1586000Y2694000D02*
D03*
D34*
X1636038Y2773480D02*
D03*
X1635530Y2663752D02*
D03*
X1299178Y2782242D02*
D03*
X1298670Y2672260D02*
D03*
D35*
X1399000Y2751000D02*
D03*
D36*
X1687000Y2606000D02*
D03*
X1686000Y2840000D02*
D03*
X1308000Y2606000D02*
D03*
Y2840000D02*
D03*
D37*
X1710001Y2800002D02*
D03*
Y2760002D02*
D03*
Y2740002D02*
D03*
Y2720002D02*
D03*
Y2700002D02*
D03*
Y2680002D02*
D03*
X1700001Y2800002D02*
D03*
Y2760002D02*
D03*
X1705001Y2750002D02*
D03*
X1700001Y2740002D02*
D03*
X1705001Y2730002D02*
D03*
X1700001Y2720002D02*
D03*
X1705001Y2710002D02*
D03*
X1700001Y2700002D02*
D03*
X1705001Y2690002D02*
D03*
X1700001Y2680002D02*
D03*
X1690001Y2760002D02*
D03*
X1695001Y2750002D02*
D03*
X1690001Y2740002D02*
D03*
X1695001Y2730002D02*
D03*
X1690001Y2720002D02*
D03*
X1695001Y2710002D02*
D03*
X1690001Y2700002D02*
D03*
X1695001Y2690002D02*
D03*
X1690001Y2680002D02*
D03*
X1680001Y2760002D02*
D03*
X1685001Y2750002D02*
D03*
X1680001Y2740002D02*
D03*
X1685001Y2730002D02*
D03*
X1680001Y2720002D02*
D03*
X1685001Y2710002D02*
D03*
X1680001Y2700002D02*
D03*
X1685001Y2690002D02*
D03*
X1680001Y2680002D02*
D03*
X1670001Y2800002D02*
D03*
Y2760002D02*
D03*
X1675001Y2750002D02*
D03*
X1670001Y2740002D02*
D03*
X1675001Y2730002D02*
D03*
X1670001Y2720002D02*
D03*
X1675001Y2710002D02*
D03*
X1670001Y2700002D02*
D03*
X1675001Y2690002D02*
D03*
X1670001Y2680002D02*
D03*
X1660001Y2800002D02*
D03*
Y2780002D02*
D03*
X1665001Y2770002D02*
D03*
Y2750002D02*
D03*
Y2730002D02*
D03*
Y2710002D02*
D03*
Y2690002D02*
D03*
X1660001Y2660002D02*
D03*
X1665001Y2650002D02*
D03*
X1660001Y2640002D02*
D03*
X1655001Y2810002D02*
D03*
X1650001Y2800002D02*
D03*
X1655001Y2790002D02*
D03*
X1650001Y2780002D02*
D03*
X1655001Y2650002D02*
D03*
X1650001Y2640002D02*
D03*
X1640001Y2840002D02*
D03*
X1645001Y2830002D02*
D03*
X1640001Y2820002D02*
D03*
X1645001Y2810002D02*
D03*
X1640001Y2800002D02*
D03*
X1645001Y2790002D02*
D03*
Y2610002D02*
D03*
Y2590002D02*
D03*
X1635001Y2810002D02*
D03*
Y2790002D02*
D03*
X1620001Y2660002D02*
D03*
X1625001Y2650002D02*
D03*
X1615001Y2670002D02*
D03*
X1610001Y2660002D02*
D03*
X1600001Y2860002D02*
D03*
X1605001Y2850002D02*
D03*
X1590001Y2860002D02*
D03*
X1580001D02*
D03*
X1570001Y2680002D02*
D03*
X1575001Y2590002D02*
D03*
X1560001Y2700002D02*
D03*
X1565001Y2690002D02*
D03*
X1560001Y2680002D02*
D03*
X1550001Y2860002D02*
D03*
X1555001Y2690002D02*
D03*
X1550001Y2680002D02*
D03*
X1540001D02*
D03*
X1535001Y2830002D02*
D03*
X1520001Y2860002D02*
D03*
X1525001Y2590002D02*
D03*
X1490001Y2780002D02*
D03*
X1495001Y2690002D02*
D03*
X1490001Y2660002D02*
D03*
X1480001Y2780002D02*
D03*
X1485001Y2690002D02*
D03*
X1480001Y2660002D02*
D03*
X1470001Y2780002D02*
D03*
X1475001Y2690002D02*
D03*
X1470001Y2660002D02*
D03*
X1460001Y2620002D02*
D03*
X1450001Y2860002D02*
D03*
X1455001Y2830002D02*
D03*
X1450001Y2620002D02*
D03*
X1445001Y2830002D02*
D03*
X1440001Y2620002D02*
D03*
X1435001Y2830002D02*
D03*
Y2690002D02*
D03*
X1420001Y2860002D02*
D03*
X1425001Y2830002D02*
D03*
Y2770002D02*
D03*
X1420001Y2760002D02*
D03*
X1425001Y2690002D02*
D03*
Y2590002D02*
D03*
X1410001Y2860002D02*
D03*
X1415001Y2770002D02*
D03*
X1410001Y2600002D02*
D03*
X1415001Y2590002D02*
D03*
X1400001Y2860002D02*
D03*
X1405001Y2850002D02*
D03*
Y2770002D02*
D03*
X1400001Y2600002D02*
D03*
X1405001Y2590002D02*
D03*
X1390001Y2860002D02*
D03*
X1395001Y2850002D02*
D03*
Y2770002D02*
D03*
Y2730002D02*
D03*
X1390001Y2600002D02*
D03*
X1395001Y2590002D02*
D03*
X1380001Y2860002D02*
D03*
X1385001Y2850002D02*
D03*
X1380001Y2600002D02*
D03*
X1385001Y2590002D02*
D03*
X1375001Y2850002D02*
D03*
X1370001Y2680002D02*
D03*
X1375001Y2630002D02*
D03*
Y2610002D02*
D03*
X1365001Y2810002D02*
D03*
X1360001Y2800002D02*
D03*
X1365001Y2790002D02*
D03*
X1360001Y2780002D02*
D03*
X1365001Y2770002D02*
D03*
X1360001Y2760002D02*
D03*
X1365001Y2750002D02*
D03*
X1360001Y2740002D02*
D03*
X1365001Y2730002D02*
D03*
X1360001Y2720002D02*
D03*
X1365001Y2710002D02*
D03*
X1360001Y2700002D02*
D03*
X1365001Y2690002D02*
D03*
X1360001Y2680002D02*
D03*
X1365001Y2670002D02*
D03*
X1360001Y2660002D02*
D03*
X1365001Y2650002D02*
D03*
X1360001Y2640002D02*
D03*
X1365001Y2630002D02*
D03*
X1355001Y2810002D02*
D03*
X1350001Y2800002D02*
D03*
X1355001Y2790002D02*
D03*
X1350001Y2780002D02*
D03*
X1355001Y2770002D02*
D03*
X1350001Y2760002D02*
D03*
X1355001Y2750002D02*
D03*
X1350001Y2740002D02*
D03*
X1355001Y2730002D02*
D03*
X1350001Y2720002D02*
D03*
X1355001Y2710002D02*
D03*
X1350001Y2700002D02*
D03*
X1355001Y2690002D02*
D03*
X1350001Y2680002D02*
D03*
X1355001Y2670002D02*
D03*
X1350001Y2660002D02*
D03*
X1355001Y2650002D02*
D03*
X1350001Y2640002D02*
D03*
X1355001Y2630002D02*
D03*
X1345001Y2810002D02*
D03*
X1340001Y2800002D02*
D03*
X1345001Y2790002D02*
D03*
X1340001Y2780002D02*
D03*
X1345001Y2770002D02*
D03*
X1340001Y2760002D02*
D03*
X1345001Y2750002D02*
D03*
X1340001Y2740002D02*
D03*
X1345001Y2730002D02*
D03*
X1340001Y2720002D02*
D03*
X1345001Y2710002D02*
D03*
X1340001Y2700002D02*
D03*
X1345001Y2690002D02*
D03*
X1340001Y2680002D02*
D03*
X1345001Y2670002D02*
D03*
X1340001Y2660002D02*
D03*
X1345001Y2650002D02*
D03*
X1340001Y2640002D02*
D03*
X1345001Y2630002D02*
D03*
X1330001Y2800002D02*
D03*
X1335001Y2790002D02*
D03*
X1330001Y2780002D02*
D03*
X1335001Y2770002D02*
D03*
X1330001Y2760002D02*
D03*
X1335001Y2750002D02*
D03*
X1330001Y2740002D02*
D03*
X1335001Y2730002D02*
D03*
X1330001Y2720002D02*
D03*
X1335001Y2710002D02*
D03*
X1330001Y2700002D02*
D03*
X1335001Y2690002D02*
D03*
X1330001Y2680002D02*
D03*
X1335001Y2670002D02*
D03*
X1330001Y2660002D02*
D03*
X1335001Y2650002D02*
D03*
X1325001Y2790002D02*
D03*
X1320001Y2780002D02*
D03*
X1325001Y2770002D02*
D03*
X1320001Y2760002D02*
D03*
X1325001Y2750002D02*
D03*
X1320001Y2740002D02*
D03*
X1325001Y2730002D02*
D03*
X1320001Y2720002D02*
D03*
X1325001Y2710002D02*
D03*
X1320001Y2700002D02*
D03*
X1325001Y2690002D02*
D03*
X1320001Y2680002D02*
D03*
X1325001Y2670002D02*
D03*
X1320001Y2660002D02*
D03*
X1325001Y2650002D02*
D03*
X1315001Y2790002D02*
D03*
Y2770002D02*
D03*
X1310001Y2760002D02*
D03*
X1315001Y2750002D02*
D03*
X1310001Y2740002D02*
D03*
X1315001Y2730002D02*
D03*
X1310001Y2720002D02*
D03*
X1315001Y2710002D02*
D03*
X1310001Y2700002D02*
D03*
X1315001Y2690002D02*
D03*
Y2670002D02*
D03*
X1310001Y2660002D02*
D03*
X1315001Y2650002D02*
D03*
X1300001Y2760002D02*
D03*
X1305001Y2750002D02*
D03*
X1300001Y2740002D02*
D03*
X1305001Y2730002D02*
D03*
X1300001Y2720002D02*
D03*
X1305001Y2710002D02*
D03*
X1300001Y2700002D02*
D03*
X1305001Y2690002D02*
D03*
Y2650002D02*
D03*
X1290001Y2800002D02*
D03*
Y2760002D02*
D03*
X1295001Y2750002D02*
D03*
X1290001Y2740002D02*
D03*
X1295001Y2730002D02*
D03*
X1290001Y2720002D02*
D03*
X1295001Y2710002D02*
D03*
X1290001Y2700002D02*
D03*
X1295001Y2690002D02*
D03*
Y2650002D02*
D03*
X1285001Y2790002D02*
D03*
Y2770002D02*
D03*
Y2750002D02*
D03*
Y2730002D02*
D03*
Y2710002D02*
D03*
Y2690002D02*
D03*
Y2650002D02*
D03*
X1591000Y2675000D02*
D03*
X1540045Y2733972D02*
D03*
Y2742972D02*
D03*
X1553701Y2735478D02*
D03*
X1553045Y2743972D02*
D03*
X1562000Y2743850D02*
D03*
X1466739Y2733914D02*
D03*
X1477739Y2731913D02*
D03*
X1477739Y2742764D02*
D03*
X1466839D02*
D03*
X1486739Y2742914D02*
D03*
X1487739Y2731913D02*
D03*
X1456200Y2733550D02*
D03*
X1455939Y2742764D02*
D03*
X1562304Y2735399D02*
D03*
X1530045Y2733972D02*
D03*
X1555000Y2799450D02*
D03*
X1444739Y2732914D02*
D03*
X1446356Y2742764D02*
D03*
X1411000Y2805000D02*
D03*
X1530500Y2743350D02*
D03*
X1593000Y2830000D02*
D03*
X1547750Y2620750D02*
D03*
X1588000Y2596000D02*
D03*
X1639000Y2731000D02*
D03*
X1569440Y2644000D02*
D03*
X1586000Y2621000D02*
D03*
X1491000Y2637000D02*
D03*
X1397000Y2624000D02*
D03*
X1409250Y2624750D02*
D03*
X1599250Y2621750D02*
D03*
X1633500Y2716500D02*
D03*
X1489000Y2813000D02*
D03*
X1391000Y2828500D02*
D03*
D38*
X1461750Y2589750D02*
D03*
X1536250D02*
D03*
X1535500Y2861000D02*
D03*
X1461000D02*
D03*
X1434250Y2860250D02*
D03*
X1359750D02*
D03*
X1636500Y2860000D02*
D03*
X1562000D02*
D03*
X1555750Y2589750D02*
D03*
X1630250D02*
D03*
X1365750D02*
D03*
X1440250D02*
D03*
D39*
X1480250Y2621750D02*
D03*
X1492750D02*
D03*
X1517750D02*
D03*
X1505250D02*
D03*
X1517000Y2829000D02*
D03*
X1504500D02*
D03*
X1479500D02*
D03*
X1492000D02*
D03*
X1415750Y2828250D02*
D03*
X1403250D02*
D03*
X1378250D02*
D03*
X1390750D02*
D03*
X1618000Y2828000D02*
D03*
X1605500D02*
D03*
X1580500D02*
D03*
X1593000D02*
D03*
X1574250Y2621750D02*
D03*
X1586750D02*
D03*
X1611750D02*
D03*
X1599250D02*
D03*
X1384250D02*
D03*
X1396750D02*
D03*
X1421750D02*
D03*
X1409250D02*
D03*
D40*
X1531000Y2743850D02*
X1562000D01*
D41*
X1421750Y2626250D02*
Y2647084D01*
X1381475Y2799525D02*
X1384700Y2796300D01*
X1378250Y2802750D02*
X1381475Y2799525D01*
X1378800Y2690034D02*
X1421750Y2647084D01*
X1378800Y2690034D02*
Y2796850D01*
X1381475Y2799525D01*
X1485250Y2790750D02*
X1562250D01*
X1580500Y2809000D01*
Y2828000D01*
X1479500Y2796500D02*
X1485250Y2790750D01*
X1384700Y2796300D02*
X1443348D01*
X1378250Y2802750D02*
Y2828250D01*
X1443348Y2796300D02*
X1443548Y2796500D01*
X1479500D01*
X1577743Y2648000D02*
X1602000D01*
X1573043Y2652700D02*
X1577743Y2648000D01*
X1518349Y2652700D02*
X1573043D01*
X1513649Y2648000D02*
X1518349Y2652700D01*
X1479500Y2796500D02*
Y2829000D01*
X1602000Y2648000D02*
X1611250Y2638750D01*
Y2622250D02*
Y2638750D01*
Y2622250D02*
X1611750Y2621750D01*
X1517750D02*
Y2643900D01*
X1513649Y2648000D02*
X1517750Y2643900D01*
X1448000Y2648000D02*
X1513649D01*
X1426750Y2626750D02*
X1448000Y2648000D01*
X1422250Y2626750D02*
X1426750D01*
X1421750Y2626250D02*
X1422250Y2626750D01*
X1421750Y2621750D02*
Y2626250D01*
M02*
