G04*
G04 #@! TF.GenerationSoftware,Altium Limited,Altium Designer,21.6.1 (37)*
G04*
G04 Layer_Color=65535*
%FSLAX44Y44*%
%MOMM*%
G71*
G04*
G04 #@! TF.SameCoordinates,6099692B-31FD-4E7E-9E57-43DE2360F6B8*
G04*
G04*
G04 #@! TF.FilePolarity,Positive*
G04*
G01*
G75*
%ADD10C,0.2000*%
%ADD11C,0.1270*%
%ADD12C,0.3000*%
%ADD13C,0.2540*%
D10*
X38000Y198500D02*
G03*
X38000Y198500I-1000J0D01*
G01*
X178000Y199000D02*
G03*
X178000Y199000I-1000J0D01*
G01*
X318500Y199250D02*
G03*
X318500Y199250I-1000J0D01*
G01*
D11*
X156000Y168500D02*
Y189500D01*
X133500D02*
X156000D01*
X18500Y169000D02*
Y190000D01*
X41000D01*
X18000Y100500D02*
Y110000D01*
X156500Y100500D02*
X157000Y101000D01*
Y110000D01*
X18000Y100500D02*
X156500D01*
X296000Y169000D02*
Y190000D01*
X273500D02*
X296000D01*
X158500Y169500D02*
Y190500D01*
X181000D01*
X158000Y101000D02*
Y110500D01*
X296500Y101000D02*
X297000Y101500D01*
Y110500D01*
X158000Y101000D02*
X296500D01*
X436500Y169250D02*
Y190250D01*
X414000D02*
X436500D01*
X299000Y169750D02*
Y190750D01*
X321500D01*
X298500Y101250D02*
Y110750D01*
X437000Y101250D02*
X437500Y101750D01*
Y110750D01*
X298500Y101250D02*
X437000D01*
D12*
X119244Y256500D02*
Y276494D01*
X125908Y269829D01*
X132573Y276494D01*
Y256500D01*
X139237Y276494D02*
Y259832D01*
X142569Y256500D01*
X149234D01*
X152566Y259832D01*
Y276494D01*
X159231D02*
X172560Y256500D01*
Y276494D02*
X159231Y256500D01*
X199218Y276494D02*
Y263165D01*
X205882Y256500D01*
X212547Y263165D01*
Y276494D01*
X219211D02*
X232540D01*
X225876D01*
Y256500D01*
X249202Y276494D02*
X242537D01*
X239205Y273161D01*
Y259832D01*
X242537Y256500D01*
X249202D01*
X252534Y259832D01*
Y273161D01*
X249202Y276494D01*
X259198D02*
Y256500D01*
X272528D01*
X299186Y269829D02*
X305850Y256500D01*
X312515Y269829D01*
X319179Y256500D02*
X325844D01*
X322511D01*
Y276494D01*
X319179Y273161D01*
D13*
X29715Y220694D02*
X27176Y223233D01*
X22097D01*
X19558Y220694D01*
Y210537D01*
X22097Y207998D01*
X27176D01*
X29715Y210537D01*
X34793Y207998D02*
Y218155D01*
X39871Y223233D01*
X44950Y218155D01*
Y207998D01*
Y215616D01*
X34793D01*
X50028Y207998D02*
Y223233D01*
X60185Y207998D01*
Y223233D01*
X65263Y215616D02*
X75420D01*
X80498Y223233D02*
Y207998D01*
X88116D01*
X90655Y210537D01*
Y213076D01*
X88116Y215616D01*
X80498D01*
X88116D01*
X90655Y218155D01*
Y220694D01*
X88116Y223233D01*
X80498D01*
X105890Y207998D02*
X95733D01*
X105890Y218155D01*
Y220694D01*
X103351Y223233D01*
X98272D01*
X95733Y220694D01*
X169669Y221202D02*
X167129Y223741D01*
X162051D01*
X159512Y221202D01*
Y211045D01*
X162051Y208506D01*
X167129D01*
X169669Y211045D01*
X174747Y208506D02*
Y218663D01*
X179825Y223741D01*
X184904Y218663D01*
Y208506D01*
Y216124D01*
X174747D01*
X189982Y208506D02*
Y223741D01*
X200139Y208506D01*
Y223741D01*
X205217Y216124D02*
X215374D01*
X220452Y223741D02*
Y208506D01*
X228070D01*
X230609Y211045D01*
Y213584D01*
X228070Y216124D01*
X220452D01*
X228070D01*
X230609Y218663D01*
Y221202D01*
X228070Y223741D01*
X220452D01*
X235687Y208506D02*
X240766D01*
X238227D01*
Y223741D01*
X235687Y221202D01*
X310131Y221456D02*
X307591Y223995D01*
X302513D01*
X299974Y221456D01*
Y211299D01*
X302513Y208760D01*
X307591D01*
X310131Y211299D01*
X315209Y208760D02*
Y218917D01*
X320287Y223995D01*
X325366Y218917D01*
Y208760D01*
Y216378D01*
X315209D01*
X330444Y208760D02*
Y223995D01*
X340601Y208760D01*
Y223995D01*
X345679Y216378D02*
X355836D01*
X360914Y223995D02*
Y208760D01*
X368532D01*
X371071Y211299D01*
Y213838D01*
X368532Y216378D01*
X360914D01*
X368532D01*
X371071Y218917D01*
Y221456D01*
X368532Y223995D01*
X360914D01*
X376149Y221456D02*
X378689Y223995D01*
X383767D01*
X386306Y221456D01*
Y218917D01*
X383767Y216378D01*
X381228D01*
X383767D01*
X386306Y213838D01*
Y211299D01*
X383767Y208760D01*
X378689D01*
X376149Y211299D01*
M02*
