M48
;Layer_Color=9474304
;FILE_FORMAT=4:4
METRIC,LZ
;TYPE=PLATED
T1F00S00C0.3000
T2F00S00C3.4000
%
T01
X012827Y026416
X0128905Y026543
X0130175
X0131445
X0132715
X0133985
X0135255
X0136525
X013589Y026416
X013462
X013335
X0135255Y026289
X0136525
X0137795
X013843Y026162
X013716
X013589
X0136525Y026035
X0137795
X0139065
X0140335
X014097Y025908
X014224
X014351
X014478
X014605
X014732
X014859
X014986
X015113
X01524
X015367
X015494
X015621
X015748
X01586Y02621
X0154775Y0262075
X015494Y026162
X015367
X0150495Y026035
X014732Y026162
X014605
X014478
X014351
X0140925Y0262475
X01397Y02624
Y025908
X013843
X013716
X013589
X013462
X0135255Y026035
X0144145Y026543
X014478Y026924
X014605
X014732
X014859
X014986
X015367
X015494
X015621
X0156845Y027051
X0155575
X0154305
X015494Y027178
X015621
X015367
X015305Y0274335
X01562Y0274385
X014986Y027432
X014859
X0149225Y027305
X0147955
X0146685
X0144145Y027051
X0142875
X014351Y026924
X014224
X01417Y0274
X01418Y02752
Y02763
X01405Y02762
Y02751
Y02739
X01393Y0275
X01491Y02637
X0156944Y02644
X0156845Y026797
X0155575
X0154305
X01591Y02675
X0159925Y0262175
X01588Y02596
X016129Y025908
X016256
X016383
X0164465Y026035
X0163195
X016383Y026162
X01651Y026416
X016637
X0167005Y026543
X0168275
X0169545
X0170815
X017018Y02667
X016891
X016764
X016637
X01651
X0165735Y026543
X0167005Y026797
X0168275
X0169545
X0170815
X017018Y026924
X016891
X016764
X016637
X0167005Y027051
X0168275
X0169545
X0170815
X017018Y027178
X016891
X016764
X016637
X0167005Y027305
X0168275
X0169545
X0170815
X017018Y027432
X016891
X016764
X016637
X01651
X016383
X01639Y02731
X016335Y027165
X0164465Y027559
X0165735
X0167005
X0168275
X0169545
X0170815
X017018Y027686
X016891
X016764
X016637
X01651
X016383
X0164465Y027813
X0165735
X0167005
X0168275
X0169545
X0170815
X017018Y02794
X016891
X016764
X016637
X01651
X016383
X0164465Y028067
X0165735
X01651Y028194
X016383
X016256
X0163195Y028321
X0164465
X016383Y028448
X016256
X016129
X0161925Y028575
X0163195
X0164465
X0160655
X0159385
X01593Y0283
X0161925Y028321
X0163195Y028067
X01555Y02796
X0154305Y028321
X0153035
X0151765
Y028575
X0153035
X0154305
X0155575
X0156845
X0158115
X0150495
X0149225
X0147955
X0146685
X0145415
X0144145
X0142875
X0141605
X0140335
X0139065
X0137795
X0136525
X0135255
X013589Y028448
X013716
X013843
X01397
X01391Y028285
X0139065Y028067
X01411Y02805
X014224Y028194
X0142875Y028321
X0144145
X0145415
X0146685
X01489Y02813
X0147955Y027813
X0146685
X0139065
X013716Y02794
X013589
X013462
X013335
X013208
X013081
X012954
X012827
X0133985Y028067
X0135255
X0136525
X013589Y028194
X013462
X0135255Y028321
X0136525
X0141605
T02
X01308Y02606
X01687
X01686Y0284
X01308
M30
