M48
;Layer_Color=9474304
;FILE_FORMAT=4:4
METRIC,LZ
;TYPE=PLATED
T1F00S00C0.3000
T2F00S00C1.2000
T3F00S00C1.8000
T4F00S00C3.4000
%
T01
X01285001Y02650002
X01295001
X01305001
X01315001
X01325001
X01335001
X01345001
X01355001
X01365001
X01360001Y02660002
X01350001
X01340001
X01330001
X01320001
X01310001
X01315001Y02670002
X01325001
X01335001
X01345001
X01355001
X01365001
X01360001Y02680002
X01370001
X01365001Y02690002
X01355001
X01345001
X01335001
X01325001
X01315001
X01305001
X01295001
X01285001
X01290001Y02700002
X01300001
X01310001
X01320001
X01330001
X01340001
X01350001
X01360001
X01365001Y02710002
X01355001
X01345001
X01335001
X01325001
X01315001
X01305001
X01295001
X01285001
X01290001Y02720002
X01300001
X01310001
X01320001
X01330001
X01340001
X01350001
X01360001
X01365001Y02730002
X01355001
X01345001
X01335001
X01325001
X01315001
X01305001
X01295001
X01285001
X01290001Y02740002
X01300001
X01310001
X01320001
X01330001
X01340001
X01350001
X01360001
X01365001Y02750002
X01355001
X01345001
X01335001
X01325001
X01315001
X01305001
X01295001
X01285001
X01290001Y02760002
X01300001
X01310001
X01320001
X01330001
X01340001
X01350001
X01360001
X01365001Y02770002
X01355001
X01345001
X01335001
X01325001
X01315001
X01285001
X01395001
X01405001
X01415001
X01425001
X01420001Y02760002
X01446356Y02742764
X01455939
X014562Y0273355
X01466739Y02733914
X01466839Y02742764
X01477739
X01486739Y02742914
X01487739Y02731913
X01477739
X01444739Y02732914
X01435001Y02690002
X01425001
X01475001
X01485001
X01495001
X01490001Y02660002
X01480001
X01470001
X01491Y02637
X01460001Y02620002
X01450001
X01440001
X0140925Y0262475
X01397Y02624
X01400001Y02600002
X01410001
X01415001Y02590002
X01425001
X01405001
X01395001
X01385001
X01380001Y02600002
X01390001
X01375001Y02610002
Y02630002
X01365001
X01355001
X01345001
X01340001Y02640002
X01350001
X01360001
X01350001Y02680002
X01340001
X01330001
X01320001
X01395001Y02730002
X01530045Y02733972
X015305Y0274335
X01540045Y02742972
Y02733972
X01553701Y02735478
X01562304Y02735399
X01562Y0274385
X01553045Y02743972
X01560001Y02700002
X01565001Y02690002
X01555001
X01550001Y02680002
X01560001
X01570001
X01540001
X0156944Y02644
X01586Y02621
X0154775Y0262075
X01525001Y02590002
X01575001
X01588Y02596
X0159925Y0262175
X01610001Y02660002
X01620001
X01625001Y02650002
X01655001
X01665001
X01660001Y02660002
Y02640002
X01650001
X01645001Y02610002
Y02590002
X01615001Y02670002
X01591Y02675
X016335Y027165
X01639Y02731
X01665001Y02730002
X01675001
X01685001
X01695001
X01705001
X01700001Y02740002
X01710001
X01705001Y02750002
X01695001
X01685001
X01675001
X01665001
X01670001Y02760002
X01680001
X01690001
X01700001
X01710001
Y02720002
X01700001
X01690001
X01680001
X01670001
X01675001Y02710002
X01685001
X01695001
X01705001
X01700001Y02700002
X01710001
X01705001Y02690002
X01695001
X01685001
X01675001
X01665001
X01670001Y02700002
X01680001
X01690001
Y02680002
X01700001
X01710001
X01680001
X01670001
X01665001Y02710002
X01670001Y02740002
X01680001
X01690001
X01665001Y02770002
X01660001Y02780002
X01650001
X01655001Y02790002
X01645001
X01635001
X01640001Y02800002
X01650001
X01660001
X01670001
X01655001Y02810002
X01645001
X01635001
X01640001Y02820002
X01645001Y02830002
X01640001Y02840002
X01605001Y02850002
X01600001Y02860002
X01590001
X01593Y0283
X01700001Y02800002
X01710001
X01555Y0279945
X01535001Y02830002
X01520001Y02860002
X01550001
X01580001
X01450001
X01420001
X01410001
X01400001
X01390001
X01380001
X01385001Y02850002
X01395001
X01405001
X01375001
X01391Y028285
X01425001Y02830002
X01435001
X01445001
X01455001
X01489Y02813
X01490001Y02780002
X01480001
X01470001
X01411Y02805
X01365001Y02810002
X01355001
X01345001
X01340001Y02800002
X01350001
X01360001
X01365001Y02790002
X01355001
X01345001
X01335001
X01325001
X01315001
X01320001Y02780002
X01330001
X01340001
X01350001
X01360001
X01330001Y02800002
X01290001
X01285001Y02790002
T02
X0129867Y0267226
X0163553Y02663752
X01636038Y0277348
X01299178Y02782242
T03
X01399Y02702
Y02751
X01586Y02743
Y02694
T04
X01308Y02606
X01687
X01686Y0284
X01308
M30
