G04*
G04 #@! TF.GenerationSoftware,Altium Limited,Altium Designer,21.6.1 (37)*
G04*
G04 Layer_Color=16711935*
%FSLAX44Y44*%
%MOMM*%
G71*
G04*
G04 #@! TF.SameCoordinates,4777B8CB-E48F-4368-B68D-2058CC3BE4D0*
G04*
G04*
G04 #@! TF.FilePolarity,Negative*
G04*
G01*
G75*
%ADD26C,2.6032*%
G04:AMPARAMS|DCode=27|XSize=2.6032mm|YSize=2.6032mm|CornerRadius=0.4616mm|HoleSize=0mm|Usage=FLASHONLY|Rotation=180.000|XOffset=0mm|YOffset=0mm|HoleType=Round|Shape=RoundedRectangle|*
%AMROUNDEDRECTD27*
21,1,2.6032,1.6800,0,0,180.0*
21,1,1.6800,2.6032,0,0,180.0*
1,1,0.9232,-0.8400,0.8400*
1,1,0.9232,0.8400,0.8400*
1,1,0.9232,0.8400,-0.8400*
1,1,0.9232,-0.8400,-0.8400*
%
%ADD27ROUNDEDRECTD27*%
%ADD28C,1.8032*%
G04:AMPARAMS|DCode=29|XSize=2.6032mm|YSize=2.6032mm|CornerRadius=0.7016mm|HoleSize=0mm|Usage=FLASHONLY|Rotation=0.000|XOffset=0mm|YOffset=0mm|HoleType=Round|Shape=RoundedRectangle|*
%AMROUNDEDRECTD29*
21,1,2.6032,1.2000,0,0,0.0*
21,1,1.2000,2.6032,0,0,0.0*
1,1,1.4032,0.6000,-0.6000*
1,1,1.4032,-0.6000,-0.6000*
1,1,1.4032,-0.6000,0.6000*
1,1,1.4032,0.6000,0.6000*
%
%ADD29ROUNDEDRECTD29*%
%ADD30C,7.2032*%
%ADD46R,2.0232X1.3532*%
%ADD47R,1.2032X2.9032*%
%ADD48R,0.8032X1.9032*%
D26*
X1586000Y2743000D02*
D03*
X1399000Y2702000D02*
D03*
D27*
X1586000Y2694000D02*
D03*
D28*
X1636038Y2773480D02*
D03*
X1635530Y2663752D02*
D03*
X1299178Y2782242D02*
D03*
X1298670Y2672260D02*
D03*
D29*
X1399000Y2751000D02*
D03*
D30*
X1687000Y2606000D02*
D03*
X1686000Y2840000D02*
D03*
X1308000Y2606000D02*
D03*
Y2840000D02*
D03*
D46*
X1478000Y2713150D02*
D03*
Y2742850D02*
D03*
X1451000Y2713150D02*
D03*
Y2742850D02*
D03*
X1530000Y2713150D02*
D03*
Y2742850D02*
D03*
X1556000Y2712150D02*
D03*
Y2741850D02*
D03*
D47*
X1461750Y2589750D02*
D03*
X1536250D02*
D03*
X1535500Y2861000D02*
D03*
X1461000D02*
D03*
X1434250Y2860250D02*
D03*
X1359750D02*
D03*
X1636500Y2860000D02*
D03*
X1562000D02*
D03*
X1555750Y2589750D02*
D03*
X1630250D02*
D03*
X1365750D02*
D03*
X1440250D02*
D03*
D48*
X1480250Y2621750D02*
D03*
X1492750D02*
D03*
X1517750D02*
D03*
X1505250D02*
D03*
X1517000Y2829000D02*
D03*
X1504500D02*
D03*
X1479500D02*
D03*
X1492000D02*
D03*
X1415750Y2828250D02*
D03*
X1403250D02*
D03*
X1378250D02*
D03*
X1390750D02*
D03*
X1618000Y2828000D02*
D03*
X1605500D02*
D03*
X1580500D02*
D03*
X1593000D02*
D03*
X1574250Y2621750D02*
D03*
X1586750D02*
D03*
X1611750D02*
D03*
X1599250D02*
D03*
X1384250D02*
D03*
X1396750D02*
D03*
X1421750D02*
D03*
X1409250D02*
D03*
M02*
