G04*
G04 #@! TF.GenerationSoftware,Altium Limited,Altium Designer,21.6.1 (37)*
G04*
G04 Layer_Color=16711935*
%FSLAX44Y44*%
%MOMM*%
G71*
G04*
G04 #@! TF.SameCoordinates,54B41048-786A-4A43-A445-D2F397ABDBDA*
G04*
G04*
G04 #@! TF.FilePolarity,Negative*
G04*
G01*
G75*
%ADD25C,7.2032*%
%ADD39R,2.0232X1.3532*%
%ADD40R,1.2032X2.9032*%
%ADD41R,0.8032X1.9032*%
G04:AMPARAMS|DCode=42|XSize=3.6032mm|YSize=3.6032mm|CornerRadius=0.9516mm|HoleSize=0mm|Usage=FLASHONLY|Rotation=180.000|XOffset=0mm|YOffset=0mm|HoleType=Round|Shape=RoundedRectangle|*
%AMROUNDEDRECTD42*
21,1,3.6032,1.7000,0,0,180.0*
21,1,1.7000,3.6032,0,0,180.0*
1,1,1.9032,-0.8500,0.8500*
1,1,1.9032,0.8500,0.8500*
1,1,1.9032,0.8500,-0.8500*
1,1,1.9032,-0.8500,-0.8500*
%
%ADD42ROUNDEDRECTD42*%
%ADD43C,3.6032*%
D25*
X1687000Y2606000D02*
D03*
X1686000Y2840000D02*
D03*
X1308000Y2606000D02*
D03*
Y2840000D02*
D03*
D39*
X1467000Y2714150D02*
D03*
Y2743850D02*
D03*
X1440000Y2714150D02*
D03*
Y2743850D02*
D03*
X1530000Y2713150D02*
D03*
Y2742850D02*
D03*
X1562000Y2714150D02*
D03*
Y2743850D02*
D03*
D40*
X1461750Y2589750D02*
D03*
X1536250D02*
D03*
X1535500Y2861000D02*
D03*
X1461000D02*
D03*
X1434250Y2860250D02*
D03*
X1359750D02*
D03*
X1636500Y2860000D02*
D03*
X1562000D02*
D03*
X1555750Y2589750D02*
D03*
X1630250D02*
D03*
X1365750D02*
D03*
X1440250D02*
D03*
D41*
X1480250Y2621750D02*
D03*
X1492750D02*
D03*
X1517750D02*
D03*
X1505250D02*
D03*
X1517000Y2829000D02*
D03*
X1504500D02*
D03*
X1479500D02*
D03*
X1492000D02*
D03*
X1415750Y2828250D02*
D03*
X1403250D02*
D03*
X1378250D02*
D03*
X1390750D02*
D03*
X1618000Y2828000D02*
D03*
X1605500D02*
D03*
X1580500D02*
D03*
X1593000D02*
D03*
X1574250Y2621750D02*
D03*
X1586750D02*
D03*
X1611750D02*
D03*
X1599250D02*
D03*
X1384250D02*
D03*
X1396750D02*
D03*
X1421750D02*
D03*
X1409250D02*
D03*
D42*
X1405000Y2702000D02*
D03*
D43*
Y2751000D02*
D03*
M02*
