G04*
G04 #@! TF.GenerationSoftware,Altium Limited,Altium Designer,21.6.1 (37)*
G04*
G04 Layer_Color=65535*
%FSLAX44Y44*%
%MOMM*%
G71*
G04*
G04 #@! TF.SameCoordinates,54B41048-786A-4A43-A445-D2F397ABDBDA*
G04*
G04*
G04 #@! TF.FilePolarity,Positive*
G04*
G01*
G75*
%ADD10C,0.2000*%
%ADD11C,0.1270*%
%ADD12C,0.1800*%
D10*
X1419000Y2773100D02*
G03*
X1419000Y2773100I-1000J0D01*
G01*
X1541000Y2778100D02*
G03*
X1541000Y2778100I-1000J0D01*
G01*
X1588000Y2777100D02*
G03*
X1588000Y2777100I-1000J0D01*
G01*
X1512500Y2669000D02*
G03*
X1512500Y2669000I-1000J0D01*
G01*
X1626000Y2674000D02*
G03*
X1626000Y2674000I-1000J0D01*
G01*
X1368881Y2669000D02*
G03*
X1368881Y2669000I-1000J0D01*
G01*
X1613500Y2778000D02*
G03*
X1613500Y2778000I-1000J0D01*
G01*
X1469500D02*
G03*
X1469500Y2778000I-1000J0D01*
G01*
D11*
X1396500Y2688500D02*
Y2761500D01*
X1439500Y2688500D02*
Y2761500D01*
X1518500Y2693500D02*
Y2766500D01*
X1561500Y2693500D02*
Y2766500D01*
X1565500Y2692500D02*
Y2765500D01*
X1608500Y2692500D02*
Y2765500D01*
X1630500Y2639000D02*
Y2660000D01*
X1608000D02*
X1630500D01*
X1493000Y2639500D02*
Y2660500D01*
X1515500D01*
X1492500Y2571000D02*
Y2580500D01*
X1631000Y2571000D02*
X1631500Y2571500D01*
Y2580500D01*
X1492500Y2571000D02*
X1631000D01*
X1634000Y2793000D02*
X1655000D01*
X1634000Y2770500D02*
Y2793000D01*
X1633500Y2655500D02*
X1654500D01*
X1633500D02*
Y2678000D01*
X1713500Y2655000D02*
X1723000D01*
X1722500Y2794000D02*
X1723000Y2793500D01*
X1713500Y2794000D02*
X1722500D01*
X1723000Y2655000D02*
Y2793500D01*
X1486881Y2639000D02*
Y2660000D01*
X1464381D02*
X1486881D01*
X1349381Y2639500D02*
Y2660500D01*
X1371881D01*
X1348881Y2571000D02*
Y2580500D01*
X1487381Y2571000D02*
X1487881Y2571500D01*
Y2580500D01*
X1348881Y2571000D02*
X1487381D01*
X1493500Y2787000D02*
Y2808000D01*
Y2787000D02*
X1516000D01*
X1631000Y2786500D02*
Y2807500D01*
X1608500Y2786500D02*
X1631000D01*
X1631500Y2866500D02*
Y2876000D01*
X1492500Y2875500D02*
X1493000Y2876000D01*
X1492500Y2866500D02*
Y2875500D01*
X1493000Y2876000D02*
X1631500D01*
X1349500Y2787000D02*
Y2808000D01*
Y2787000D02*
X1372000D01*
X1487000Y2786500D02*
Y2807500D01*
X1464500Y2786500D02*
X1487000D01*
X1487500Y2866500D02*
Y2876000D01*
X1348500Y2875500D02*
X1349000Y2876000D01*
X1348500Y2866500D02*
Y2875500D01*
X1349000Y2876000D02*
X1487500D01*
D12*
X1462278Y2785758D02*
Y2778760D01*
X1466943D01*
X1469276D02*
X1471608D01*
X1470442D01*
Y2785758D01*
X1469276Y2784591D01*
X1522315Y2792719D02*
X1521149Y2793886D01*
X1518816D01*
X1517650Y2792719D01*
Y2788054D01*
X1518816Y2786888D01*
X1521149D01*
X1522315Y2788054D01*
X1528147Y2786888D02*
Y2793886D01*
X1524648Y2790387D01*
X1529313D01*
X1569305Y2791703D02*
X1568139Y2792870D01*
X1565806D01*
X1564640Y2791703D01*
Y2787038D01*
X1565806Y2785872D01*
X1568139D01*
X1569305Y2787038D01*
X1571638Y2791703D02*
X1572804Y2792870D01*
X1575137D01*
X1576303Y2791703D01*
Y2790537D01*
X1575137Y2789371D01*
X1573970D01*
X1575137D01*
X1576303Y2788205D01*
Y2787038D01*
X1575137Y2785872D01*
X1572804D01*
X1571638Y2787038D01*
X1399000Y2777332D02*
X1397834Y2778499D01*
X1395501D01*
X1394335Y2777332D01*
Y2772668D01*
X1395501Y2771501D01*
X1397834D01*
X1399000Y2772668D01*
X1401333Y2771501D02*
X1403665D01*
X1402499D01*
Y2778499D01*
X1401333Y2777332D01*
M02*
