G04*
G04 #@! TF.GenerationSoftware,Altium Limited,Altium Designer,21.6.1 (37)*
G04*
G04 Layer_Color=65535*
%FSLAX44Y44*%
%MOMM*%
G71*
G04*
G04 #@! TF.SameCoordinates,4777B8CB-E48F-4368-B68D-2058CC3BE4D0*
G04*
G04*
G04 #@! TF.FilePolarity,Positive*
G04*
G01*
G75*
%ADD10C,0.2000*%
%ADD11C,0.3000*%
%ADD12C,0.1270*%
%ADD13C,0.1700*%
%ADD14C,0.2540*%
%ADD15C,0.1800*%
D10*
X1626000Y2674000D02*
G03*
X1626000Y2674000I-1000J0D01*
G01*
X1613500Y2778000D02*
G03*
X1613500Y2778000I-1000J0D01*
G01*
X1512500Y2669000D02*
G03*
X1512500Y2669000I-1000J0D01*
G01*
X1368881D02*
G03*
X1368881Y2669000I-1000J0D01*
G01*
X1469500Y2778000D02*
G03*
X1469500Y2778000I-1000J0D01*
G01*
D11*
X1434500Y2722000D02*
G03*
X1434500Y2722000I-2000J0D01*
G01*
D12*
X1723000Y2655000D02*
Y2793500D01*
X1713500Y2794000D02*
X1722500D01*
X1723000Y2793500D01*
X1713500Y2655000D02*
X1723000D01*
X1633500Y2655500D02*
Y2678000D01*
Y2655500D02*
X1654500D01*
X1634000Y2770500D02*
Y2793000D01*
X1655000D01*
X1493000Y2876000D02*
X1631500D01*
X1492500Y2866500D02*
Y2875500D01*
X1493000Y2876000D01*
X1631500Y2866500D02*
Y2876000D01*
X1608500Y2786500D02*
X1631000D01*
Y2807500D01*
X1493500Y2787000D02*
X1516000D01*
X1493500D02*
Y2808000D01*
X1451500Y2680700D02*
X1540500D01*
X1451500Y2763300D02*
X1540500D01*
X1630500Y2639000D02*
Y2660000D01*
X1608000D02*
X1630500D01*
X1493000Y2639500D02*
Y2660500D01*
X1515500D01*
X1492500Y2571000D02*
Y2580500D01*
X1631000Y2571000D02*
X1631500Y2571500D01*
Y2580500D01*
X1492500Y2571000D02*
X1631000D01*
X1486881Y2639000D02*
Y2660000D01*
X1464381D02*
X1486881D01*
X1349381Y2639500D02*
Y2660500D01*
X1371881D01*
X1348881Y2571000D02*
Y2580500D01*
X1487381Y2571000D02*
X1487881Y2571500D01*
Y2580500D01*
X1348881Y2571000D02*
X1487381D01*
X1349500Y2787000D02*
Y2808000D01*
Y2787000D02*
X1372000D01*
X1487000Y2786500D02*
Y2807500D01*
X1464500Y2786500D02*
X1487000D01*
X1487500Y2866500D02*
Y2876000D01*
X1348500Y2875500D02*
X1349000Y2876000D01*
X1348500Y2866500D02*
Y2875500D01*
X1349000Y2876000D02*
X1487500D01*
D13*
X1416915Y2717394D02*
Y2722059D01*
X1414583Y2719727D02*
X1419248D01*
X1416915Y2731389D02*
Y2736055D01*
D14*
X1318574Y2667619D02*
X1323653D01*
X1321114D01*
Y2652384D01*
X1318574D01*
X1323653D01*
X1331270D02*
Y2667619D01*
X1341427Y2652384D01*
Y2667619D01*
D15*
X1486335Y2779499D02*
Y2772501D01*
X1491000D01*
X1493333D02*
X1495665D01*
X1494499D01*
Y2779499D01*
X1493333Y2778333D01*
M02*
