G04*
G04 #@! TF.GenerationSoftware,Altium Limited,Altium Designer,21.6.1 (37)*
G04*
G04 Layer_Color=32896*
%FSLAX44Y44*%
%MOMM*%
G71*
G04*
G04 #@! TF.SameCoordinates,54B41048-786A-4A43-A445-D2F397ABDBDA*
G04*
G04*
G04 #@! TF.FilePolarity,Positive*
G04*
G01*
G75*
%ADD10C,0.2000*%
%ADD11C,0.1270*%
%ADD12C,0.1800*%
%ADD44C,0.0100*%
G36*
X1669563Y2790275D02*
X1669563Y2790275D01*
X1669563Y2790287D01*
X1669563Y2790313D01*
X1669562Y2790339D01*
X1669562Y2790364D01*
Y2790377D01*
X1669563Y2790275D01*
D02*
G37*
G36*
X1675949Y2795459D02*
X1677841Y2794559D01*
X1679229Y2792989D01*
X1679890Y2791000D01*
X1679803Y2789956D01*
X1679803Y2789956D01*
X1679803Y2789944D01*
X1679790Y2789923D01*
X1679770Y2789909D01*
X1679747Y2789905D01*
X1679735Y2789909D01*
X1678541Y2783471D01*
X1678541D01*
X1678539Y2783459D01*
X1678526Y2783440D01*
X1678506Y2783428D01*
X1678482Y2783426D01*
X1678471Y2783430D01*
X1669639Y2786393D01*
X1669631Y2786396D01*
X1669617Y2786406D01*
X1669607Y2786419D01*
X1669602Y2786435D01*
X1669602Y2786443D01*
X1669563Y2790275D01*
X1669562Y2790378D01*
Y2791425D01*
X1670384Y2793353D01*
X1671896Y2794804D01*
X1673856Y2795545D01*
X1675949Y2795459D01*
D02*
G37*
G36*
X1663287Y2787120D02*
X1663287Y2787120D01*
X1663287D01*
Y2787120D01*
D02*
G37*
G36*
X1648367Y2757687D02*
X1640706Y2763275D01*
X1641743Y2763597D01*
X1643762Y2764397D01*
X1645690Y2765397D01*
X1647506Y2766586D01*
X1648367Y2767248D01*
Y2757687D01*
D02*
G37*
G36*
X1660954Y2787902D02*
X1663287Y2787120D01*
X1661103Y2786941D01*
X1656781Y2786221D01*
X1652564Y2785031D01*
X1648504Y2783384D01*
X1644650Y2781300D01*
X1641048Y2778805D01*
X1637743Y2775929D01*
X1634774Y2772706D01*
X1632178Y2769177D01*
X1629986Y2765383D01*
X1628225Y2761371D01*
X1626915Y2757190D01*
X1626436Y2755052D01*
X1625984Y2757470D01*
X1625927Y2762390D01*
X1626719Y2767247D01*
X1628337Y2771894D01*
X1630731Y2776192D01*
X1633831Y2780014D01*
X1637543Y2783244D01*
X1641756Y2785786D01*
X1646344Y2787564D01*
X1651170Y2788524D01*
X1656089Y2788638D01*
X1660954Y2787902D01*
D02*
G37*
G36*
X1640221Y2749412D02*
X1641420Y2748568D01*
X1642653Y2747774D01*
X1643916Y2747030D01*
X1644559Y2746678D01*
Y2746678D01*
Y2746678D01*
D01*
X1644055Y2745099D01*
X1643269Y2741880D01*
X1642784Y2738603D01*
X1642604Y2735294D01*
X1642730Y2731983D01*
X1643162Y2728698D01*
X1643895Y2725467D01*
X1644924Y2722318D01*
X1645547Y2720782D01*
X1644487Y2721203D01*
X1642416Y2722157D01*
X1640399Y2723219D01*
X1638440Y2724386D01*
X1637493Y2725021D01*
X1636862Y2728121D01*
X1636499Y2734439D01*
X1637043Y2740743D01*
X1638482Y2746905D01*
X1639634Y2749852D01*
X1639634Y2749852D01*
X1640221Y2749412D01*
D02*
G37*
G36*
X1655649Y2778612D02*
X1657541Y2778241D01*
X1661199Y2777018D01*
X1664667Y2775331D01*
X1667888Y2773210D01*
X1670808Y2770691D01*
X1673378Y2767815D01*
X1675554Y2764631D01*
X1677301Y2761193D01*
X1678588Y2757558D01*
X1679395Y2753786D01*
X1679707Y2749942D01*
X1679520Y2746090D01*
X1679178Y2744193D01*
X1679054Y2745954D01*
X1678457Y2749434D01*
X1677404Y2752804D01*
X1675916Y2756005D01*
X1674018Y2758982D01*
X1671743Y2761681D01*
X1669131Y2764056D01*
X1666227Y2766065D01*
X1663084Y2767672D01*
X1659756Y2768850D01*
X1656301Y2769578D01*
X1652781Y2769842D01*
X1651015Y2769799D01*
X1651814Y2770768D01*
X1653234Y2772839D01*
X1654402Y2775061D01*
X1655303Y2777404D01*
X1655649Y2778612D01*
Y2778612D01*
D02*
G37*
G36*
X1679178Y2744193D02*
X1679178D01*
X1679178Y2744193D01*
Y2744193D01*
D02*
G37*
G36*
X1630245Y2752888D02*
X1633700Y2751927D01*
X1635333Y2751187D01*
X1635332Y2751187D01*
X1634135Y2749355D01*
X1632164Y2745450D01*
X1630793Y2741295D01*
X1630052Y2736984D01*
X1629924Y2734799D01*
X1629924D01*
X1629065Y2736096D01*
X1627101Y2738509D01*
X1624838Y2740643D01*
X1622314Y2742462D01*
X1619574Y2743935D01*
X1616665Y2745036D01*
X1613637Y2745746D01*
X1610541Y2746054D01*
X1608985Y2746055D01*
X1610221Y2747354D01*
X1613063Y2749541D01*
X1616207Y2751265D01*
X1619580Y2752484D01*
X1623100Y2753169D01*
X1626683Y2753305D01*
X1630245Y2752888D01*
D02*
G37*
G36*
X1683907Y2780955D02*
X1688247Y2777490D01*
X1691976Y2773374D01*
X1694997Y2768714D01*
X1697231Y2763629D01*
X1698621Y2758252D01*
X1699131Y2752722D01*
X1698747Y2747181D01*
X1697480Y2741774D01*
X1695362Y2736639D01*
X1692448Y2731911D01*
X1688814Y2727712D01*
X1686683Y2725930D01*
X1685680Y2725202D01*
X1683592Y2723865D01*
X1681430Y2722649D01*
X1679203Y2721560D01*
X1678059Y2721081D01*
X1680399Y2722858D01*
X1684645Y2726914D01*
X1688235Y2731561D01*
X1691089Y2736693D01*
X1693140Y2742195D01*
X1694343Y2747943D01*
X1694671Y2753806D01*
X1694117Y2759651D01*
X1692692Y2765348D01*
X1690430Y2770767D01*
X1687381Y2775785D01*
X1683613Y2780290D01*
X1681487Y2782317D01*
X1683907Y2780955D01*
D02*
G37*
G36*
X1668014Y2741506D02*
X1667606Y2738413D01*
X1667545Y2735295D01*
X1667834Y2732189D01*
X1668468Y2729135D01*
X1669440Y2726171D01*
X1670737Y2723334D01*
X1672342Y2720660D01*
X1673255Y2719394D01*
Y2719394D01*
X1672530Y2719187D01*
X1671066Y2718824D01*
X1669591Y2718512D01*
X1668105Y2718252D01*
X1667359Y2718148D01*
Y2718148D01*
X1666321Y2719386D01*
X1664563Y2722096D01*
X1663146Y2724999D01*
X1662092Y2728052D01*
X1661416Y2731211D01*
X1661127Y2734428D01*
X1661232Y2737657D01*
X1661727Y2740849D01*
X1662166Y2742403D01*
X1662166D01*
X1662943Y2742423D01*
X1664496Y2742513D01*
X1666043Y2742670D01*
X1667582Y2742893D01*
X1668348Y2743030D01*
X1668348Y2743030D01*
X1668014Y2741506D01*
D02*
G37*
G36*
X1650275Y2744225D02*
X1651771Y2743766D01*
X1653286Y2743372D01*
X1654816Y2743045D01*
X1655586Y2742906D01*
X1655301Y2741269D01*
X1654992Y2737961D01*
X1655032Y2734640D01*
X1655422Y2731341D01*
X1656157Y2728101D01*
X1657229Y2724956D01*
X1658626Y2721942D01*
X1660332Y2719092D01*
X1661296Y2717738D01*
X1660508Y2717741D01*
X1658934Y2717804D01*
X1657364Y2717924D01*
X1655799Y2718102D01*
X1655020Y2718220D01*
X1654008Y2719621D01*
X1652289Y2722620D01*
X1650894Y2725782D01*
X1649836Y2729073D01*
X1649130Y2732457D01*
X1648781Y2735896D01*
X1648794Y2739353D01*
X1649169Y2742790D01*
X1649535Y2744479D01*
Y2744479D01*
X1650275Y2744225D01*
D02*
G37*
D10*
X1518000Y2635750D02*
G03*
X1518000Y2635750I-1000J0D01*
G01*
X1481250Y2815000D02*
G03*
X1481250Y2815000I-1000J0D01*
G01*
X1380000Y2814250D02*
G03*
X1380000Y2814250I-1000J0D01*
G01*
X1582250Y2814000D02*
G03*
X1582250Y2814000I-1000J0D01*
G01*
X1612000Y2635750D02*
G03*
X1612000Y2635750I-1000J0D01*
G01*
X1422000D02*
G03*
X1422000Y2635750I-1000J0D01*
G01*
X1386000Y2671750D02*
Y2776000D01*
D11*
X1655020Y2718220D02*
G03*
X1661296Y2717738I6416J42518D01*
G01*
X1649535Y2744479D02*
G03*
X1655586Y2742906I12086J34077D01*
G01*
X1651015Y2769799D02*
G03*
X1655649Y2778612I-16152J14118D01*
G01*
X1667359Y2718148D02*
G03*
X1673255Y2719394I-5922J42590D01*
G01*
X1639634Y2749852D02*
G03*
X1637493Y2725021I41018J-16045D01*
G01*
X1635333Y2751187D02*
G03*
X1629924Y2734799I24027J-17015D01*
G01*
X1655586Y2742906D02*
G03*
X1661296Y2717738I30896J-6222D01*
G01*
X1649535Y2744479D02*
G03*
X1655020Y2718220I32193J-6978D01*
G01*
X1668348Y2743030D02*
G03*
X1673255Y2719394I27036J-6714D01*
G01*
X1639634Y2749852D02*
G03*
X1644559Y2746678I21987J28704D01*
G01*
X1640706Y2763275D02*
G03*
X1648367Y2767248I-5843J20641D01*
G01*
X1662166Y2742403D02*
G03*
X1667359Y2718148I25535J-7217D01*
G01*
X1644559Y2746678D02*
G03*
X1645547Y2720782I33861J-11675D01*
G01*
X1662166Y2742403D02*
G03*
X1668348Y2743030I-545J36153D01*
G01*
X1637493Y2725021D02*
G03*
X1645547Y2720782I23943J35717D01*
G01*
X1678059Y2721081D02*
G03*
X1686683Y2725930I-16623J39656D01*
G01*
X1663287Y2787120D02*
G03*
X1626436Y2755052I2173J-39705D01*
G01*
X1663287Y2787120D02*
G03*
X1626436Y2755052I-9002J-26864D01*
G01*
X1679178Y2744193D02*
G03*
X1655649Y2778612I-29236J5266D01*
G01*
X1679178Y2744193D02*
G03*
X1651015Y2769799I-26628J-996D01*
G01*
X1635332Y2751187D02*
G03*
X1608985Y2746055I-9565J-21095D01*
G01*
X1629924Y2734799D02*
G03*
X1608985Y2746055I-20175J-12426D01*
G01*
X1686683Y2725930D02*
G03*
X1681487Y2782317I-22073J26398D01*
G01*
X1678059Y2721081D02*
G03*
X1681487Y2782317I-22438J31970D01*
G01*
X1648367Y2757687D02*
Y2767248D01*
X1640706Y2763275D02*
X1648367Y2757687D01*
X1468500Y2578750D02*
X1529400D01*
X1457750Y2619250D02*
X1475400D01*
X1457750Y2604950D02*
Y2619250D01*
X1522600D02*
X1540250D01*
Y2605050D02*
Y2619250D01*
X1467850Y2872000D02*
X1528750D01*
X1521850Y2831500D02*
X1539500D01*
Y2845800D01*
X1457000Y2831500D02*
X1474650D01*
X1457000D02*
Y2845700D01*
X1366600Y2871250D02*
X1427500D01*
X1420600Y2830750D02*
X1438250D01*
Y2845050D01*
X1355750Y2830750D02*
X1373400D01*
X1355750D02*
Y2844950D01*
X1568850Y2871000D02*
X1629750D01*
X1622850Y2830500D02*
X1640500D01*
Y2844800D01*
X1558000Y2830500D02*
X1575650D01*
X1558000D02*
Y2844700D01*
X1562500Y2578750D02*
X1623400D01*
X1551750Y2619250D02*
X1569400D01*
X1551750Y2604950D02*
Y2619250D01*
X1616600D02*
X1634250D01*
Y2605050D02*
Y2619250D01*
X1372500Y2578750D02*
X1433400D01*
X1361750Y2619250D02*
X1379400D01*
X1361750Y2604950D02*
Y2619250D01*
X1426600D02*
X1444250D01*
Y2605050D02*
Y2619250D01*
D12*
X1568077Y2806798D02*
Y2800966D01*
X1566911Y2799800D01*
X1564578D01*
X1563412Y2800966D01*
Y2806798D01*
X1561079Y2799800D02*
Y2804465D01*
X1558747Y2806798D01*
X1556414Y2804465D01*
Y2799800D01*
Y2803299D01*
X1561079D01*
X1554082Y2806798D02*
Y2802133D01*
X1551749Y2799800D01*
X1549416Y2802133D01*
Y2806798D01*
X1542419Y2805631D02*
X1543585Y2806798D01*
X1545918D01*
X1547084Y2805631D01*
Y2800966D01*
X1545918Y2799800D01*
X1543585D01*
X1542419Y2800966D01*
X1540086Y2799800D02*
Y2804465D01*
X1537753Y2806798D01*
X1535421Y2804465D01*
Y2799800D01*
Y2803299D01*
X1540086D01*
X1533088Y2799800D02*
Y2806798D01*
X1528423Y2799800D01*
Y2806798D01*
X1519093Y2799800D02*
Y2806798D01*
X1516760Y2804465D01*
X1514428Y2806798D01*
Y2799800D01*
X1512095Y2806798D02*
Y2800966D01*
X1510929Y2799800D01*
X1508596D01*
X1507430Y2800966D01*
Y2806798D01*
X1505097D02*
X1500432Y2799800D01*
Y2806798D02*
X1505097Y2799800D01*
X1491102Y2804465D02*
X1488769Y2799800D01*
X1486437Y2804465D01*
X1479439Y2806798D02*
X1484104D01*
Y2803299D01*
X1481772Y2804465D01*
X1480605D01*
X1479439Y2803299D01*
Y2800966D01*
X1480605Y2799800D01*
X1482938D01*
X1484104Y2800966D01*
X1421201Y2737950D02*
Y2733285D01*
X1418869Y2735617D02*
X1423534D01*
X1421201Y2723954D02*
Y2719290D01*
X1698701Y2690515D02*
Y2691681D01*
X1699867D01*
Y2690515D01*
X1698701D01*
X1697535Y2691681D01*
Y2694014D01*
X1698701Y2695180D01*
X1701034D01*
X1702200Y2694014D01*
Y2689349D01*
X1701034Y2688182D01*
X1697535D01*
X1695202D02*
X1691703D01*
X1690537Y2689349D01*
X1691703Y2690515D01*
X1694036D01*
X1695202Y2691681D01*
X1694036Y2692848D01*
X1690537D01*
X1687038D02*
X1684706D01*
X1683539Y2691681D01*
Y2688182D01*
X1687038D01*
X1688204Y2689349D01*
X1687038Y2690515D01*
X1683539D01*
X1681207Y2688182D02*
X1678874D01*
X1680040D01*
Y2692848D01*
X1681207D01*
X1675375Y2688182D02*
Y2692848D01*
X1671876D01*
X1670710Y2691681D01*
Y2688182D01*
X1663712Y2685850D02*
Y2692848D01*
X1667211D01*
X1668378Y2691681D01*
Y2689349D01*
X1667211Y2688182D01*
X1663712D01*
X1661380Y2692848D02*
Y2689349D01*
X1660213Y2688182D01*
X1656715D01*
Y2692848D01*
X1653216D02*
X1650883D01*
X1649717Y2691681D01*
Y2688182D01*
X1653216D01*
X1654382Y2689349D01*
X1653216Y2690515D01*
X1649717D01*
X1647384Y2688182D02*
Y2695180D01*
Y2690515D02*
X1643885Y2692848D01*
X1647384Y2690515D02*
X1643885Y2688182D01*
X1636888D02*
X1639220D01*
X1640387Y2689349D01*
Y2691681D01*
X1639220Y2692848D01*
X1636888D01*
X1635721Y2691681D01*
Y2690515D01*
X1640387D01*
X1702200Y2677798D02*
Y2673133D01*
Y2675465D01*
X1701034Y2676631D01*
X1699867Y2677798D01*
X1698701D01*
X1694036D02*
X1691703D01*
X1690537Y2676631D01*
Y2673133D01*
X1694036D01*
X1695202Y2674299D01*
X1694036Y2675465D01*
X1690537D01*
X1683539Y2677798D02*
X1687038D01*
X1688204Y2676631D01*
Y2674299D01*
X1687038Y2673133D01*
X1683539D01*
X1676542Y2677798D02*
X1680040D01*
X1681207Y2676631D01*
Y2674299D01*
X1680040Y2673133D01*
X1676542D01*
X1673043D02*
X1670710D01*
X1669544Y2674299D01*
Y2676631D01*
X1670710Y2677798D01*
X1673043D01*
X1674209Y2676631D01*
Y2674299D01*
X1673043Y2673133D01*
X1666045D02*
X1663712D01*
X1662546Y2674299D01*
Y2676631D01*
X1663712Y2677798D01*
X1666045D01*
X1667211Y2676631D01*
Y2674299D01*
X1666045Y2673133D01*
X1660213D02*
Y2677798D01*
X1656715D01*
X1655548Y2676631D01*
Y2673133D01*
X1653216D02*
X1650883D01*
X1652050D01*
Y2680130D01*
X1653216D01*
X1646218Y2677798D02*
X1643885D01*
X1642719Y2676631D01*
Y2673133D01*
X1646218D01*
X1647384Y2674299D01*
X1646218Y2675465D01*
X1642719D01*
X1640387Y2680130D02*
Y2673133D01*
X1636888D01*
X1635721Y2674299D01*
Y2675465D01*
Y2676631D01*
X1636888Y2677798D01*
X1640387D01*
X1633389Y2673133D02*
Y2674299D01*
X1632222D01*
Y2673133D01*
X1633389D01*
X1626391D02*
X1624058D01*
X1622892Y2674299D01*
Y2676631D01*
X1624058Y2677798D01*
X1626391D01*
X1627557Y2676631D01*
Y2674299D01*
X1626391Y2673133D01*
X1620560Y2677798D02*
Y2673133D01*
Y2675465D01*
X1619393Y2676631D01*
X1618227Y2677798D01*
X1617061D01*
X1611229Y2670800D02*
X1610063D01*
X1608897Y2671966D01*
Y2677798D01*
X1612395D01*
X1613562Y2676631D01*
Y2674299D01*
X1612395Y2673133D01*
X1608897D01*
X1606564D02*
X1601899Y2677798D01*
X1599566D02*
Y2674299D01*
X1598400Y2673133D01*
X1594901D01*
Y2677798D01*
X1591402D02*
X1589070D01*
X1587903Y2676631D01*
Y2673133D01*
X1591402D01*
X1592569Y2674299D01*
X1591402Y2675465D01*
X1587903D01*
X1585571Y2677798D02*
X1583238Y2673133D01*
X1580906Y2677798D01*
X1573908D02*
X1577407D01*
X1578573Y2676631D01*
Y2674299D01*
X1577407Y2673133D01*
X1573908D01*
X1570409Y2677798D02*
X1568076D01*
X1566910Y2676631D01*
Y2673133D01*
X1570409D01*
X1571575Y2674299D01*
X1570409Y2675465D01*
X1566910D01*
X1564578Y2673133D02*
Y2677798D01*
X1561079D01*
X1559912Y2676631D01*
Y2673133D01*
X1567176Y2769934D02*
X1568343Y2771100D01*
X1570675D01*
X1571842Y2769934D01*
Y2765269D01*
X1570675Y2764103D01*
X1568343D01*
X1567176Y2765269D01*
X1564844Y2769934D02*
X1563678Y2771100D01*
X1561345D01*
X1560179Y2769934D01*
Y2768768D01*
X1561345Y2767602D01*
X1560179Y2766435D01*
Y2765269D01*
X1561345Y2764103D01*
X1563678D01*
X1564844Y2765269D01*
Y2766435D01*
X1563678Y2767602D01*
X1564844Y2768768D01*
Y2769934D01*
X1563678Y2767602D02*
X1561345D01*
X1535108Y2768902D02*
X1536275Y2770068D01*
X1538607D01*
X1539774Y2768902D01*
Y2764237D01*
X1538607Y2763071D01*
X1536275D01*
X1535108Y2764237D01*
X1532776Y2770068D02*
X1528111D01*
Y2768902D01*
X1532776Y2764237D01*
Y2763071D01*
X1445262Y2769744D02*
X1446429Y2770910D01*
X1448761D01*
X1449928Y2769744D01*
Y2765079D01*
X1448761Y2763913D01*
X1446429D01*
X1445262Y2765079D01*
X1438265Y2770910D02*
X1440597Y2769744D01*
X1442930Y2767411D01*
Y2765079D01*
X1441763Y2763913D01*
X1439431D01*
X1438265Y2765079D01*
Y2766245D01*
X1439431Y2767411D01*
X1442930D01*
X1472140Y2769776D02*
X1473307Y2770942D01*
X1475639D01*
X1476806Y2769776D01*
Y2765111D01*
X1475639Y2763945D01*
X1473307D01*
X1472140Y2765111D01*
X1465143Y2770942D02*
X1469808D01*
Y2767444D01*
X1467475Y2768610D01*
X1466309D01*
X1465143Y2767444D01*
Y2765111D01*
X1466309Y2763945D01*
X1468642D01*
X1469808Y2765111D01*
D44*
X1679750Y2789960D02*
G03*
X1669641Y2789875I-5058J417D01*
G01*
X1678488Y2783481D02*
X1679767Y2790378D01*
X1669616D02*
X1669656Y2786444D01*
X1678488Y2783481D01*
M02*
