G04*
G04 #@! TF.GenerationSoftware,Altium Limited,Altium Designer,21.6.1 (37)*
G04*
G04 Layer_Color=128*
%FSLAX44Y44*%
%MOMM*%
G71*
G04*
G04 #@! TF.SameCoordinates,54B41048-786A-4A43-A445-D2F397ABDBDA*
G04*
G04*
G04 #@! TF.FilePolarity,Positive*
G04*
G01*
G75*
%ADD33R,1.8200X1.1500*%
%ADD34R,1.0000X2.7000*%
%ADD35R,0.6000X1.7000*%
G04:AMPARAMS|DCode=36|XSize=3.4mm|YSize=3.4mm|CornerRadius=0.85mm|HoleSize=0mm|Usage=FLASHONLY|Rotation=180.000|XOffset=0mm|YOffset=0mm|HoleType=Round|Shape=RoundedRectangle|*
%AMROUNDEDRECTD36*
21,1,3.4000,1.7000,0,0,180.0*
21,1,1.7000,3.4000,0,0,180.0*
1,1,1.7000,-0.8500,0.8500*
1,1,1.7000,0.8500,0.8500*
1,1,1.7000,0.8500,-0.8500*
1,1,1.7000,-0.8500,-0.8500*
%
%ADD36ROUNDEDRECTD36*%
%ADD37C,3.4000*%
D33*
X1467000Y2714150D02*
D03*
Y2743850D02*
D03*
X1440000Y2714150D02*
D03*
Y2743850D02*
D03*
X1530000Y2713150D02*
D03*
Y2742850D02*
D03*
X1562000Y2714150D02*
D03*
Y2743850D02*
D03*
D34*
X1461750Y2589750D02*
D03*
X1536250D02*
D03*
X1535500Y2861000D02*
D03*
X1461000D02*
D03*
X1434250Y2860250D02*
D03*
X1359750D02*
D03*
X1636500Y2860000D02*
D03*
X1562000D02*
D03*
X1555750Y2589750D02*
D03*
X1630250D02*
D03*
X1365750D02*
D03*
X1440250D02*
D03*
D35*
X1480250Y2621750D02*
D03*
X1492750D02*
D03*
X1517750D02*
D03*
X1505250D02*
D03*
X1517000Y2829000D02*
D03*
X1504500D02*
D03*
X1479500D02*
D03*
X1492000D02*
D03*
X1415750Y2828250D02*
D03*
X1403250D02*
D03*
X1378250D02*
D03*
X1390750D02*
D03*
X1618000Y2828000D02*
D03*
X1605500D02*
D03*
X1580500D02*
D03*
X1593000D02*
D03*
X1574250Y2621750D02*
D03*
X1586750D02*
D03*
X1611750D02*
D03*
X1599250D02*
D03*
X1384250D02*
D03*
X1396750D02*
D03*
X1421750D02*
D03*
X1409250D02*
D03*
D36*
X1405000Y2702000D02*
D03*
D37*
Y2751000D02*
D03*
M02*
