G04*
G04 #@! TF.GenerationSoftware,Altium Limited,Altium Designer,21.6.1 (37)*
G04*
G04 Layer_Physical_Order=1*
G04 Layer_Color=255*
%FSLAX44Y44*%
%MOMM*%
G71*
G04*
G04 #@! TF.SameCoordinates,4777B8CB-E48F-4368-B68D-2058CC3BE4D0*
G04*
G04*
G04 #@! TF.FilePolarity,Positive*
G04*
G01*
G75*
%ADD16R,2.7000X1.0000*%
%ADD17R,3.8000X1.8000*%
%ADD18R,1.0000X2.7000*%
%ADD19R,1.8000X3.8000*%
%ADD20R,2.4200X5.0900*%
%ADD31C,2.0000*%
%ADD32C,0.4000*%
%ADD33C,1.0000*%
%ADD34C,0.5000*%
%ADD35C,2.4000*%
G04:AMPARAMS|DCode=36|XSize=2.4mm|YSize=2.4mm|CornerRadius=0.36mm|HoleSize=0mm|Usage=FLASHONLY|Rotation=180.000|XOffset=0mm|YOffset=0mm|HoleType=Round|Shape=RoundedRectangle|*
%AMROUNDEDRECTD36*
21,1,2.4000,1.6800,0,0,180.0*
21,1,1.6800,2.4000,0,0,180.0*
1,1,0.7200,-0.8400,0.8400*
1,1,0.7200,0.8400,0.8400*
1,1,0.7200,0.8400,-0.8400*
1,1,0.7200,-0.8400,-0.8400*
%
%ADD36ROUNDEDRECTD36*%
%ADD37C,1.6000*%
G04:AMPARAMS|DCode=38|XSize=2.4mm|YSize=2.4mm|CornerRadius=0.6mm|HoleSize=0mm|Usage=FLASHONLY|Rotation=0.000|XOffset=0mm|YOffset=0mm|HoleType=Round|Shape=RoundedRectangle|*
%AMROUNDEDRECTD38*
21,1,2.4000,1.2000,0,0,0.0*
21,1,1.2000,2.4000,0,0,0.0*
1,1,1.2000,0.6000,-0.6000*
1,1,1.2000,-0.6000,-0.6000*
1,1,1.2000,-0.6000,0.6000*
1,1,1.2000,0.6000,0.6000*
%
%ADD38ROUNDEDRECTD38*%
%ADD39C,7.0000*%
%ADD40C,0.7000*%
G36*
X1717000Y2852000D02*
X1719000D01*
Y2616000D01*
X1678000Y2575000D01*
X1314000D01*
X1275000Y2614000D01*
Y2845000D01*
X1301769Y2871769D01*
X1696111Y2872889D01*
X1717000Y2852000D01*
D02*
G37*
%LPC*%
G36*
X1593000Y2835302D02*
X1590971Y2834898D01*
X1589251Y2833749D01*
X1588102Y2832029D01*
X1587706Y2830042D01*
X1573632Y2815968D01*
X1572815Y2814744D01*
X1572527Y2813300D01*
X1572527Y2813300D01*
Y2811363D01*
X1571365Y2810200D01*
X1568635D01*
X1567307Y2811528D01*
X1566839Y2812229D01*
X1564200Y2814868D01*
X1562976Y2815685D01*
X1561533Y2815973D01*
X1561532Y2815973D01*
X1493268D01*
X1492749Y2816749D01*
X1491029Y2817898D01*
X1489000Y2818302D01*
X1486971Y2817898D01*
X1485251Y2816749D01*
X1484732Y2815973D01*
X1434467D01*
X1434467Y2815973D01*
X1433024Y2815685D01*
X1431800Y2814868D01*
X1431800Y2814868D01*
X1429161Y2812229D01*
X1428692Y2811528D01*
X1427365Y2810200D01*
X1424635D01*
X1423307Y2811528D01*
X1422839Y2812229D01*
X1422839Y2812229D01*
X1403900Y2831168D01*
X1402676Y2831985D01*
X1401233Y2832273D01*
X1401232Y2832273D01*
X1394714D01*
X1393029Y2833398D01*
X1391000Y2833802D01*
X1388971Y2833398D01*
X1387251Y2832249D01*
X1386102Y2830529D01*
X1385698Y2828500D01*
X1386102Y2826471D01*
X1387251Y2824751D01*
X1388971Y2823602D01*
X1391000Y2823198D01*
X1393029Y2823602D01*
X1394714Y2824727D01*
X1399670D01*
X1413024Y2811373D01*
X1412538Y2810200D01*
X1411512D01*
X1411000Y2810302D01*
X1410488Y2810200D01*
X1404300D01*
Y2779800D01*
X1417700D01*
Y2803665D01*
X1418970Y2804325D01*
X1419300Y2804094D01*
Y2779800D01*
X1432700D01*
Y2804094D01*
X1433030Y2804325D01*
X1434300Y2803665D01*
Y2795439D01*
X1434242Y2795000D01*
Y2772858D01*
X1434473Y2771109D01*
X1435148Y2769479D01*
X1435349Y2769217D01*
X1435057Y2767000D01*
X1435459Y2763946D01*
X1436638Y2761100D01*
X1438513Y2758655D01*
X1445263Y2751906D01*
X1447199Y2750420D01*
X1446768Y2749150D01*
X1444750D01*
Y2747746D01*
X1444327Y2747662D01*
X1442607Y2746512D01*
X1441457Y2744792D01*
X1441054Y2742764D01*
X1441457Y2740735D01*
X1442607Y2739015D01*
X1442638Y2738994D01*
X1442415Y2737615D01*
X1440990Y2736663D01*
X1439841Y2734943D01*
X1439437Y2732914D01*
X1439841Y2730885D01*
X1440990Y2729165D01*
X1442710Y2728015D01*
X1444739Y2727612D01*
X1444750Y2727603D01*
Y2694850D01*
X1472350D01*
Y2710233D01*
X1472451Y2711000D01*
X1472350Y2711767D01*
Y2725106D01*
X1486068D01*
X1489122Y2725508D01*
X1491968Y2726687D01*
X1494412Y2728562D01*
X1496288Y2731006D01*
X1497466Y2733853D01*
X1497869Y2736907D01*
X1497466Y2739961D01*
X1496288Y2742807D01*
X1494412Y2745251D01*
X1491968Y2747127D01*
X1491842Y2747179D01*
X1492094Y2748449D01*
X1508651D01*
X1509137Y2747276D01*
X1507905Y2746045D01*
X1506030Y2743600D01*
X1504851Y2740754D01*
X1504449Y2737700D01*
Y2680758D01*
X1395381D01*
X1393632Y2680528D01*
X1392002Y2679852D01*
X1390603Y2678778D01*
X1382185Y2670361D01*
X1381932Y2670327D01*
X1380302Y2669652D01*
X1378903Y2668578D01*
X1377524Y2667200D01*
X1373681D01*
Y2660939D01*
X1373623Y2660500D01*
Y2652000D01*
X1373681Y2651561D01*
Y2636800D01*
X1387081D01*
Y2651561D01*
X1387139Y2652000D01*
Y2656064D01*
X1387353Y2656178D01*
X1388623Y2655417D01*
Y2652000D01*
X1388681Y2651561D01*
Y2636800D01*
X1402081D01*
Y2651561D01*
X1402139Y2652000D01*
Y2666085D01*
X1402411Y2666326D01*
X1403681Y2665754D01*
Y2636800D01*
X1406043D01*
Y2628861D01*
X1405501Y2628499D01*
X1404352Y2626779D01*
X1404065Y2625338D01*
X1402798Y2624772D01*
X1402048Y2625274D01*
X1401898Y2626029D01*
X1400749Y2627749D01*
X1399029Y2628898D01*
X1397000Y2629302D01*
X1394971Y2628898D01*
X1393251Y2627749D01*
X1392102Y2626029D01*
X1391698Y2624000D01*
X1392102Y2621971D01*
X1393251Y2620251D01*
X1394971Y2619102D01*
X1396059Y2618885D01*
X1401901Y2613043D01*
X1403290Y2612115D01*
X1404929Y2611789D01*
X1411460D01*
X1413099Y2612115D01*
X1414489Y2613043D01*
X1428409Y2626964D01*
X1429337Y2628353D01*
X1429663Y2629991D01*
Y2630582D01*
X1430933Y2631058D01*
X1432003Y2630344D01*
X1433641Y2630018D01*
X1488300D01*
X1489939Y2630344D01*
X1491328Y2631272D01*
X1491941Y2631885D01*
X1493029Y2632102D01*
X1493951Y2632718D01*
X1512787D01*
X1520082Y2625422D01*
X1521472Y2624494D01*
X1523110Y2624168D01*
X1549166D01*
X1555361Y2617972D01*
X1556751Y2617044D01*
X1558389Y2616718D01*
X1583049D01*
X1583718Y2616271D01*
Y2598951D01*
X1583102Y2598029D01*
X1582698Y2596000D01*
X1583102Y2593971D01*
X1584251Y2592251D01*
X1585971Y2591102D01*
X1588000Y2590698D01*
X1590029Y2591102D01*
X1591749Y2592251D01*
X1592898Y2593971D01*
X1593302Y2596000D01*
X1592898Y2598029D01*
X1592282Y2598951D01*
Y2618459D01*
X1591956Y2620097D01*
X1591280Y2621110D01*
X1590913Y2622956D01*
X1590968Y2623035D01*
X1592138Y2623527D01*
X1593956Y2621708D01*
X1594352Y2619721D01*
X1595501Y2618001D01*
X1597221Y2616852D01*
X1599250Y2616448D01*
X1601279Y2616852D01*
X1602999Y2618001D01*
X1604148Y2619721D01*
X1604552Y2621750D01*
X1604148Y2623779D01*
X1602999Y2625499D01*
X1601279Y2626648D01*
X1599292Y2627043D01*
X1588868Y2637468D01*
X1587644Y2638285D01*
X1586200Y2638572D01*
X1586200Y2638572D01*
X1575700D01*
Y2665428D01*
X1584388D01*
X1584388Y2665428D01*
X1585832Y2665715D01*
X1587056Y2666532D01*
X1590351Y2669827D01*
X1591000Y2669698D01*
X1593029Y2670102D01*
X1594749Y2671251D01*
X1595898Y2672971D01*
X1596302Y2675000D01*
X1595898Y2677029D01*
X1594749Y2678749D01*
X1593029Y2679898D01*
X1591000Y2680302D01*
X1588971Y2679898D01*
X1587251Y2678749D01*
X1586102Y2677029D01*
X1585908Y2676055D01*
X1582825Y2672972D01*
X1562467D01*
X1561024Y2672685D01*
X1559800Y2671868D01*
X1557161Y2669229D01*
X1556693Y2668528D01*
X1555365Y2667200D01*
X1547300D01*
Y2636800D01*
X1555365D01*
X1556693Y2635472D01*
X1557161Y2634771D01*
X1559800Y2632133D01*
X1561024Y2631315D01*
X1562467Y2631028D01*
X1584637D01*
X1588527Y2627138D01*
X1588035Y2625968D01*
X1587956Y2625913D01*
X1586000Y2626302D01*
X1583971Y2625898D01*
X1583049Y2625282D01*
X1560163D01*
X1553967Y2631478D01*
X1552578Y2632406D01*
X1550939Y2632732D01*
X1524884D01*
X1521990Y2635627D01*
X1522476Y2636800D01*
X1530700D01*
Y2641559D01*
X1531030Y2641764D01*
X1532300Y2641058D01*
Y2636800D01*
X1545700D01*
Y2651561D01*
X1545758Y2652000D01*
Y2660500D01*
X1545700Y2660939D01*
Y2667200D01*
X1539439D01*
X1539000Y2667258D01*
X1530500D01*
X1530061Y2667200D01*
X1528051D01*
Y2674000D01*
Y2694850D01*
X1547250D01*
Y2723401D01*
X1548423Y2723888D01*
X1562955Y2709355D01*
X1565399Y2707480D01*
X1568246Y2706301D01*
X1571300Y2705899D01*
X1595849D01*
X1603439Y2698309D01*
X1605883Y2696434D01*
X1608730Y2695255D01*
X1611784Y2694853D01*
X1611912D01*
X1623609Y2683156D01*
X1626053Y2681280D01*
X1626800Y2680971D01*
Y2679800D01*
X1631187D01*
X1631954Y2679699D01*
X1637000D01*
X1637767Y2679800D01*
X1641561D01*
X1642000Y2679742D01*
X1642439Y2679800D01*
X1657200D01*
Y2693200D01*
X1649919D01*
X1649767Y2693530D01*
X1650578Y2694800D01*
X1657200D01*
Y2708200D01*
X1632714D01*
X1632482Y2708530D01*
X1633142Y2709800D01*
X1657200D01*
Y2723200D01*
X1632906D01*
X1632675Y2723530D01*
X1633335Y2724800D01*
X1657200D01*
Y2738200D01*
X1626800D01*
Y2729962D01*
X1625627Y2729476D01*
X1624772Y2730330D01*
Y2802000D01*
X1624772Y2802000D01*
X1624485Y2803444D01*
X1623668Y2804667D01*
X1623667Y2804668D01*
X1598294Y2830042D01*
X1597898Y2832029D01*
X1596749Y2833749D01*
X1595029Y2834898D01*
X1593000Y2835302D01*
D02*
G37*
G36*
X1299178Y2792026D02*
X1296646Y2791692D01*
X1294286Y2790715D01*
X1292260Y2789160D01*
X1290705Y2787134D01*
X1289728Y2784774D01*
X1289394Y2782242D01*
X1289728Y2779710D01*
X1290705Y2777350D01*
X1292260Y2775324D01*
X1294286Y2773769D01*
X1296646Y2772792D01*
X1299178Y2772458D01*
X1301710Y2772792D01*
X1304070Y2773769D01*
X1306096Y2775324D01*
X1307651Y2777350D01*
X1308628Y2779710D01*
X1308962Y2782242D01*
X1308628Y2784774D01*
X1307651Y2787134D01*
X1306096Y2789160D01*
X1304070Y2790715D01*
X1301710Y2791692D01*
X1299178Y2792026D01*
D02*
G37*
G36*
X1399000Y2715818D02*
X1395424Y2715347D01*
X1392091Y2713967D01*
X1389229Y2711771D01*
X1387033Y2708909D01*
X1385653Y2705576D01*
X1385182Y2702000D01*
X1385653Y2698423D01*
X1387033Y2695091D01*
X1389229Y2692229D01*
X1392091Y2690033D01*
X1395424Y2688653D01*
X1399000Y2688182D01*
X1402576Y2688653D01*
X1405909Y2690033D01*
X1408771Y2692229D01*
X1410967Y2695091D01*
X1412347Y2698423D01*
X1412818Y2702000D01*
X1412347Y2705576D01*
X1410967Y2708909D01*
X1408771Y2711771D01*
X1405909Y2713967D01*
X1402576Y2715347D01*
X1399000Y2715818D01*
D02*
G37*
G36*
X1298670Y2682044D02*
X1296138Y2681710D01*
X1293778Y2680733D01*
X1291752Y2679178D01*
X1290197Y2677152D01*
X1289220Y2674792D01*
X1288886Y2672260D01*
X1289220Y2669728D01*
X1290197Y2667368D01*
X1291752Y2665342D01*
X1293778Y2663787D01*
X1296138Y2662810D01*
X1298670Y2662476D01*
X1301202Y2662810D01*
X1303562Y2663787D01*
X1305588Y2665342D01*
X1307143Y2667368D01*
X1308120Y2669728D01*
X1308454Y2672260D01*
X1308120Y2674792D01*
X1307143Y2677152D01*
X1305588Y2679178D01*
X1303562Y2680733D01*
X1301202Y2681710D01*
X1298670Y2682044D01*
D02*
G37*
%LPD*%
G36*
X1548300Y2779800D02*
X1561700D01*
Y2803665D01*
X1562970Y2804325D01*
X1563300Y2804094D01*
Y2779800D01*
X1576700D01*
Y2804094D01*
X1577030Y2804325D01*
X1578300Y2803665D01*
Y2795439D01*
X1578242Y2795000D01*
Y2772799D01*
X1576201Y2770758D01*
X1542550D01*
X1540980Y2770551D01*
X1538329Y2771649D01*
X1535275Y2772051D01*
X1462758D01*
Y2795000D01*
X1462700Y2795439D01*
Y2808427D01*
X1486483D01*
X1486971Y2808102D01*
X1489000Y2807698D01*
X1491029Y2808102D01*
X1491517Y2808427D01*
X1548300D01*
Y2779800D01*
D02*
G37*
G36*
X1504449Y2658250D02*
X1504851Y2655196D01*
X1506030Y2652350D01*
X1507905Y2649905D01*
X1514155Y2643655D01*
X1515911Y2642308D01*
X1515373Y2641121D01*
X1514560Y2641282D01*
X1493951D01*
X1493029Y2641898D01*
X1491000Y2642302D01*
X1488971Y2641898D01*
X1487251Y2640749D01*
X1486102Y2639029D01*
X1486013Y2638582D01*
X1435415D01*
X1435256Y2638741D01*
X1435137Y2639339D01*
X1434209Y2640728D01*
X1432081Y2642856D01*
Y2667200D01*
X1433333Y2667242D01*
X1504449D01*
Y2658250D01*
D02*
G37*
D16*
X1642000Y2686500D02*
D03*
Y2701500D02*
D03*
Y2716500D02*
D03*
Y2731500D02*
D03*
Y2746500D02*
D03*
Y2761500D02*
D03*
D17*
X1689000Y2664000D02*
D03*
Y2784000D02*
D03*
D18*
X1600000Y2795000D02*
D03*
X1585000D02*
D03*
X1570000D02*
D03*
X1555000D02*
D03*
X1540000D02*
D03*
X1525000D02*
D03*
X1599000Y2652000D02*
D03*
X1584000D02*
D03*
X1569000D02*
D03*
X1554000D02*
D03*
X1539000D02*
D03*
X1524000D02*
D03*
X1455381D02*
D03*
X1440381D02*
D03*
X1425381D02*
D03*
X1410381D02*
D03*
X1395381D02*
D03*
X1380381D02*
D03*
X1381000Y2795000D02*
D03*
X1396000D02*
D03*
X1411000D02*
D03*
X1426000D02*
D03*
X1441000D02*
D03*
X1456000D02*
D03*
D19*
X1622500Y2842000D02*
D03*
X1502500D02*
D03*
X1621500Y2605000D02*
D03*
X1501500D02*
D03*
X1477881D02*
D03*
X1357881D02*
D03*
X1358500Y2842000D02*
D03*
X1478500D02*
D03*
D20*
X1533450Y2722000D02*
D03*
X1458550D02*
D03*
D31*
Y2713100D02*
Y2722000D01*
Y2713100D02*
X1460650Y2711000D01*
X1549000Y2740000D02*
X1571300Y2717700D01*
X1600737D01*
X1562000Y2743850D02*
Y2747546D01*
X1516250Y2737700D02*
X1535275Y2756725D01*
X1611784Y2706654D02*
X1616800D01*
X1600737Y2717700D02*
X1611784Y2706654D01*
X1552821Y2756725D02*
X1562000Y2747546D01*
X1535275Y2756725D02*
X1552821D01*
X1616800Y2706654D02*
X1631954Y2691500D01*
X1461918Y2736907D02*
X1486068D01*
X1446858Y2767000D02*
X1453608Y2760250D01*
X1535275D01*
X1631954Y2691500D02*
X1637000D01*
X1516250Y2674000D02*
Y2737700D01*
Y2658250D02*
Y2674000D01*
X1522500Y2652000D02*
X1524000D01*
X1516250Y2658250D02*
X1522500Y2652000D01*
D32*
X1590188Y2675000D02*
X1591000D01*
X1562467Y2669200D02*
X1584388D01*
X1590188Y2675000D01*
X1593000Y2830000D02*
X1621000Y2802000D01*
Y2728767D02*
X1627439Y2722328D01*
X1621000Y2728767D02*
Y2802000D01*
X1627672Y2722328D02*
X1633500Y2716500D01*
X1627439Y2722328D02*
X1627672D01*
X1570000Y2803500D02*
X1576300Y2809800D01*
Y2813300D01*
X1570000Y2795000D02*
Y2803500D01*
X1576300Y2813300D02*
X1593000Y2830000D01*
X1409250Y2624750D02*
X1409816Y2625316D01*
Y2651435D01*
X1410381Y2652000D01*
X1586200Y2634800D02*
X1599250Y2621750D01*
X1562467Y2634800D02*
X1586200D01*
X1559828Y2637439D02*
X1562467Y2634800D01*
X1559828Y2637439D02*
Y2637672D01*
X1554000Y2643500D02*
X1559828Y2637672D01*
X1554000Y2643500D02*
Y2652000D01*
X1559828Y2666561D02*
X1562467Y2669200D01*
X1559828Y2666328D02*
Y2666561D01*
X1554000Y2660500D02*
X1559828Y2666328D01*
X1554000Y2652000D02*
Y2660500D01*
X1489000Y2813000D02*
X1489812D01*
X1490612Y2812200D01*
X1561533D01*
X1564171Y2809561D01*
Y2809328D02*
Y2809561D01*
Y2809328D02*
X1570000Y2803500D01*
X1488200Y2812200D02*
X1489000Y2813000D01*
X1434467Y2812200D02*
X1488200D01*
X1431828Y2809561D02*
X1434467Y2812200D01*
X1431828Y2809328D02*
Y2809561D01*
X1426000Y2803500D02*
X1431828Y2809328D01*
X1426000Y2795000D02*
Y2803500D01*
X1391000Y2828500D02*
X1401233D01*
X1420172Y2809561D01*
Y2809328D02*
Y2809561D01*
Y2809328D02*
X1426000Y2803500D01*
D33*
X1542550Y2764000D02*
X1579000D01*
X1535275Y2756725D02*
X1542550Y2764000D01*
X1579000D02*
X1594142D01*
X1579000D02*
X1585000Y2770000D01*
X1530500Y2660500D02*
X1539000D01*
X1637000Y2691500D02*
X1642000Y2686500D01*
X1456000Y2767000D02*
Y2795000D01*
X1539000Y2652000D02*
Y2660500D01*
X1395381Y2674000D02*
X1516250D01*
X1441000Y2772858D02*
X1446858Y2767000D01*
X1441000Y2772858D02*
Y2795000D01*
X1446858Y2767000D02*
X1456000D01*
X1600000Y2769858D02*
Y2795000D01*
X1594142Y2764000D02*
X1600000Y2769858D01*
X1585000Y2770000D02*
Y2795000D01*
X1395381Y2652000D02*
Y2674000D01*
X1385181Y2663800D02*
X1395381Y2674000D01*
X1383681Y2663800D02*
X1385181D01*
X1380381Y2660500D02*
X1383681Y2663800D01*
X1380381Y2652000D02*
Y2660500D01*
D34*
X1555000Y2795000D02*
Y2799450D01*
X1523110Y2628450D02*
X1550939D01*
X1558389Y2621000D01*
X1586000D01*
X1514560Y2637000D02*
X1523110Y2628450D01*
X1586000Y2620459D02*
Y2621000D01*
Y2620459D02*
X1588000Y2618459D01*
Y2596000D02*
Y2618459D01*
X1568000Y2644000D02*
X1569440D01*
X1491000Y2637000D02*
X1514560D01*
X1425381Y2629991D02*
Y2643500D01*
X1488300Y2634300D02*
X1491000Y2637000D01*
X1433641Y2634300D02*
X1488300D01*
X1431181Y2636760D02*
X1433641Y2634300D01*
X1431181Y2636760D02*
Y2637700D01*
X1425381Y2643500D02*
X1431181Y2637700D01*
X1425381Y2643500D02*
Y2652000D01*
X1404929Y2616071D02*
X1411460D01*
X1425381Y2629991D01*
X1397000Y2624000D02*
X1404929Y2616071D01*
D35*
X1586000Y2743000D02*
D03*
X1399000Y2702000D02*
D03*
D36*
X1586000Y2694000D02*
D03*
D37*
X1636038Y2773480D02*
D03*
X1635530Y2663752D02*
D03*
X1299178Y2782242D02*
D03*
X1298670Y2672260D02*
D03*
D38*
X1399000Y2751000D02*
D03*
D39*
X1687000Y2606000D02*
D03*
X1686000Y2840000D02*
D03*
X1308000Y2606000D02*
D03*
Y2840000D02*
D03*
D40*
X1710001Y2800002D02*
D03*
Y2760002D02*
D03*
Y2740002D02*
D03*
Y2720002D02*
D03*
Y2700002D02*
D03*
Y2680002D02*
D03*
X1700001Y2800002D02*
D03*
Y2760002D02*
D03*
X1705001Y2750002D02*
D03*
X1700001Y2740002D02*
D03*
X1705001Y2730002D02*
D03*
X1700001Y2720002D02*
D03*
X1705001Y2710002D02*
D03*
X1700001Y2700002D02*
D03*
X1705001Y2690002D02*
D03*
X1700001Y2680002D02*
D03*
X1690001Y2760002D02*
D03*
X1695001Y2750002D02*
D03*
X1690001Y2740002D02*
D03*
X1695001Y2730002D02*
D03*
X1690001Y2720002D02*
D03*
X1695001Y2710002D02*
D03*
X1690001Y2700002D02*
D03*
X1695001Y2690002D02*
D03*
X1690001Y2680002D02*
D03*
X1680001Y2760002D02*
D03*
X1685001Y2750002D02*
D03*
X1680001Y2740002D02*
D03*
X1685001Y2730002D02*
D03*
X1680001Y2720002D02*
D03*
X1685001Y2710002D02*
D03*
X1680001Y2700002D02*
D03*
X1685001Y2690002D02*
D03*
X1680001Y2680002D02*
D03*
X1670001Y2800002D02*
D03*
Y2760002D02*
D03*
X1675001Y2750002D02*
D03*
X1670001Y2740002D02*
D03*
X1675001Y2730002D02*
D03*
X1670001Y2720002D02*
D03*
X1675001Y2710002D02*
D03*
X1670001Y2700002D02*
D03*
X1675001Y2690002D02*
D03*
X1670001Y2680002D02*
D03*
X1660001Y2800002D02*
D03*
Y2780002D02*
D03*
X1665001Y2770002D02*
D03*
Y2750002D02*
D03*
Y2730002D02*
D03*
Y2710002D02*
D03*
Y2690002D02*
D03*
X1660001Y2660002D02*
D03*
X1665001Y2650002D02*
D03*
X1660001Y2640002D02*
D03*
X1655001Y2810002D02*
D03*
X1650001Y2800002D02*
D03*
X1655001Y2790002D02*
D03*
X1650001Y2780002D02*
D03*
X1655001Y2650002D02*
D03*
X1650001Y2640002D02*
D03*
X1640001Y2840002D02*
D03*
X1645001Y2830002D02*
D03*
X1640001Y2820002D02*
D03*
X1645001Y2810002D02*
D03*
X1640001Y2800002D02*
D03*
X1645001Y2790002D02*
D03*
Y2610002D02*
D03*
Y2590002D02*
D03*
X1635001Y2810002D02*
D03*
Y2790002D02*
D03*
X1620001Y2660002D02*
D03*
X1625001Y2650002D02*
D03*
X1615001Y2670002D02*
D03*
X1610001Y2660002D02*
D03*
X1600001Y2860002D02*
D03*
X1605001Y2850002D02*
D03*
X1590001Y2860002D02*
D03*
X1580001D02*
D03*
X1570001Y2680002D02*
D03*
X1575001Y2590002D02*
D03*
X1560001Y2700002D02*
D03*
X1565001Y2690002D02*
D03*
X1560001Y2680002D02*
D03*
X1550001Y2860002D02*
D03*
X1555001Y2690002D02*
D03*
X1550001Y2680002D02*
D03*
X1540001D02*
D03*
X1535001Y2830002D02*
D03*
X1520001Y2860002D02*
D03*
X1525001Y2590002D02*
D03*
X1490001Y2780002D02*
D03*
X1495001Y2690002D02*
D03*
X1490001Y2660002D02*
D03*
X1480001Y2780002D02*
D03*
X1485001Y2690002D02*
D03*
X1480001Y2660002D02*
D03*
X1470001Y2780002D02*
D03*
X1475001Y2690002D02*
D03*
X1470001Y2660002D02*
D03*
X1460001Y2620002D02*
D03*
X1450001Y2860002D02*
D03*
X1455001Y2830002D02*
D03*
X1450001Y2620002D02*
D03*
X1445001Y2830002D02*
D03*
X1440001Y2620002D02*
D03*
X1435001Y2830002D02*
D03*
Y2690002D02*
D03*
X1420001Y2860002D02*
D03*
X1425001Y2830002D02*
D03*
Y2770002D02*
D03*
X1420001Y2760002D02*
D03*
X1425001Y2690002D02*
D03*
Y2590002D02*
D03*
X1410001Y2860002D02*
D03*
X1415001Y2770002D02*
D03*
X1410001Y2600002D02*
D03*
X1415001Y2590002D02*
D03*
X1400001Y2860002D02*
D03*
X1405001Y2850002D02*
D03*
Y2770002D02*
D03*
X1400001Y2600002D02*
D03*
X1405001Y2590002D02*
D03*
X1390001Y2860002D02*
D03*
X1395001Y2850002D02*
D03*
Y2770002D02*
D03*
Y2730002D02*
D03*
X1390001Y2600002D02*
D03*
X1395001Y2590002D02*
D03*
X1380001Y2860002D02*
D03*
X1385001Y2850002D02*
D03*
X1380001Y2600002D02*
D03*
X1385001Y2590002D02*
D03*
X1375001Y2850002D02*
D03*
X1370001Y2680002D02*
D03*
X1375001Y2630002D02*
D03*
Y2610002D02*
D03*
X1365001Y2810002D02*
D03*
X1360001Y2800002D02*
D03*
X1365001Y2790002D02*
D03*
X1360001Y2780002D02*
D03*
X1365001Y2770002D02*
D03*
X1360001Y2760002D02*
D03*
X1365001Y2750002D02*
D03*
X1360001Y2740002D02*
D03*
X1365001Y2730002D02*
D03*
X1360001Y2720002D02*
D03*
X1365001Y2710002D02*
D03*
X1360001Y2700002D02*
D03*
X1365001Y2690002D02*
D03*
X1360001Y2680002D02*
D03*
X1365001Y2670002D02*
D03*
X1360001Y2660002D02*
D03*
X1365001Y2650002D02*
D03*
X1360001Y2640002D02*
D03*
X1365001Y2630002D02*
D03*
X1355001Y2810002D02*
D03*
X1350001Y2800002D02*
D03*
X1355001Y2790002D02*
D03*
X1350001Y2780002D02*
D03*
X1355001Y2770002D02*
D03*
X1350001Y2760002D02*
D03*
X1355001Y2750002D02*
D03*
X1350001Y2740002D02*
D03*
X1355001Y2730002D02*
D03*
X1350001Y2720002D02*
D03*
X1355001Y2710002D02*
D03*
X1350001Y2700002D02*
D03*
X1355001Y2690002D02*
D03*
X1350001Y2680002D02*
D03*
X1355001Y2670002D02*
D03*
X1350001Y2660002D02*
D03*
X1355001Y2650002D02*
D03*
X1350001Y2640002D02*
D03*
X1355001Y2630002D02*
D03*
X1345001Y2810002D02*
D03*
X1340001Y2800002D02*
D03*
X1345001Y2790002D02*
D03*
X1340001Y2780002D02*
D03*
X1345001Y2770002D02*
D03*
X1340001Y2760002D02*
D03*
X1345001Y2750002D02*
D03*
X1340001Y2740002D02*
D03*
X1345001Y2730002D02*
D03*
X1340001Y2720002D02*
D03*
X1345001Y2710002D02*
D03*
X1340001Y2700002D02*
D03*
X1345001Y2690002D02*
D03*
X1340001Y2680002D02*
D03*
X1345001Y2670002D02*
D03*
X1340001Y2660002D02*
D03*
X1345001Y2650002D02*
D03*
X1340001Y2640002D02*
D03*
X1345001Y2630002D02*
D03*
X1330001Y2800002D02*
D03*
X1335001Y2790002D02*
D03*
X1330001Y2780002D02*
D03*
X1335001Y2770002D02*
D03*
X1330001Y2760002D02*
D03*
X1335001Y2750002D02*
D03*
X1330001Y2740002D02*
D03*
X1335001Y2730002D02*
D03*
X1330001Y2720002D02*
D03*
X1335001Y2710002D02*
D03*
X1330001Y2700002D02*
D03*
X1335001Y2690002D02*
D03*
X1330001Y2680002D02*
D03*
X1335001Y2670002D02*
D03*
X1330001Y2660002D02*
D03*
X1335001Y2650002D02*
D03*
X1325001Y2790002D02*
D03*
X1320001Y2780002D02*
D03*
X1325001Y2770002D02*
D03*
X1320001Y2760002D02*
D03*
X1325001Y2750002D02*
D03*
X1320001Y2740002D02*
D03*
X1325001Y2730002D02*
D03*
X1320001Y2720002D02*
D03*
X1325001Y2710002D02*
D03*
X1320001Y2700002D02*
D03*
X1325001Y2690002D02*
D03*
X1320001Y2680002D02*
D03*
X1325001Y2670002D02*
D03*
X1320001Y2660002D02*
D03*
X1325001Y2650002D02*
D03*
X1315001Y2790002D02*
D03*
Y2770002D02*
D03*
X1310001Y2760002D02*
D03*
X1315001Y2750002D02*
D03*
X1310001Y2740002D02*
D03*
X1315001Y2730002D02*
D03*
X1310001Y2720002D02*
D03*
X1315001Y2710002D02*
D03*
X1310001Y2700002D02*
D03*
X1315001Y2690002D02*
D03*
Y2670002D02*
D03*
X1310001Y2660002D02*
D03*
X1315001Y2650002D02*
D03*
X1300001Y2760002D02*
D03*
X1305001Y2750002D02*
D03*
X1300001Y2740002D02*
D03*
X1305001Y2730002D02*
D03*
X1300001Y2720002D02*
D03*
X1305001Y2710002D02*
D03*
X1300001Y2700002D02*
D03*
X1305001Y2690002D02*
D03*
Y2650002D02*
D03*
X1290001Y2800002D02*
D03*
Y2760002D02*
D03*
X1295001Y2750002D02*
D03*
X1290001Y2740002D02*
D03*
X1295001Y2730002D02*
D03*
X1290001Y2720002D02*
D03*
X1295001Y2710002D02*
D03*
X1290001Y2700002D02*
D03*
X1295001Y2690002D02*
D03*
Y2650002D02*
D03*
X1285001Y2790002D02*
D03*
Y2770002D02*
D03*
Y2750002D02*
D03*
Y2730002D02*
D03*
Y2710002D02*
D03*
Y2690002D02*
D03*
Y2650002D02*
D03*
X1591000Y2675000D02*
D03*
X1540045Y2733972D02*
D03*
Y2742972D02*
D03*
X1553701Y2735478D02*
D03*
X1553045Y2743972D02*
D03*
X1562000Y2743850D02*
D03*
X1466739Y2733914D02*
D03*
X1477739Y2731913D02*
D03*
X1477739Y2742764D02*
D03*
X1466839D02*
D03*
X1486739Y2742914D02*
D03*
X1487739Y2731913D02*
D03*
X1456200Y2733550D02*
D03*
X1455939Y2742764D02*
D03*
X1562304Y2735399D02*
D03*
X1530045Y2733972D02*
D03*
X1555000Y2799450D02*
D03*
X1444739Y2732914D02*
D03*
X1446356Y2742764D02*
D03*
X1411000Y2805000D02*
D03*
X1530500Y2743350D02*
D03*
X1593000Y2830000D02*
D03*
X1547750Y2620750D02*
D03*
X1588000Y2596000D02*
D03*
X1639000Y2731000D02*
D03*
X1569440Y2644000D02*
D03*
X1586000Y2621000D02*
D03*
X1491000Y2637000D02*
D03*
X1397000Y2624000D02*
D03*
X1409250Y2624750D02*
D03*
X1599250Y2621750D02*
D03*
X1633500Y2716500D02*
D03*
X1489000Y2813000D02*
D03*
X1391000Y2828500D02*
D03*
M02*
