G04*
G04 #@! TF.GenerationSoftware,Altium Limited,Altium Designer,21.6.1 (37)*
G04*
G04 Layer_Color=32896*
%FSLAX44Y44*%
%MOMM*%
G71*
G04*
G04 #@! TF.SameCoordinates,4777B8CB-E48F-4368-B68D-2058CC3BE4D0*
G04*
G04*
G04 #@! TF.FilePolarity,Positive*
G04*
G01*
G75*
%ADD10C,0.2000*%
%ADD12C,0.1270*%
%ADD13C,0.1700*%
%ADD14C,0.2540*%
%ADD15C,0.1800*%
%ADD49C,0.0100*%
G36*
X1350249Y2767813D02*
X1350249Y2767813D01*
X1350249Y2767826D01*
X1350248Y2767851D01*
X1350248Y2767877D01*
X1350248Y2767903D01*
Y2767915D01*
X1350249Y2767813D01*
D02*
G37*
G36*
X1356635Y2772997D02*
X1358527Y2772097D01*
X1359915Y2770527D01*
X1360575Y2768539D01*
X1360489Y2767494D01*
X1360489Y2767494D01*
X1360488Y2767482D01*
X1360476Y2767461D01*
X1360456Y2767448D01*
X1360432Y2767444D01*
X1360421Y2767447D01*
X1359227Y2761009D01*
X1359227D01*
X1359225Y2760998D01*
X1359211Y2760978D01*
X1359191Y2760966D01*
X1359168Y2760964D01*
X1359157Y2760968D01*
X1350324Y2763931D01*
X1350316Y2763934D01*
X1350303Y2763944D01*
X1350293Y2763957D01*
X1350288Y2763973D01*
X1350288Y2763982D01*
X1350249Y2767813D01*
X1350248Y2767916D01*
Y2768963D01*
X1351070Y2770891D01*
X1352582Y2772342D01*
X1354541Y2773084D01*
X1356635Y2772997D01*
D02*
G37*
G36*
X1343973Y2764659D02*
X1343973Y2764659D01*
X1343973D01*
Y2764659D01*
D02*
G37*
G36*
X1329053Y2735226D02*
X1321392Y2740814D01*
X1322429Y2741136D01*
X1324448Y2741935D01*
X1326375Y2742935D01*
X1328192Y2744124D01*
X1329053Y2744786D01*
Y2735226D01*
D02*
G37*
G36*
X1341640Y2765440D02*
X1343973Y2764659D01*
X1341789Y2764479D01*
X1337467Y2763759D01*
X1333250Y2762569D01*
X1329190Y2760922D01*
X1325336Y2758838D01*
X1321734Y2756343D01*
X1318429Y2753467D01*
X1315460Y2750244D01*
X1312864Y2746715D01*
X1310672Y2742921D01*
X1308911Y2738910D01*
X1307601Y2734728D01*
X1307121Y2732590D01*
X1306669Y2735008D01*
X1306613Y2739929D01*
X1307405Y2744785D01*
X1309023Y2749432D01*
X1311417Y2753730D01*
X1314516Y2757552D01*
X1318228Y2760782D01*
X1322441Y2763324D01*
X1327030Y2765102D01*
X1331856Y2766062D01*
X1336775Y2766176D01*
X1341640Y2765440D01*
D02*
G37*
G36*
X1320907Y2726950D02*
X1322106Y2726107D01*
X1323338Y2725312D01*
X1324602Y2724568D01*
X1325245Y2724216D01*
Y2724216D01*
Y2724216D01*
D01*
X1324741Y2722637D01*
X1323955Y2719418D01*
X1323470Y2716141D01*
X1323290Y2712832D01*
X1323416Y2709521D01*
X1323848Y2706236D01*
X1324581Y2703005D01*
X1325610Y2699856D01*
X1326232Y2698320D01*
X1325173Y2698741D01*
X1323102Y2699695D01*
X1321084Y2700757D01*
X1319126Y2701924D01*
X1318179Y2702559D01*
X1317548Y2705659D01*
X1317185Y2711977D01*
X1317728Y2718282D01*
X1319167Y2724443D01*
X1320320Y2727390D01*
X1320320Y2727390D01*
X1320907Y2726950D01*
D02*
G37*
G36*
X1336335Y2756150D02*
X1338227Y2755780D01*
X1341884Y2754556D01*
X1345353Y2752869D01*
X1348574Y2750749D01*
X1351494Y2748229D01*
X1354064Y2745353D01*
X1356240Y2742170D01*
X1357987Y2738731D01*
X1359274Y2735096D01*
X1360081Y2731324D01*
X1360393Y2727480D01*
X1360206Y2723629D01*
X1359864Y2721731D01*
X1359739Y2723493D01*
X1359142Y2726972D01*
X1358090Y2730342D01*
X1356602Y2733543D01*
X1354704Y2736520D01*
X1352428Y2739219D01*
X1349816Y2741595D01*
X1346913Y2743603D01*
X1343770Y2745211D01*
X1340441Y2746389D01*
X1336987Y2747116D01*
X1333466Y2747380D01*
X1331701Y2747337D01*
X1332499Y2748306D01*
X1333919Y2750377D01*
X1335088Y2752599D01*
X1335989Y2754943D01*
X1336335Y2756150D01*
Y2756150D01*
D02*
G37*
G36*
X1359864Y2721731D02*
X1359864D01*
X1359864Y2721731D01*
Y2721731D01*
D02*
G37*
G36*
X1310930Y2730426D02*
X1314385Y2729465D01*
X1316018Y2728725D01*
X1316018Y2728725D01*
X1314821Y2726893D01*
X1312849Y2722988D01*
X1311478Y2718834D01*
X1310738Y2714522D01*
X1310610Y2712337D01*
X1310610D01*
X1309751Y2713635D01*
X1307787Y2716047D01*
X1305523Y2718181D01*
X1303000Y2720000D01*
X1300260Y2721473D01*
X1297351Y2722574D01*
X1294322Y2723285D01*
X1291227Y2723593D01*
X1289671Y2723593D01*
X1290907Y2724893D01*
X1293748Y2727079D01*
X1296893Y2728803D01*
X1300266Y2730022D01*
X1303785Y2730707D01*
X1307369Y2730843D01*
X1310930Y2730426D01*
D02*
G37*
G36*
X1364592Y2758493D02*
X1368933Y2755028D01*
X1372662Y2750912D01*
X1375683Y2746252D01*
X1377917Y2741167D01*
X1379307Y2735790D01*
X1379816Y2730260D01*
X1379433Y2724719D01*
X1378165Y2719312D01*
X1376048Y2714178D01*
X1373134Y2709449D01*
X1369499Y2705250D01*
X1367369Y2703469D01*
X1366365Y2702741D01*
X1364277Y2701403D01*
X1362116Y2700187D01*
X1359888Y2699099D01*
X1358745Y2698619D01*
X1361084Y2700396D01*
X1365331Y2704453D01*
X1368921Y2709099D01*
X1371774Y2714231D01*
X1373826Y2719734D01*
X1375029Y2725481D01*
X1375357Y2731344D01*
X1374803Y2737190D01*
X1373378Y2742886D01*
X1371116Y2748305D01*
X1368066Y2753323D01*
X1364299Y2757828D01*
X1362172Y2759855D01*
X1364592Y2758493D01*
D02*
G37*
G36*
X1348700Y2719044D02*
X1348291Y2715952D01*
X1348231Y2712833D01*
X1348520Y2709727D01*
X1349154Y2706673D01*
X1350125Y2703709D01*
X1351422Y2700872D01*
X1353028Y2698198D01*
X1353941Y2696933D01*
Y2696932D01*
X1353216Y2696725D01*
X1351752Y2696362D01*
X1350276Y2696050D01*
X1348791Y2695790D01*
X1348044Y2695686D01*
Y2695686D01*
X1347007Y2696924D01*
X1345249Y2699634D01*
X1343832Y2702537D01*
X1342777Y2705590D01*
X1342101Y2708749D01*
X1341813Y2711966D01*
X1341917Y2715195D01*
X1342412Y2718387D01*
X1342852Y2719941D01*
X1342852D01*
X1343629Y2719961D01*
X1345182Y2720052D01*
X1346729Y2720208D01*
X1348268Y2720432D01*
X1349033Y2720568D01*
X1349033Y2720568D01*
X1348700Y2719044D01*
D02*
G37*
G36*
X1330961Y2721763D02*
X1332457Y2721305D01*
X1333971Y2720911D01*
X1335502Y2720583D01*
X1336272Y2720444D01*
X1335987Y2718807D01*
X1335677Y2715500D01*
X1335718Y2712178D01*
X1336108Y2708879D01*
X1336843Y2705639D01*
X1337915Y2702495D01*
X1339312Y2699481D01*
X1341018Y2696630D01*
X1341982Y2695276D01*
X1341194Y2695279D01*
X1339620Y2695342D01*
X1338049Y2695462D01*
X1336484Y2695640D01*
X1335706Y2695758D01*
X1334694Y2697159D01*
X1332975Y2700158D01*
X1331579Y2703321D01*
X1330522Y2706612D01*
X1329815Y2709995D01*
X1329467Y2713435D01*
X1329480Y2716891D01*
X1329854Y2720328D01*
X1330220Y2722017D01*
Y2722017D01*
X1330961Y2721763D01*
D02*
G37*
D10*
X1518000Y2635750D02*
G03*
X1518000Y2635750I-1000J0D01*
G01*
X1481250Y2815000D02*
G03*
X1481250Y2815000I-1000J0D01*
G01*
X1380000Y2814250D02*
G03*
X1380000Y2814250I-1000J0D01*
G01*
X1582250Y2814000D02*
G03*
X1582250Y2814000I-1000J0D01*
G01*
X1612000Y2635750D02*
G03*
X1612000Y2635750I-1000J0D01*
G01*
X1422000D02*
G03*
X1422000Y2635750I-1000J0D01*
G01*
D12*
X1335706Y2695758D02*
G03*
X1341982Y2695276I6416J42518D01*
G01*
X1330220Y2722017D02*
G03*
X1336272Y2720444I12086J34077D01*
G01*
X1331701Y2747337D02*
G03*
X1336335Y2756150I-16152J14118D01*
G01*
X1348044Y2695686D02*
G03*
X1353941Y2696932I-5922J42590D01*
G01*
X1320320Y2727390D02*
G03*
X1318179Y2702559I41018J-16045D01*
G01*
X1316018Y2728725D02*
G03*
X1310610Y2712337I24027J-17015D01*
G01*
X1336272Y2720444D02*
G03*
X1341982Y2695277I30896J-6222D01*
G01*
X1330220Y2722017D02*
G03*
X1335706Y2695758I32193J-6978D01*
G01*
X1349033Y2720568D02*
G03*
X1353941Y2696933I27036J-6714D01*
G01*
X1320320Y2727390D02*
G03*
X1325245Y2724216I21987J28704D01*
G01*
X1321392Y2740814D02*
G03*
X1329053Y2744786I-5843J20641D01*
G01*
X1342852Y2719941D02*
G03*
X1348044Y2695686I25535J-7217D01*
G01*
X1325245Y2724216D02*
G03*
X1326232Y2698320I33861J-11675D01*
G01*
X1342852Y2719941D02*
G03*
X1349033Y2720568I-545J36153D01*
G01*
X1318179Y2702559D02*
G03*
X1326232Y2698320I23943J35717D01*
G01*
X1358745Y2698619D02*
G03*
X1367369Y2703469I-16623J39656D01*
G01*
X1343973Y2764659D02*
G03*
X1307121Y2732590I2173J-39705D01*
G01*
X1343973Y2764659D02*
G03*
X1307121Y2732590I-9002J-26864D01*
G01*
X1359864Y2721731D02*
G03*
X1336335Y2756150I-29236J5266D01*
G01*
X1359864Y2721731D02*
G03*
X1331701Y2747337I-26628J-996D01*
G01*
X1316018Y2728725D02*
G03*
X1289671Y2723593I-9565J-21095D01*
G01*
X1310610Y2712337D02*
G03*
X1289671Y2723593I-20175J-12426D01*
G01*
X1367369Y2703469D02*
G03*
X1362172Y2759855I-22073J26398D01*
G01*
X1358745Y2698619D02*
G03*
X1362172Y2759855I-22438J31970D01*
G01*
X1329053Y2735226D02*
Y2744786D01*
X1321392Y2740814D02*
X1329053Y2735226D01*
X1468500Y2578750D02*
X1529400D01*
X1457750Y2619250D02*
X1475400D01*
X1457750Y2604950D02*
Y2619250D01*
X1522600D02*
X1540250D01*
Y2605050D02*
Y2619250D01*
X1467850Y2872000D02*
X1528750D01*
X1521850Y2831500D02*
X1539500D01*
Y2845800D01*
X1457000Y2831500D02*
X1474650D01*
X1457000D02*
Y2845700D01*
X1366600Y2871250D02*
X1427500D01*
X1420600Y2830750D02*
X1438250D01*
Y2845050D01*
X1355750Y2830750D02*
X1373400D01*
X1355750D02*
Y2844950D01*
X1568850Y2871000D02*
X1629750D01*
X1622850Y2830500D02*
X1640500D01*
Y2844800D01*
X1558000Y2830500D02*
X1575650D01*
X1558000D02*
Y2844700D01*
X1562500Y2578750D02*
X1623400D01*
X1551750Y2619250D02*
X1569400D01*
X1551750Y2604950D02*
Y2619250D01*
X1616600D02*
X1634250D01*
Y2605050D02*
Y2619250D01*
X1372500Y2578750D02*
X1433400D01*
X1361750Y2619250D02*
X1379400D01*
X1361750Y2604950D02*
Y2619250D01*
X1426600D02*
X1444250D01*
Y2605050D02*
Y2619250D01*
D13*
X1568519Y2730050D02*
Y2725385D01*
X1566187Y2727718D02*
X1570852D01*
X1568519Y2716054D02*
Y2711389D01*
D14*
X1696696Y2660617D02*
X1701774D01*
X1704313Y2658078D01*
Y2647922D01*
X1701774Y2645382D01*
X1696696D01*
X1694157Y2647922D01*
Y2658078D01*
X1696696Y2660617D01*
X1689078D02*
Y2647922D01*
X1686539Y2645382D01*
X1681461D01*
X1678922Y2647922D01*
Y2660617D01*
X1673843D02*
X1663687D01*
X1668765D01*
Y2645382D01*
D15*
X1568077Y2806798D02*
Y2800966D01*
X1566911Y2799800D01*
X1564578D01*
X1563412Y2800966D01*
Y2806798D01*
X1561079Y2799800D02*
Y2804465D01*
X1558747Y2806798D01*
X1556414Y2804465D01*
Y2799800D01*
Y2803299D01*
X1561079D01*
X1554082Y2806798D02*
Y2802133D01*
X1551749Y2799800D01*
X1549416Y2802133D01*
Y2806798D01*
X1542419Y2805631D02*
X1543585Y2806798D01*
X1545918D01*
X1547084Y2805631D01*
Y2800966D01*
X1545918Y2799800D01*
X1543585D01*
X1542419Y2800966D01*
X1540086Y2799800D02*
Y2804465D01*
X1537753Y2806798D01*
X1535421Y2804465D01*
Y2799800D01*
Y2803299D01*
X1540086D01*
X1533088Y2799800D02*
Y2806798D01*
X1528423Y2799800D01*
Y2806798D01*
X1519093Y2799800D02*
Y2806798D01*
X1516760Y2804465D01*
X1514428Y2806798D01*
Y2799800D01*
X1512095Y2806798D02*
Y2800966D01*
X1510929Y2799800D01*
X1508596D01*
X1507430Y2800966D01*
Y2806798D01*
X1505097D02*
X1500432Y2799800D01*
Y2806798D02*
X1505097Y2799800D01*
X1491102Y2804465D02*
X1488769Y2799800D01*
X1486437Y2804465D01*
X1479439Y2806798D02*
X1484104D01*
Y2803299D01*
X1481772Y2804465D01*
X1480605D01*
X1479439Y2803299D01*
Y2800966D01*
X1480605Y2799800D01*
X1482938D01*
X1484104Y2800966D01*
X1561176Y2767934D02*
X1562343Y2769100D01*
X1564675D01*
X1565842Y2767934D01*
Y2763269D01*
X1564675Y2762103D01*
X1562343D01*
X1561176Y2763269D01*
X1558844Y2767934D02*
X1557677Y2769100D01*
X1555345D01*
X1554179Y2767934D01*
Y2766768D01*
X1555345Y2765602D01*
X1554179Y2764435D01*
Y2763269D01*
X1555345Y2762103D01*
X1557677D01*
X1558844Y2763269D01*
Y2764435D01*
X1557677Y2765602D01*
X1558844Y2766768D01*
Y2767934D01*
X1557677Y2765602D02*
X1555345D01*
X1535108Y2768902D02*
X1536275Y2770068D01*
X1538607D01*
X1539774Y2768902D01*
Y2764237D01*
X1538607Y2763071D01*
X1536275D01*
X1535108Y2764237D01*
X1532776Y2770068D02*
X1528111D01*
Y2768902D01*
X1532776Y2764237D01*
Y2763071D01*
X1456262Y2768744D02*
X1457429Y2769910D01*
X1459761D01*
X1460928Y2768744D01*
Y2764079D01*
X1459761Y2762913D01*
X1457429D01*
X1456262Y2764079D01*
X1449265Y2769910D02*
X1451597Y2768744D01*
X1453930Y2766412D01*
Y2764079D01*
X1452764Y2762913D01*
X1450431D01*
X1449265Y2764079D01*
Y2765245D01*
X1450431Y2766412D01*
X1453930D01*
X1483140Y2768776D02*
X1484307Y2769942D01*
X1486639D01*
X1487806Y2768776D01*
Y2764111D01*
X1486639Y2762945D01*
X1484307D01*
X1483140Y2764111D01*
X1476143Y2769942D02*
X1480808D01*
Y2766443D01*
X1478475Y2767610D01*
X1477309D01*
X1476143Y2766443D01*
Y2764111D01*
X1477309Y2762945D01*
X1479642D01*
X1480808Y2764111D01*
D49*
X1360435Y2767499D02*
G03*
X1350327Y2767414I-5058J417D01*
G01*
X1359174Y2761019D02*
X1360453Y2767916D01*
X1350302D02*
X1350341Y2763982D01*
X1359174Y2761019D01*
M02*
