G04*
G04 #@! TF.GenerationSoftware,Altium Limited,Altium Designer,19.1.8 (144)*
G04*
G04 Layer_Color=8388736*
%FSLAX44Y44*%
%MOMM*%
G71*
G01*
G75*
%ADD20R,2.0032X4.0032*%
%ADD21R,1.2032X2.9032*%
%ADD22R,4.0032X2.0032*%
%ADD23R,2.9032X1.2032*%
%ADD24C,7.2032*%
D20*
X1621500Y2605000D02*
D03*
X1501500D02*
D03*
X1477881D02*
D03*
X1357881D02*
D03*
X1502500Y2842000D02*
D03*
X1622500D02*
D03*
X1358500D02*
D03*
X1478500D02*
D03*
D21*
X1599000Y2652000D02*
D03*
X1584000D02*
D03*
X1569000D02*
D03*
X1554000D02*
D03*
X1539000D02*
D03*
X1524000D02*
D03*
X1455381D02*
D03*
X1440381D02*
D03*
X1425381D02*
D03*
X1410381D02*
D03*
X1395381D02*
D03*
X1380381D02*
D03*
X1525000Y2795000D02*
D03*
X1540000D02*
D03*
X1555000D02*
D03*
X1570000D02*
D03*
X1585000D02*
D03*
X1600000D02*
D03*
X1381000D02*
D03*
X1396000D02*
D03*
X1411000D02*
D03*
X1426000D02*
D03*
X1441000D02*
D03*
X1456000D02*
D03*
D22*
X1689000Y2784000D02*
D03*
Y2664000D02*
D03*
D23*
X1642000Y2761500D02*
D03*
Y2746500D02*
D03*
Y2731500D02*
D03*
Y2716500D02*
D03*
Y2701500D02*
D03*
Y2686500D02*
D03*
D24*
X1687000Y2606000D02*
D03*
X1686000Y2840000D02*
D03*
X1308000Y2606000D02*
D03*
Y2840000D02*
D03*
M02*
