G04*
G04 #@! TF.GenerationSoftware,Altium Limited,Altium Designer,19.1.8 (144)*
G04*
G04 Layer_Physical_Order=1*
G04 Layer_Color=255*
%FSLAX44Y44*%
%MOMM*%
G71*
G01*
G75*
%ADD16R,1.8000X3.8000*%
%ADD17R,1.0000X2.7000*%
%ADD18R,3.8000X1.8000*%
%ADD19R,2.7000X1.0000*%
%ADD25C,0.5000*%
%ADD26C,0.4000*%
%ADD27C,1.0000*%
%ADD28C,7.0000*%
%ADD29C,0.7000*%
G36*
X1548300Y2779800D02*
X1561700D01*
Y2803665D01*
X1562970Y2804325D01*
X1563300Y2804094D01*
Y2779800D01*
X1576700D01*
Y2804094D01*
X1577030Y2804325D01*
X1578300Y2803665D01*
Y2795439D01*
X1578242Y2795000D01*
Y2772799D01*
X1576201Y2770758D01*
X1462758D01*
Y2795000D01*
X1462700Y2795439D01*
Y2808427D01*
X1486483D01*
X1486971Y2808102D01*
X1489000Y2807698D01*
X1491029Y2808102D01*
X1491517Y2808427D01*
X1548300D01*
Y2779800D01*
D02*
G37*
G36*
X1667225Y2871537D02*
X1664362Y2869783D01*
X1659969Y2866031D01*
X1656217Y2861638D01*
X1653199Y2856713D01*
X1650988Y2851376D01*
X1649640Y2845759D01*
X1649187Y2840000D01*
X1649640Y2834241D01*
X1650988Y2828624D01*
X1653199Y2823287D01*
X1656217Y2818362D01*
X1659969Y2813969D01*
X1664362Y2810217D01*
X1669287Y2807199D01*
X1674624Y2804988D01*
X1680241Y2803640D01*
X1686000Y2803187D01*
X1691759Y2803640D01*
X1697376Y2804988D01*
X1702713Y2807199D01*
X1707638Y2810217D01*
X1712031Y2813969D01*
X1715783Y2818362D01*
X1717730Y2821539D01*
X1719000Y2821181D01*
Y2626360D01*
X1717778Y2626015D01*
X1716783Y2627639D01*
X1713031Y2632031D01*
X1708638Y2635783D01*
X1703713Y2638801D01*
X1698376Y2641012D01*
X1692759Y2642360D01*
X1687000Y2642813D01*
X1681241Y2642360D01*
X1675624Y2641012D01*
X1670287Y2638801D01*
X1665362Y2635783D01*
X1660969Y2632031D01*
X1657217Y2627639D01*
X1654199Y2622713D01*
X1651988Y2617376D01*
X1650640Y2611759D01*
X1650186Y2606000D01*
X1650640Y2600241D01*
X1651988Y2594624D01*
X1654199Y2589287D01*
X1657217Y2584362D01*
X1660969Y2579969D01*
X1665300Y2576270D01*
X1665301Y2576153D01*
X1664661Y2575000D01*
X1330339D01*
X1329699Y2576153D01*
X1329700Y2576270D01*
X1334031Y2579969D01*
X1337783Y2584362D01*
X1340801Y2589287D01*
X1343012Y2594624D01*
X1344360Y2600241D01*
X1344814Y2606000D01*
X1344360Y2611759D01*
X1343012Y2617376D01*
X1340801Y2622713D01*
X1337783Y2627639D01*
X1334031Y2632031D01*
X1329638Y2635783D01*
X1324713Y2638801D01*
X1319376Y2641012D01*
X1313759Y2642360D01*
X1308000Y2642813D01*
X1302241Y2642360D01*
X1296624Y2641012D01*
X1291287Y2638801D01*
X1286362Y2635783D01*
X1281969Y2632031D01*
X1278217Y2627639D01*
X1276270Y2624461D01*
X1275000Y2624819D01*
Y2668767D01*
X1376089Y2668767D01*
X1376768Y2667497D01*
X1376570Y2667200D01*
X1373681D01*
Y2660939D01*
X1373623Y2660500D01*
Y2652000D01*
X1373681Y2651561D01*
Y2636800D01*
X1387081D01*
Y2651561D01*
X1387139Y2652000D01*
Y2656064D01*
X1387353Y2656178D01*
X1388623Y2655417D01*
Y2652000D01*
X1388681Y2651561D01*
Y2636800D01*
X1402081D01*
Y2651561D01*
X1402139Y2652000D01*
Y2674000D01*
Y2697891D01*
X1439595Y2735348D01*
X1493472Y2681472D01*
X1517242Y2657701D01*
Y2652000D01*
X1517300Y2651561D01*
Y2641545D01*
X1516706Y2641227D01*
X1516030Y2640990D01*
X1514560Y2641282D01*
X1493951D01*
X1493029Y2641898D01*
X1491000Y2642302D01*
X1488971Y2641898D01*
X1487251Y2640749D01*
X1486102Y2639029D01*
X1486013Y2638582D01*
X1435415D01*
X1435256Y2638741D01*
X1435137Y2639339D01*
X1434209Y2640728D01*
X1432081Y2642856D01*
Y2667200D01*
X1418681D01*
Y2636800D01*
X1421099D01*
Y2631765D01*
X1415427Y2626093D01*
X1414211Y2626462D01*
X1414148Y2626779D01*
X1413588Y2627617D01*
Y2636800D01*
X1417081D01*
Y2667200D01*
X1403681D01*
Y2636800D01*
X1406043D01*
Y2628861D01*
X1405501Y2628499D01*
X1404352Y2626779D01*
X1404065Y2625338D01*
X1402798Y2624772D01*
X1402048Y2625274D01*
X1401898Y2626029D01*
X1400749Y2627749D01*
X1399029Y2628898D01*
X1397000Y2629302D01*
X1394971Y2628898D01*
X1393251Y2627749D01*
X1392102Y2626029D01*
X1391698Y2624000D01*
X1392102Y2621971D01*
X1393251Y2620251D01*
X1394971Y2619102D01*
X1396059Y2618885D01*
X1401901Y2613043D01*
X1403290Y2612115D01*
X1404929Y2611789D01*
X1411460D01*
X1413099Y2612115D01*
X1414489Y2613043D01*
X1428409Y2626964D01*
X1429337Y2628353D01*
X1429663Y2629991D01*
Y2630582D01*
X1430933Y2631058D01*
X1432003Y2630344D01*
X1433641Y2630018D01*
X1488300D01*
X1489939Y2630344D01*
X1491328Y2631272D01*
X1491941Y2631885D01*
X1493029Y2632102D01*
X1493951Y2632718D01*
X1512787D01*
X1520082Y2625422D01*
X1521472Y2624494D01*
X1523110Y2624168D01*
X1549166D01*
X1555361Y2617972D01*
X1556751Y2617044D01*
X1558389Y2616718D01*
X1583049D01*
X1583718Y2616271D01*
Y2598951D01*
X1583102Y2598029D01*
X1582698Y2596000D01*
X1583102Y2593971D01*
X1584251Y2592251D01*
X1585971Y2591102D01*
X1588000Y2590698D01*
X1590029Y2591102D01*
X1591749Y2592251D01*
X1592898Y2593971D01*
X1593302Y2596000D01*
X1592898Y2598029D01*
X1592282Y2598951D01*
Y2618459D01*
X1591956Y2620097D01*
X1591280Y2621110D01*
X1590913Y2622956D01*
X1590968Y2623035D01*
X1592138Y2623527D01*
X1593956Y2621708D01*
X1594352Y2619721D01*
X1595501Y2618001D01*
X1597221Y2616852D01*
X1599250Y2616448D01*
X1601279Y2616852D01*
X1602999Y2618001D01*
X1604148Y2619721D01*
X1604552Y2621750D01*
X1604148Y2623779D01*
X1602999Y2625499D01*
X1601279Y2626648D01*
X1599292Y2627043D01*
X1588868Y2637468D01*
X1587644Y2638285D01*
X1586200Y2638572D01*
X1586200Y2638572D01*
X1575700D01*
Y2665428D01*
X1584388D01*
X1584388Y2665428D01*
X1585832Y2665715D01*
X1587056Y2666532D01*
X1590351Y2669827D01*
X1591000Y2669698D01*
X1593029Y2670102D01*
X1594749Y2671251D01*
X1595898Y2672971D01*
X1596302Y2675000D01*
X1595898Y2677029D01*
X1594749Y2678749D01*
X1593029Y2679898D01*
X1591000Y2680302D01*
X1588971Y2679898D01*
X1587251Y2678749D01*
X1586102Y2677029D01*
X1585908Y2676055D01*
X1582825Y2672972D01*
X1562467D01*
X1561024Y2672685D01*
X1559800Y2671868D01*
X1557161Y2669229D01*
X1556693Y2668528D01*
X1555365Y2667200D01*
X1547300D01*
Y2636800D01*
X1555365D01*
X1556693Y2635472D01*
X1557161Y2634771D01*
X1559800Y2632133D01*
X1561024Y2631315D01*
X1562467Y2631028D01*
X1584637D01*
X1588527Y2627138D01*
X1588035Y2625968D01*
X1587956Y2625913D01*
X1586000Y2626302D01*
X1583971Y2625898D01*
X1583049Y2625282D01*
X1560163D01*
X1553967Y2631478D01*
X1552578Y2632406D01*
X1550939Y2632732D01*
X1524884D01*
X1521990Y2635627D01*
X1522476Y2636800D01*
X1530700D01*
Y2651561D01*
X1530758Y2652000D01*
Y2660500D01*
X1530700Y2660939D01*
Y2662851D01*
X1531970Y2663530D01*
X1532242Y2663348D01*
Y2652000D01*
X1532300Y2651561D01*
Y2636800D01*
X1545700D01*
Y2651561D01*
X1545758Y2652000D01*
Y2667000D01*
X1545527Y2668749D01*
X1544852Y2670379D01*
X1543779Y2671779D01*
X1524529Y2691028D01*
X1523129Y2692102D01*
X1521499Y2692777D01*
X1519750Y2693008D01*
X1501049D01*
X1447758Y2746299D01*
Y2757242D01*
X1562201D01*
X1592742Y2726701D01*
Y2692358D01*
X1592973Y2690609D01*
X1593648Y2688979D01*
X1594722Y2687579D01*
X1600579Y2681721D01*
X1601979Y2680648D01*
X1603609Y2679973D01*
X1605358Y2679742D01*
X1642000D01*
X1642439Y2679800D01*
X1657200D01*
Y2693200D01*
X1642439D01*
X1642000Y2693258D01*
X1608157D01*
X1606258Y2695157D01*
Y2711526D01*
X1607431Y2712012D01*
X1622722Y2696721D01*
X1624121Y2695648D01*
X1625751Y2694973D01*
X1626800Y2694834D01*
Y2694800D01*
X1627061D01*
X1627500Y2694742D01*
X1642000D01*
X1642439Y2694800D01*
X1657200D01*
Y2708200D01*
X1642439D01*
X1642000Y2708258D01*
X1631152D01*
X1630970Y2708530D01*
X1631649Y2709800D01*
X1657200D01*
Y2723200D01*
X1632906D01*
X1632675Y2723530D01*
X1633335Y2724800D01*
X1657200D01*
Y2738200D01*
X1626800D01*
Y2729962D01*
X1625627Y2729476D01*
X1614043Y2741059D01*
Y2812729D01*
X1613756Y2814173D01*
X1612938Y2815397D01*
X1598294Y2830042D01*
X1597898Y2832029D01*
X1596749Y2833749D01*
X1595029Y2834898D01*
X1593000Y2835302D01*
X1590971Y2834898D01*
X1589251Y2833749D01*
X1588102Y2832029D01*
X1587706Y2830042D01*
X1573632Y2815968D01*
X1572815Y2814744D01*
X1572527Y2813300D01*
X1572527Y2813300D01*
Y2811363D01*
X1571365Y2810200D01*
X1568635D01*
X1567307Y2811528D01*
X1566839Y2812229D01*
X1564200Y2814868D01*
X1562976Y2815685D01*
X1561533Y2815973D01*
X1561532Y2815973D01*
X1493268D01*
X1492749Y2816749D01*
X1491029Y2817898D01*
X1489000Y2818302D01*
X1486971Y2817898D01*
X1485251Y2816749D01*
X1484732Y2815973D01*
X1434467D01*
X1434467Y2815973D01*
X1433024Y2815685D01*
X1431800Y2814868D01*
X1431800Y2814868D01*
X1429161Y2812229D01*
X1428692Y2811528D01*
X1427365Y2810200D01*
X1424635D01*
X1423307Y2811528D01*
X1422839Y2812229D01*
X1422839Y2812229D01*
X1403900Y2831168D01*
X1402676Y2831985D01*
X1401233Y2832273D01*
X1401232Y2832273D01*
X1394714D01*
X1393029Y2833398D01*
X1391000Y2833802D01*
X1388971Y2833398D01*
X1387251Y2832249D01*
X1386102Y2830529D01*
X1385698Y2828500D01*
X1386102Y2826471D01*
X1387251Y2824751D01*
X1388971Y2823602D01*
X1391000Y2823198D01*
X1393029Y2823602D01*
X1394714Y2824727D01*
X1399670D01*
X1413024Y2811373D01*
X1412538Y2810200D01*
X1411512D01*
X1411000Y2810302D01*
X1410488Y2810200D01*
X1404300D01*
Y2779800D01*
X1417700D01*
Y2803665D01*
X1418970Y2804325D01*
X1419300Y2804094D01*
Y2779800D01*
X1432700D01*
Y2804094D01*
X1433030Y2804325D01*
X1434300Y2803665D01*
Y2795439D01*
X1434242Y2795000D01*
Y2764000D01*
Y2757758D01*
X1407000D01*
X1405251Y2757527D01*
X1403621Y2756852D01*
X1402222Y2755779D01*
X1401148Y2754379D01*
X1400473Y2752749D01*
X1400242Y2751000D01*
X1400473Y2749251D01*
X1401148Y2747621D01*
X1402222Y2746222D01*
X1403621Y2745148D01*
X1405251Y2744472D01*
X1407000Y2744242D01*
X1427716D01*
X1428202Y2743069D01*
X1390603Y2705469D01*
X1389529Y2704069D01*
X1389003Y2702802D01*
X1387733Y2703054D01*
X1387733Y2771748D01*
X1387665Y2772090D01*
X1387601Y2772411D01*
X1387601Y2772411D01*
X1387601Y2772411D01*
X1387409Y2772698D01*
X1387226Y2772973D01*
X1382229Y2777976D01*
X1382229Y2777976D01*
X1382228Y2777977D01*
X1381954Y2778160D01*
X1381667Y2778352D01*
X1381666Y2778352D01*
X1381666Y2778352D01*
X1381334Y2778418D01*
X1381004Y2778484D01*
X1381003Y2778484D01*
X1381003Y2778484D01*
X1275898Y2778483D01*
X1275000Y2779380D01*
Y2821181D01*
X1276270Y2821539D01*
X1278217Y2818362D01*
X1281969Y2813969D01*
X1286362Y2810217D01*
X1291287Y2807199D01*
X1296624Y2804988D01*
X1302241Y2803640D01*
X1308000Y2803187D01*
X1313759Y2803640D01*
X1319376Y2804988D01*
X1324713Y2807199D01*
X1329638Y2810217D01*
X1334031Y2813969D01*
X1337783Y2818362D01*
X1340801Y2823287D01*
X1343012Y2828624D01*
X1344360Y2834241D01*
X1344814Y2840000D01*
X1344360Y2845759D01*
X1343012Y2851376D01*
X1340801Y2856713D01*
X1337783Y2861638D01*
X1334031Y2866031D01*
X1329638Y2869783D01*
X1328268Y2870623D01*
X1328611Y2871845D01*
X1666865Y2872806D01*
X1667225Y2871537D01*
D02*
G37*
D16*
X1621500Y2605000D02*
D03*
X1501500D02*
D03*
X1477881D02*
D03*
X1357881D02*
D03*
X1502500Y2842000D02*
D03*
X1622500D02*
D03*
X1358500D02*
D03*
X1478500D02*
D03*
D17*
X1599000Y2652000D02*
D03*
X1584000D02*
D03*
X1569000D02*
D03*
X1554000D02*
D03*
X1539000D02*
D03*
X1524000D02*
D03*
X1455381D02*
D03*
X1440381D02*
D03*
X1425381D02*
D03*
X1410381D02*
D03*
X1395381D02*
D03*
X1380381D02*
D03*
X1525000Y2795000D02*
D03*
X1540000D02*
D03*
X1555000D02*
D03*
X1570000D02*
D03*
X1585000D02*
D03*
X1600000D02*
D03*
X1381000D02*
D03*
X1396000D02*
D03*
X1411000D02*
D03*
X1426000D02*
D03*
X1441000D02*
D03*
X1456000D02*
D03*
D18*
X1689000Y2784000D02*
D03*
Y2664000D02*
D03*
D19*
X1642000Y2761500D02*
D03*
Y2746500D02*
D03*
Y2731500D02*
D03*
Y2716500D02*
D03*
Y2701500D02*
D03*
Y2686500D02*
D03*
D25*
X1523110Y2628450D02*
X1550939D01*
X1558389Y2621000D01*
X1586000D01*
X1514560Y2637000D02*
X1523110Y2628450D01*
X1586000Y2620459D02*
Y2621000D01*
Y2620459D02*
X1588000Y2618459D01*
Y2596000D02*
Y2618459D01*
X1555000Y2795000D02*
Y2796000D01*
X1568000Y2644000D02*
X1569440D01*
X1491000Y2637000D02*
X1514560D01*
X1425381Y2629991D02*
Y2643500D01*
X1488300Y2634300D02*
X1491000Y2637000D01*
X1433641Y2634300D02*
X1488300D01*
X1431181Y2636760D02*
X1433641Y2634300D01*
X1431181Y2636760D02*
Y2637700D01*
X1425381Y2643500D02*
X1431181Y2637700D01*
X1425381Y2643500D02*
Y2652000D01*
X1404929Y2616071D02*
X1411460D01*
X1425381Y2629991D01*
X1397000Y2624000D02*
X1404929Y2616071D01*
D26*
X1409250Y2624750D02*
X1409816Y2625316D01*
Y2651435D01*
X1410381Y2652000D01*
X1586200Y2634800D02*
X1599250Y2621750D01*
X1562467Y2634800D02*
X1586200D01*
X1559828Y2637439D02*
X1562467Y2634800D01*
X1559828Y2637439D02*
Y2637672D01*
X1554000Y2643500D02*
X1559828Y2637672D01*
X1554000Y2643500D02*
Y2652000D01*
X1590188Y2675000D02*
X1591000D01*
X1584388Y2669200D02*
X1590188Y2675000D01*
X1562467Y2669200D02*
X1584388D01*
X1559828Y2666561D02*
X1562467Y2669200D01*
X1559828Y2666328D02*
Y2666561D01*
X1554000Y2660500D02*
X1559828Y2666328D01*
X1554000Y2652000D02*
Y2660500D01*
X1593000Y2830000D02*
X1610271Y2812729D01*
Y2739497D02*
Y2812729D01*
Y2739497D02*
X1626967Y2722800D01*
X1627200D01*
X1633500Y2716500D01*
X1576300Y2813300D02*
X1593000Y2830000D01*
X1576300Y2809800D02*
Y2813300D01*
X1570000Y2803500D02*
X1576300Y2809800D01*
X1489000Y2813000D02*
X1489812D01*
X1490612Y2812200D01*
X1561533D01*
X1564171Y2809561D01*
Y2809328D02*
Y2809561D01*
Y2809328D02*
X1570000Y2803500D01*
Y2795000D02*
Y2803500D01*
X1488200Y2812200D02*
X1489000Y2813000D01*
X1434467Y2812200D02*
X1488200D01*
X1431828Y2809561D02*
X1434467Y2812200D01*
X1431828Y2809328D02*
Y2809561D01*
X1426000Y2803500D02*
X1431828Y2809328D01*
X1426000Y2795000D02*
Y2803500D01*
X1391000Y2828500D02*
X1401233D01*
X1420172Y2809561D01*
Y2809328D02*
Y2809561D01*
Y2809328D02*
X1426000Y2803500D01*
D27*
X1459000Y2764000D02*
X1565000D01*
X1441000D02*
X1459000D01*
X1456000Y2767000D02*
X1459000Y2764000D01*
X1456000Y2767000D02*
Y2795000D01*
X1565000Y2764000D02*
X1599500Y2729500D01*
X1579000Y2764000D02*
X1594142D01*
X1600000Y2769858D01*
Y2795000D01*
X1599500Y2729500D02*
X1627500Y2701500D01*
X1599500Y2692358D02*
Y2729500D01*
Y2692358D02*
X1605358Y2686500D01*
X1642000D01*
X1498250Y2686250D02*
X1524000Y2660500D01*
X1441000Y2743500D02*
X1498250Y2686250D01*
X1519750D01*
X1539000Y2667000D01*
Y2652000D02*
Y2667000D01*
X1395381Y2674000D02*
Y2700691D01*
Y2652000D02*
Y2674000D01*
X1385181Y2663800D02*
X1395381Y2674000D01*
X1383681Y2663800D02*
X1385181D01*
X1380381Y2660500D02*
X1383681Y2663800D01*
X1380381Y2652000D02*
Y2660500D01*
X1441000Y2743500D02*
Y2746310D01*
X1524000Y2652000D02*
Y2660500D01*
X1436310Y2751000D02*
X1441000Y2746310D01*
X1407000Y2751000D02*
X1436310D01*
X1565000Y2764000D02*
X1579000D01*
X1627500Y2701500D02*
X1642000D01*
X1441000Y2764000D02*
Y2795000D01*
Y2746310D02*
Y2764000D01*
X1579000D02*
X1585000Y2770000D01*
Y2795000D01*
X1395381Y2700691D02*
X1441000Y2746310D01*
D28*
X1687000Y2606000D02*
D03*
X1686000Y2840000D02*
D03*
X1308000Y2606000D02*
D03*
Y2840000D02*
D03*
D29*
X1547750Y2620750D02*
D03*
X1710001Y2800002D02*
D03*
X1700001Y2780002D02*
D03*
X1710001Y2760002D02*
D03*
X1700001Y2740002D02*
D03*
X1710001Y2720002D02*
D03*
X1700001Y2700002D02*
D03*
X1710001Y2680002D02*
D03*
X1700001Y2660002D02*
D03*
X1710001Y2640002D02*
D03*
X1680001Y2780002D02*
D03*
X1690001Y2760002D02*
D03*
X1680001Y2740002D02*
D03*
X1690001Y2720002D02*
D03*
X1680001Y2700002D02*
D03*
X1690001Y2680002D02*
D03*
X1680001Y2660002D02*
D03*
X1670001Y2800002D02*
D03*
X1660001Y2780002D02*
D03*
X1670001Y2760002D02*
D03*
Y2720002D02*
D03*
Y2680002D02*
D03*
X1660001Y2660002D02*
D03*
X1640001Y2860002D02*
D03*
Y2820002D02*
D03*
X1650001Y2800002D02*
D03*
X1640001Y2780002D02*
D03*
X1650001Y2760002D02*
D03*
Y2640002D02*
D03*
X1640001Y2620002D02*
D03*
Y2580002D02*
D03*
X1620001Y2860002D02*
D03*
X1630001Y2840002D02*
D03*
X1620001Y2820002D02*
D03*
X1630001Y2800002D02*
D03*
X1620001Y2780002D02*
D03*
X1630001Y2760002D02*
D03*
Y2600002D02*
D03*
X1620001Y2580002D02*
D03*
X1600001Y2860002D02*
D03*
Y2580002D02*
D03*
X1580001Y2860002D02*
D03*
Y2580002D02*
D03*
X1560001Y2860002D02*
D03*
Y2740002D02*
D03*
X1570001Y2720002D02*
D03*
X1560001Y2700002D02*
D03*
X1570001Y2680002D02*
D03*
Y2600002D02*
D03*
X1560001Y2580002D02*
D03*
X1540001Y2860002D02*
D03*
Y2820002D02*
D03*
Y2740002D02*
D03*
X1550001Y2720002D02*
D03*
X1540001Y2700002D02*
D03*
X1550001Y2680002D02*
D03*
Y2600002D02*
D03*
X1540001Y2580002D02*
D03*
X1520001Y2860002D02*
D03*
Y2820002D02*
D03*
X1530001Y2800002D02*
D03*
X1520001Y2740002D02*
D03*
X1530001Y2720002D02*
D03*
X1520001Y2700002D02*
D03*
X1530001Y2600002D02*
D03*
X1520001Y2580002D02*
D03*
X1500001Y2860002D02*
D03*
X1510001Y2800002D02*
D03*
X1500001Y2740002D02*
D03*
X1510001Y2720002D02*
D03*
X1500001Y2700002D02*
D03*
Y2660002D02*
D03*
X1510001Y2600002D02*
D03*
X1500001Y2580002D02*
D03*
X1480001Y2860002D02*
D03*
X1490001Y2800002D02*
D03*
X1480001Y2780002D02*
D03*
Y2740002D02*
D03*
X1490001Y2720002D02*
D03*
X1480001Y2660002D02*
D03*
Y2620002D02*
D03*
Y2580002D02*
D03*
X1460001Y2860002D02*
D03*
Y2820002D02*
D03*
Y2740002D02*
D03*
Y2700002D02*
D03*
X1470001Y2680002D02*
D03*
X1460001Y2660002D02*
D03*
Y2620002D02*
D03*
Y2580002D02*
D03*
X1440001Y2860002D02*
D03*
Y2820002D02*
D03*
Y2700002D02*
D03*
X1450001Y2680002D02*
D03*
X1440001Y2660002D02*
D03*
Y2620002D02*
D03*
Y2580002D02*
D03*
X1420001Y2860002D02*
D03*
X1430001Y2720002D02*
D03*
Y2680002D02*
D03*
X1420001Y2580002D02*
D03*
X1400001Y2860002D02*
D03*
Y2780002D02*
D03*
X1410001Y2680002D02*
D03*
Y2600002D02*
D03*
X1400001Y2580002D02*
D03*
X1380001Y2860002D02*
D03*
Y2620002D02*
D03*
X1390001Y2600002D02*
D03*
X1380001Y2580002D02*
D03*
X1360001Y2860002D02*
D03*
X1370001Y2840002D02*
D03*
X1360001Y2820002D02*
D03*
Y2660002D02*
D03*
X1370001Y2640002D02*
D03*
X1360001Y2620002D02*
D03*
X1370001Y2600002D02*
D03*
X1360001Y2580002D02*
D03*
X1350001Y2840002D02*
D03*
Y2800002D02*
D03*
X1340001Y2660002D02*
D03*
X1350001Y2640002D02*
D03*
Y2600002D02*
D03*
X1340001Y2580002D02*
D03*
X1330001Y2800002D02*
D03*
X1320001Y2660002D02*
D03*
X1330001Y2640002D02*
D03*
X1300001Y2660002D02*
D03*
X1290001Y2800002D02*
D03*
X1280001Y2660002D02*
D03*
X1588000Y2596000D02*
D03*
X1555000Y2796000D02*
D03*
X1639000Y2731000D02*
D03*
X1411000Y2805000D02*
D03*
X1569440Y2644000D02*
D03*
X1586000Y2621000D02*
D03*
X1491000Y2637000D02*
D03*
X1397000Y2624000D02*
D03*
X1409250Y2624750D02*
D03*
X1599250Y2621750D02*
D03*
X1591000Y2675000D02*
D03*
X1633500Y2716500D02*
D03*
X1593000Y2830000D02*
D03*
X1489000Y2813000D02*
D03*
X1391000Y2828500D02*
D03*
X1407000Y2751000D02*
D03*
M02*
