G04*
G04 #@! TF.GenerationSoftware,Altium Limited,Altium Designer,19.1.8 (144)*
G04*
G04 Layer_Color=65535*
%FSLAX44Y44*%
%MOMM*%
G71*
G01*
G75*
%ADD10C,0.2000*%
%ADD11C,0.1270*%
%ADD12C,0.0100*%
%ADD13C,0.1700*%
%ADD14C,0.2500*%
G04:AMPARAMS|DCode=15|XSize=0.5331mm|YSize=0.3432mm|CornerRadius=0mm|HoleSize=0mm|Usage=FLASHONLY|Rotation=3.593|XOffset=0mm|YOffset=0mm|HoleType=Round|Shape=Rectangle|*
%AMROTATEDRECTD15*
4,1,4,-0.2552,-0.1880,-0.2768,0.1545,0.2552,0.1880,0.2768,-0.1545,-0.2552,-0.1880,0.0*
%
%ADD15ROTATEDRECTD15*%

G36*
X1445076Y2769396D02*
X1446588Y2767946D01*
X1447410Y2766018D01*
Y2764970D01*
X1447410Y2764968D01*
Y2764957D01*
X1447410Y2764932D01*
X1447409Y2764906D01*
X1447409Y2764880D01*
X1447409Y2764868D01*
Y2764868D01*
X1447410Y2764968D01*
Y2764970D01*
X1447409Y2764868D01*
X1447370Y2761036D01*
Y2761036D01*
Y2761036D01*
Y2761036D01*
Y2761036D01*
Y2761036D01*
X1447370Y2761037D01*
X1447370Y2761036D01*
X1447370Y2761028D01*
X1447365Y2761012D01*
X1447355Y2760998D01*
X1447341Y2760988D01*
X1447334Y2760986D01*
X1447334D01*
X1438501Y2758022D01*
X1438490Y2758019D01*
X1438467Y2758021D01*
X1438446Y2758033D01*
X1438433Y2758052D01*
X1438431Y2758064D01*
X1437237Y2764502D01*
X1437226Y2764498D01*
X1437202Y2764502D01*
X1437182Y2764516D01*
X1437170Y2764537D01*
X1437169Y2764549D01*
X1437083Y2765593D01*
X1437743Y2767581D01*
X1439131Y2769152D01*
X1441023Y2770052D01*
X1443116Y2770138D01*
X1445076Y2769396D01*
D02*
G37*
G36*
X1465802Y2763117D02*
X1470628Y2762157D01*
X1475216Y2760379D01*
X1479429Y2757837D01*
X1483141Y2754607D01*
X1486241Y2750785D01*
X1488635Y2746487D01*
X1490253Y2741839D01*
X1491045Y2736983D01*
X1490988Y2732063D01*
X1490536Y2729644D01*
X1490057Y2731783D01*
X1488747Y2735964D01*
X1486986Y2739976D01*
X1484794Y2743770D01*
X1482198Y2747299D01*
X1479229Y2750522D01*
X1475924Y2753398D01*
X1472322Y2755893D01*
X1468468Y2757977D01*
X1464408Y2759624D01*
X1460191Y2760814D01*
X1455869Y2761533D01*
X1453685Y2761713D01*
X1453685Y2761713D01*
X1453685Y2761713D01*
X1453685D01*
X1456018Y2762495D01*
X1460883Y2763231D01*
X1465802Y2763117D01*
D02*
G37*
G36*
X1447370Y2761037D02*
Y2761037D01*
Y2761037D01*
Y2761037D01*
D02*
G37*
G36*
X1570415Y2758743D02*
X1570896Y2758262D01*
X1571156Y2757634D01*
Y2757295D01*
X1571156Y2757295D01*
Y2735549D01*
X1571156Y2735549D01*
Y2735209D01*
X1570896Y2734581D01*
X1570415Y2734100D01*
X1569787Y2733840D01*
X1569107D01*
X1568479Y2734100D01*
X1567999Y2734581D01*
X1567739Y2735209D01*
Y2735549D01*
X1567739Y2757295D01*
X1567739Y2757295D01*
Y2757634D01*
X1567999Y2758262D01*
X1568479Y2758743D01*
X1569107Y2759003D01*
X1569787D01*
X1570415Y2758743D01*
D02*
G37*
G36*
X1582148Y2768492D02*
X1582699Y2768278D01*
X1583147Y2767891D01*
X1583293Y2767633D01*
X1583293Y2767633D01*
X1592617Y2751169D01*
X1592617Y2751169D01*
X1592761Y2750914D01*
X1592864Y2750338D01*
X1592768Y2749760D01*
X1592486Y2749247D01*
X1592267Y2749052D01*
X1592268Y2749052D01*
X1581042Y2739042D01*
X1581043D01*
X1581043Y2739042D01*
X1581000Y2739000D01*
X1580929Y2738904D01*
X1580880Y2738794D01*
X1580855Y2738677D01*
X1580852Y2738617D01*
X1580852Y2738617D01*
Y2729141D01*
X1580852Y2729141D01*
Y2728801D01*
X1580592Y2728173D01*
X1580111Y2727693D01*
X1579483Y2727433D01*
X1579144D01*
X1579144Y2727432D01*
X1523678D01*
X1523678Y2727433D01*
X1523338D01*
X1522710Y2727693D01*
X1522230Y2728173D01*
X1521969Y2728801D01*
Y2729141D01*
X1521970Y2732525D01*
X1519801Y2735415D01*
X1519800Y2735415D01*
Y2735415D01*
X1519701Y2735547D01*
X1519557Y2735844D01*
X1519473Y2736162D01*
X1519451Y2736491D01*
X1519472Y2736654D01*
X1519472Y2736655D01*
X1521803Y2755150D01*
X1521803Y2755150D01*
X1521803Y2755150D01*
X1521844Y2755475D01*
X1522160Y2756048D01*
X1522666Y2756464D01*
X1523290Y2756663D01*
X1523617Y2756640D01*
X1523617Y2756640D01*
X1539336Y2755544D01*
Y2752118D01*
X1525528Y2753081D01*
X1525528Y2753081D01*
X1525528D01*
Y2753081D01*
X1525528Y2753081D01*
X1525421Y2753079D01*
X1525216Y2753014D01*
X1525051Y2752878D01*
X1524947Y2752690D01*
X1524924Y2752585D01*
X1524924Y2752585D01*
X1522977Y2737142D01*
X1522977Y2737142D01*
X1522977Y2737142D01*
X1522973Y2737087D01*
X1522980Y2736978D01*
X1523008Y2736873D01*
X1523056Y2736774D01*
X1523087Y2736729D01*
X1523087Y2736729D01*
X1525045Y2734120D01*
X1525045Y2734120D01*
X1525045D01*
X1525127Y2734010D01*
X1525255Y2733766D01*
X1525343Y2733505D01*
X1525387Y2733232D01*
Y2733094D01*
X1525386Y2733094D01*
Y2731419D01*
X1525387Y2731419D01*
X1525398Y2731308D01*
X1525483Y2731103D01*
X1525640Y2730946D01*
X1525845Y2730861D01*
X1525956Y2730850D01*
X1525956Y2730850D01*
X1576865D01*
X1576865Y2730850D01*
X1576976Y2730861D01*
X1577182Y2730946D01*
X1577339Y2731103D01*
X1577424Y2731308D01*
X1577435Y2731419D01*
X1577435Y2731419D01*
Y2739638D01*
X1577435Y2739638D01*
Y2739819D01*
X1577510Y2740172D01*
X1577658Y2740502D01*
X1577872Y2740793D01*
X1578006Y2740913D01*
X1578007Y2740913D01*
X1588621Y2750379D01*
X1588621D01*
X1588688Y2750449D01*
X1588780Y2750617D01*
X1588812Y2750807D01*
X1588778Y2750997D01*
X1588738Y2751084D01*
X1588738Y2751084D01*
X1581239Y2764327D01*
Y2764327D01*
X1581183Y2764407D01*
X1581036Y2764535D01*
X1580855Y2764605D01*
X1580661Y2764610D01*
X1580566Y2764588D01*
X1580566Y2764587D01*
X1543536Y2752467D01*
X1541597Y2754406D01*
Y2755428D01*
X1581275Y2768415D01*
X1581275Y2768415D01*
X1581556Y2768507D01*
X1582148Y2768492D01*
D02*
G37*
G36*
X1561109Y2750500D02*
X1561590Y2750020D01*
X1561850Y2749391D01*
Y2749052D01*
X1561850Y2749052D01*
Y2738617D01*
X1561850Y2738617D01*
Y2738277D01*
X1561590Y2737649D01*
X1561109Y2737169D01*
X1560481Y2736909D01*
X1559801D01*
X1559173Y2737169D01*
X1558693Y2737649D01*
X1558433Y2738277D01*
Y2738617D01*
X1558433Y2749052D01*
X1558433Y2749052D01*
Y2749391D01*
X1558693Y2750020D01*
X1559173Y2750500D01*
X1559801Y2750760D01*
X1560481D01*
X1561109Y2750500D01*
D02*
G37*
G36*
X1579790Y2756598D02*
X1580271Y2756117D01*
X1580531Y2755490D01*
Y2755150D01*
X1580531Y2755150D01*
Y2748483D01*
X1580531Y2748483D01*
Y2748143D01*
X1580271Y2747515D01*
X1579790Y2747034D01*
X1579163Y2746774D01*
X1578483D01*
X1577855Y2747034D01*
X1577374Y2747515D01*
X1577114Y2748143D01*
Y2748483D01*
X1577114Y2748483D01*
Y2755150D01*
X1577114Y2755150D01*
Y2755490D01*
X1577374Y2756117D01*
X1577855Y2756598D01*
X1578483Y2756858D01*
X1579163D01*
X1579790Y2756598D01*
D02*
G37*
G36*
X1461669Y2751997D02*
X1462570Y2749654D01*
X1463738Y2747432D01*
X1465159Y2745361D01*
X1465957Y2744391D01*
X1465957D01*
X1465957D01*
D01*
X1464191Y2744435D01*
X1460671Y2744171D01*
X1457216Y2743443D01*
X1453888Y2742265D01*
X1450745Y2740658D01*
X1447842Y2738649D01*
X1445229Y2736274D01*
X1442954Y2733575D01*
X1441056Y2730598D01*
X1439568Y2727397D01*
X1438516Y2724027D01*
X1437918Y2720547D01*
X1437794Y2718785D01*
X1437794Y2718785D01*
X1437794D01*
Y2718785D01*
X1437452Y2720683D01*
X1437265Y2724535D01*
X1437577Y2728379D01*
X1438384Y2732151D01*
X1439671Y2735786D01*
X1441418Y2739224D01*
X1443594Y2742408D01*
X1446164Y2745284D01*
X1449084Y2747803D01*
X1452305Y2749924D01*
X1455773Y2751610D01*
X1459431Y2752834D01*
X1461323Y2753205D01*
X1461323Y2753205D01*
X1461669Y2751997D01*
D02*
G37*
G36*
X1542555Y2747685D02*
X1543035Y2747204D01*
X1543295Y2746576D01*
Y2746236D01*
Y2736441D01*
Y2736101D01*
X1543035Y2735473D01*
X1542555Y2734992D01*
X1541927Y2734732D01*
X1541247D01*
X1540619Y2734992D01*
X1540138Y2735473D01*
X1539878Y2736101D01*
Y2736441D01*
X1539878Y2746236D01*
X1539878Y2746236D01*
Y2746576D01*
X1540138Y2747204D01*
X1540619Y2747685D01*
X1541247Y2747945D01*
X1541927D01*
X1542555Y2747685D01*
D02*
G37*
G36*
X1551790Y2752061D02*
X1552271Y2751580D01*
X1552531Y2750952D01*
Y2750612D01*
X1552531Y2750612D01*
Y2734677D01*
X1552531D01*
Y2734337D01*
X1552271Y2733708D01*
X1551790Y2733228D01*
X1551163Y2732968D01*
X1550483D01*
X1549855Y2733228D01*
X1549374Y2733708D01*
X1549114Y2734337D01*
Y2734677D01*
X1549114Y2750612D01*
X1549114Y2750612D01*
Y2750952D01*
X1549374Y2751580D01*
X1549855Y2752061D01*
X1550483Y2752321D01*
X1551163D01*
X1551790Y2752061D01*
D02*
G37*
G36*
X1533262Y2749931D02*
X1533742Y2749450D01*
X1534002Y2748823D01*
Y2748483D01*
X1534003Y2748483D01*
Y2734677D01*
X1534002D01*
Y2734337D01*
X1533742Y2733708D01*
X1533262Y2733228D01*
X1532634Y2732968D01*
X1531954D01*
X1531326Y2733228D01*
X1530845Y2733708D01*
X1530585Y2734337D01*
Y2734677D01*
X1530585Y2748483D01*
X1530585Y2748483D01*
Y2748823D01*
X1530845Y2749450D01*
X1531326Y2749931D01*
X1531954Y2750191D01*
X1532634D01*
X1533262Y2749931D01*
D02*
G37*
G36*
X1468605Y2741841D02*
X1469466Y2741179D01*
X1471282Y2739990D01*
X1473210Y2738990D01*
X1475229Y2738190D01*
X1476266Y2737868D01*
X1468605Y2732280D01*
Y2741841D01*
X1468605Y2741841D01*
X1468605D01*
Y2741841D01*
D02*
G37*
G36*
X1477338Y2724445D02*
X1478490Y2721498D01*
X1479930Y2715336D01*
X1480473Y2709032D01*
X1480110Y2702714D01*
X1479479Y2699614D01*
X1478532Y2698979D01*
X1476573Y2697812D01*
X1474556Y2696750D01*
X1472485Y2695796D01*
X1471425Y2695374D01*
X1472048Y2696910D01*
X1473077Y2700060D01*
X1473810Y2703291D01*
X1474242Y2706576D01*
X1474368Y2709887D01*
X1474188Y2713195D01*
X1473703Y2716473D01*
X1472917Y2719692D01*
X1472413Y2721270D01*
X1472413Y2721270D01*
X1472413Y2721270D01*
D01*
X1473056Y2721623D01*
X1474319Y2722367D01*
X1475552Y2723161D01*
X1476751Y2724005D01*
X1477338Y2724445D01*
Y2724445D01*
D02*
G37*
G36*
X1493872Y2727762D02*
X1497392Y2727077D01*
X1500765Y2725858D01*
X1503909Y2724134D01*
X1506751Y2721947D01*
X1507987Y2720648D01*
X1506431Y2720647D01*
X1503335Y2720339D01*
X1500307Y2719629D01*
X1497398Y2718528D01*
X1494658Y2717055D01*
X1492134Y2715236D01*
X1489871Y2713102D01*
X1487907Y2710689D01*
X1487048Y2709392D01*
X1487048D01*
X1486920Y2711577D01*
X1486179Y2715888D01*
X1484809Y2720042D01*
X1482837Y2723947D01*
X1481640Y2725779D01*
Y2725779D01*
X1483273Y2726520D01*
X1486727Y2727480D01*
X1490289Y2727898D01*
X1493872Y2727762D01*
D02*
G37*
G36*
X1433359Y2754883D02*
X1429592Y2750378D01*
X1426542Y2745360D01*
X1424280Y2739941D01*
X1422855Y2734244D01*
X1422301Y2728398D01*
X1422629Y2722535D01*
X1423832Y2716788D01*
X1425884Y2711286D01*
X1428737Y2706154D01*
X1432327Y2701507D01*
X1436573Y2697451D01*
X1438913Y2695674D01*
X1437770Y2696153D01*
X1435542Y2697242D01*
X1433380Y2698457D01*
X1431292Y2699795D01*
X1430289Y2700523D01*
X1428158Y2702305D01*
X1424524Y2706504D01*
X1421610Y2711232D01*
X1419492Y2716366D01*
X1418225Y2721774D01*
X1417841Y2727314D01*
X1418351Y2732845D01*
X1419741Y2738222D01*
X1421975Y2743307D01*
X1424996Y2747967D01*
X1428725Y2752083D01*
X1433065Y2755548D01*
X1435485Y2756909D01*
X1435485D01*
X1433359Y2754883D01*
D02*
G37*
G36*
X1448624Y2717623D02*
X1449390Y2717486D01*
X1450929Y2717263D01*
X1452476Y2717106D01*
X1454029Y2717016D01*
X1454806Y2716996D01*
X1455245Y2715442D01*
X1455740Y2712249D01*
X1455845Y2709021D01*
X1455557Y2705804D01*
X1454880Y2702645D01*
X1453826Y2699591D01*
X1452409Y2696689D01*
X1450651Y2693979D01*
X1449614Y2692741D01*
Y2692741D01*
X1448867Y2692845D01*
X1447381Y2693105D01*
X1445906Y2693416D01*
X1444442Y2693780D01*
X1443717Y2693987D01*
Y2693987D01*
X1444630Y2695253D01*
X1446236Y2697927D01*
X1447533Y2700764D01*
X1448504Y2703728D01*
X1449138Y2706782D01*
X1449427Y2709888D01*
X1449366Y2713006D01*
X1448958Y2716099D01*
X1448624Y2717623D01*
D01*
Y2717623D01*
Y2717623D01*
D02*
G37*
G36*
X1467437Y2719071D02*
X1467437D01*
X1467804Y2717383D01*
X1468178Y2713946D01*
X1468191Y2710489D01*
X1467842Y2707050D01*
X1467136Y2703666D01*
X1466078Y2700375D01*
X1464683Y2697213D01*
X1462964Y2694214D01*
X1461952Y2692812D01*
X1461174Y2692695D01*
X1459608Y2692517D01*
X1458038Y2692397D01*
X1456464Y2692334D01*
X1455676Y2692331D01*
X1456640Y2693685D01*
X1458346Y2696535D01*
X1459743Y2699549D01*
X1460815Y2702693D01*
X1461550Y2705933D01*
X1461940Y2709232D01*
X1461980Y2712554D01*
X1461671Y2715862D01*
X1461386Y2717499D01*
X1462156Y2717638D01*
X1463686Y2717965D01*
X1465201Y2718359D01*
X1466697Y2718818D01*
X1467437Y2719071D01*
X1467437Y2719071D01*
D02*
G37*
D10*
X1512500Y2669000D02*
G03*
X1512500Y2669000I-1000J0D01*
G01*
X1626000Y2674000D02*
G03*
X1626000Y2674000I-1000J0D01*
G01*
X1368881Y2669000D02*
G03*
X1368881Y2669000I-1000J0D01*
G01*
X1613500Y2778000D02*
G03*
X1613500Y2778000I-1000J0D01*
G01*
X1469500D02*
G03*
X1469500Y2778000I-1000J0D01*
G01*
D11*
X1435485Y2756909D02*
G03*
X1438913Y2695674I25866J-29266D01*
G01*
X1435485Y2756909D02*
G03*
X1430289Y2700523I16876J-29988D01*
G01*
X1507987Y2720648D02*
G03*
X1487048Y2709392I-764J-23683D01*
G01*
X1507987Y2720648D02*
G03*
X1481640Y2725779I-16782J-15964D01*
G01*
X1465957Y2744391D02*
G03*
X1437794Y2718785I-1535J-26603D01*
G01*
X1461323Y2753205D02*
G03*
X1437794Y2718785I5706J-29153D01*
G01*
X1490536Y2729644D02*
G03*
X1453685Y2761713I-27850J5205D01*
G01*
X1490536Y2729644D02*
G03*
X1453685Y2761713I-39024J-7636D01*
G01*
X1430289Y2700523D02*
G03*
X1438913Y2695674I25247J34807D01*
G01*
X1471425Y2695374D02*
G03*
X1479479Y2699614I-15890J39956D01*
G01*
X1448624Y2717623D02*
G03*
X1454806Y2716996I6727J35526D01*
G01*
X1471425Y2695374D02*
G03*
X1472413Y2721270I-32874J14220D01*
G01*
X1449614Y2692741D02*
G03*
X1454806Y2716996I-20342J17038D01*
G01*
X1468605Y2741841D02*
G03*
X1476266Y2737868I13504J16668D01*
G01*
X1472413Y2721270D02*
G03*
X1477338Y2724445I-17062J31878D01*
G01*
X1443717Y2693987D02*
G03*
X1448624Y2717623I-22129J16922D01*
G01*
X1461952Y2692812D02*
G03*
X1467437Y2719071I-26708J19282D01*
G01*
X1455676Y2692331D02*
G03*
X1461386Y2717499I-25186J18945D01*
G01*
X1487048Y2709392D02*
G03*
X1481640Y2725779I-29435J-628D01*
G01*
X1479479Y2699614D02*
G03*
X1477338Y2724445I-43159J8786D01*
G01*
X1443717Y2693987D02*
G03*
X1449614Y2692741I11819J41343D01*
G01*
X1461323Y2753205D02*
G03*
X1465957Y2744391I20786J5304D01*
G01*
X1461386Y2717499D02*
G03*
X1467437Y2719071I-6035J35650D01*
G01*
X1455676Y2692331D02*
G03*
X1461952Y2692812I-140J42999D01*
G01*
X1630500Y2639000D02*
Y2660000D01*
X1608000D02*
X1630500D01*
X1493000Y2639500D02*
Y2660500D01*
X1515500D01*
X1492500Y2571000D02*
Y2580500D01*
X1631000Y2571000D02*
X1631500Y2571500D01*
Y2580500D01*
X1492500Y2571000D02*
X1631000D01*
X1634000Y2793000D02*
X1655000D01*
X1634000Y2770500D02*
Y2793000D01*
X1633500Y2655500D02*
X1654500D01*
X1633500D02*
Y2678000D01*
X1713500Y2655000D02*
X1723000D01*
X1722500Y2794000D02*
X1723000Y2793500D01*
X1713500Y2794000D02*
X1722500D01*
X1723000Y2655000D02*
Y2793500D01*
X1468605Y2732280D02*
X1476266Y2737868D01*
X1468605Y2732280D02*
Y2741841D01*
X1486881Y2639000D02*
Y2660000D01*
X1464381D02*
X1486881D01*
X1349381Y2639500D02*
Y2660500D01*
X1371881D01*
X1348881Y2571000D02*
Y2580500D01*
X1487381Y2571000D02*
X1487881Y2571500D01*
Y2580500D01*
X1348881Y2571000D02*
X1487381D01*
X1493500Y2787000D02*
Y2808000D01*
Y2787000D02*
X1516000D01*
X1631000Y2786500D02*
Y2807500D01*
X1608500Y2786500D02*
X1631000D01*
X1631500Y2866500D02*
Y2876000D01*
X1492500Y2875500D02*
X1493000Y2876000D01*
X1492500Y2866500D02*
Y2875500D01*
X1493000Y2876000D02*
X1631500D01*
X1349500Y2787000D02*
Y2808000D01*
Y2787000D02*
X1372000D01*
X1487000Y2786500D02*
Y2807500D01*
X1464500Y2786500D02*
X1487000D01*
X1487500Y2866500D02*
Y2876000D01*
X1348500Y2875500D02*
X1349000Y2876000D01*
X1348500Y2866500D02*
Y2875500D01*
X1349000Y2876000D02*
X1487500D01*
D12*
X1447331Y2764468D02*
G03*
X1437222Y2764553I-5051J502D01*
G01*
X1438484Y2758073D02*
X1447316Y2761037D01*
X1447356Y2764970D01*
X1437205D02*
X1438484Y2758073D01*
D13*
X1533008Y2695175D02*
Y2696341D01*
X1531841D01*
Y2695175D01*
X1533008D01*
X1534174Y2696341D01*
Y2698674D01*
X1533008Y2699840D01*
X1530675D01*
X1529509Y2698674D01*
Y2694009D01*
X1530675Y2692842D01*
X1534174D01*
X1536507D02*
X1540006D01*
X1541172Y2694009D01*
X1540006Y2695175D01*
X1537673D01*
X1536507Y2696341D01*
X1537673Y2697508D01*
X1541172D01*
X1544671D02*
X1547003D01*
X1548170Y2696341D01*
Y2692842D01*
X1544671D01*
X1543504Y2694009D01*
X1544671Y2695175D01*
X1548170D01*
X1550502Y2692842D02*
X1552835D01*
X1551669D01*
Y2697508D01*
X1550502D01*
X1556334Y2692842D02*
Y2697508D01*
X1559832D01*
X1560999Y2696341D01*
Y2692842D01*
X1567997Y2690510D02*
Y2697508D01*
X1564498D01*
X1563331Y2696341D01*
Y2694009D01*
X1564498Y2692842D01*
X1567997D01*
X1570329Y2697508D02*
Y2694009D01*
X1571495Y2692842D01*
X1574994D01*
Y2697508D01*
X1578493D02*
X1580826D01*
X1581992Y2696341D01*
Y2692842D01*
X1578493D01*
X1577327Y2694009D01*
X1578493Y2695175D01*
X1581992D01*
X1584325Y2692842D02*
Y2699840D01*
Y2695175D02*
X1587823Y2697508D01*
X1584325Y2695175D02*
X1587823Y2692842D01*
X1594821D02*
X1592489D01*
X1591322Y2694009D01*
Y2696341D01*
X1592489Y2697508D01*
X1594821D01*
X1595988Y2696341D01*
Y2695175D01*
X1591322D01*
X1453700Y2682698D02*
Y2678033D01*
Y2680365D01*
X1454866Y2681531D01*
X1456033Y2682698D01*
X1457199D01*
X1461864D02*
X1464197D01*
X1465363Y2681531D01*
Y2678033D01*
X1461864D01*
X1460698Y2679199D01*
X1461864Y2680365D01*
X1465363D01*
X1472361Y2682698D02*
X1468862D01*
X1467695Y2681531D01*
Y2679199D01*
X1468862Y2678033D01*
X1472361D01*
X1479358Y2682698D02*
X1475860D01*
X1474693Y2681531D01*
Y2679199D01*
X1475860Y2678033D01*
X1479358D01*
X1482857D02*
X1485190D01*
X1486356Y2679199D01*
Y2681531D01*
X1485190Y2682698D01*
X1482857D01*
X1481691Y2681531D01*
Y2679199D01*
X1482857Y2678033D01*
X1489855D02*
X1492188D01*
X1493354Y2679199D01*
Y2681531D01*
X1492188Y2682698D01*
X1489855D01*
X1488689Y2681531D01*
Y2679199D01*
X1489855Y2678033D01*
X1495686D02*
Y2682698D01*
X1499185D01*
X1500352Y2681531D01*
Y2678033D01*
X1502684D02*
X1505017D01*
X1503851D01*
Y2685030D01*
X1502684D01*
X1509682Y2682698D02*
X1512015D01*
X1513181Y2681531D01*
Y2678033D01*
X1509682D01*
X1508516Y2679199D01*
X1509682Y2680365D01*
X1513181D01*
X1515513Y2685030D02*
Y2678033D01*
X1519012D01*
X1520179Y2679199D01*
Y2680365D01*
Y2681531D01*
X1519012Y2682698D01*
X1515513D01*
X1522511Y2678033D02*
Y2679199D01*
X1523678D01*
Y2678033D01*
X1522511D01*
X1529509D02*
X1531841D01*
X1533008Y2679199D01*
Y2681531D01*
X1531841Y2682698D01*
X1529509D01*
X1528343Y2681531D01*
Y2679199D01*
X1529509Y2678033D01*
X1535340Y2682698D02*
Y2678033D01*
Y2680365D01*
X1536507Y2681531D01*
X1537673Y2682698D01*
X1538839D01*
X1544671Y2675700D02*
X1545837D01*
X1547003Y2676866D01*
Y2682698D01*
X1543504D01*
X1542338Y2681531D01*
Y2679199D01*
X1543504Y2678033D01*
X1547003D01*
X1549336D02*
X1554001Y2682698D01*
X1556334D02*
Y2679199D01*
X1557500Y2678033D01*
X1560999D01*
Y2682698D01*
X1564498D02*
X1566830D01*
X1567997Y2681531D01*
Y2678033D01*
X1564498D01*
X1563331Y2679199D01*
X1564498Y2680365D01*
X1567997D01*
X1570329Y2682698D02*
X1572662Y2678033D01*
X1574994Y2682698D01*
X1581992D02*
X1578493D01*
X1577327Y2681531D01*
Y2679199D01*
X1578493Y2678033D01*
X1581992D01*
X1585491Y2682698D02*
X1587823D01*
X1588990Y2681531D01*
Y2678033D01*
X1585491D01*
X1584325Y2679199D01*
X1585491Y2680365D01*
X1588990D01*
X1591322Y2678033D02*
Y2682698D01*
X1594821D01*
X1595988Y2681531D01*
Y2678033D01*
D14*
X1514887Y2714998D02*
X1513388Y2716497D01*
X1510389D01*
X1508889Y2714998D01*
Y2709000D01*
X1510389Y2707500D01*
X1513388D01*
X1514887Y2709000D01*
X1517886Y2707500D02*
Y2713498D01*
X1520885Y2716497D01*
X1523884Y2713498D01*
Y2707500D01*
Y2711999D01*
X1517886D01*
X1526883Y2707500D02*
Y2716497D01*
X1532881Y2707500D01*
Y2716497D01*
X1544878Y2707500D02*
Y2716497D01*
X1547877Y2713498D01*
X1550876Y2716497D01*
Y2707500D01*
X1553875Y2716497D02*
Y2709000D01*
X1555374Y2707500D01*
X1558373D01*
X1559873Y2709000D01*
Y2716497D01*
X1562872D02*
X1568870Y2707500D01*
Y2716497D02*
X1562872Y2707500D01*
X1580866Y2713498D02*
X1583865Y2707500D01*
X1586864Y2713498D01*
X1594362Y2707500D02*
Y2716497D01*
X1589863Y2711999D01*
X1595861D01*
D15*
X1540853Y2754019D02*
D03*
M02*
