M48
;Layer_Color=9474304
;FILE_FORMAT=4:4
METRIC,LZ
;TYPE=PLATED
T1F00S00C0.3000
T2F00S00C3.4000
%
T01
X01340001Y02580002
X01360001
X01380001
X01400001
X01420001
X01440001
X01460001
X01480001
X01500001
X01520001
X01540001
X01560001
X01580001
X01570001Y02600002
X01550001
X01530001
X01510001
X01480001Y02620002
X01460001
X01440001
X0140925Y0262475
X01397Y02624
X01380001Y02620002
X01360001
X01370001Y02640002
X01350001
X01330001
X01340001Y02660002
X01360001
X01320001
X01300001
X01280001
X01350001Y02600002
X01370001
X01390001
X01410001
Y02680002
X01430001
X01450001
X01470001
X01480001Y02660002
X01500001
X01491Y02637
X01460001Y02660002
X01440001
Y02700002
X01460001
X01500001
X01520001
X01540001
X01560001
X01570001Y02720002
X01550001
X01530001
X01510001
X01490001
X01500001Y02740002
X01520001
X01540001
X01560001
X01570001Y02680002
X01550001
X0156944Y02644
X01586Y02621
X0154775Y0262075
X01480001Y02740002
X01460001
X01430001Y02720002
X01407Y02751
X01630001Y02760002
X01650001
X01670001
X01690001
X01710001
X01700001Y02740002
X01680001
X01690001Y02720002
X01710001
X01700001Y02700002
X01680001
X01690001Y02680002
X01710001
X01700001Y02660002
X01680001
X01660001
X01670001Y02680002
Y02720002
X016335Y027165
X01639Y02731
X01650001Y02640002
X01640001Y02620002
X01630001Y02600002
X01640001Y02580002
X01620001
X01600001
X01588Y02596
X0159925Y0262175
X01591Y02675
X01710001Y02640002
X01700001Y02780002
X01680001
X01660001
X01640001
X01620001
X01630001Y02800002
X01650001
X01670001
X01710001
X01640001Y02820002
X01620001
X01630001Y02840002
X01640001Y02860002
X01620001
X01600001
X01593Y0283
X01580001Y02860002
X01560001
X01540001
X01520001
X01500001
X01480001
X01460001
X01440001
X01420001
X01400001
X01380001
X01360001
X01370001Y02840002
X01350001
X01360001Y02820002
X01350001Y02800002
X01330001
X01290001
X01411Y02805
X01400001Y02780002
X01391Y028285
X01440001Y02820002
X01460001
X01489Y02813
X01490001Y02800002
X01510001
X01530001
X01555Y02796
X01540001Y02820002
X01520001
X01480001Y02780002
T02
X01308Y02606
X01687
X01686Y0284
X01308
M30
