G04*
G04 #@! TF.GenerationSoftware,Altium Limited,Altium Designer,19.1.8 (144)*
G04*
G04 Layer_Color=32896*
%FSLAX44Y44*%
%MOMM*%
G71*
G01*
G75*
%ADD10C,0.2000*%
%ADD11C,0.1270*%
%ADD13C,0.1700*%
D10*
X1518000Y2635750D02*
G03*
X1518000Y2635750I-1000J0D01*
G01*
X1481250Y2815000D02*
G03*
X1481250Y2815000I-1000J0D01*
G01*
X1380000Y2814250D02*
G03*
X1380000Y2814250I-1000J0D01*
G01*
X1582250Y2814000D02*
G03*
X1582250Y2814000I-1000J0D01*
G01*
X1612000Y2635750D02*
G03*
X1612000Y2635750I-1000J0D01*
G01*
X1422000D02*
G03*
X1422000Y2635750I-1000J0D01*
G01*
X1386000Y2671750D02*
Y2776000D01*
D11*
X1468500Y2578750D02*
X1529400D01*
X1457750Y2619250D02*
X1475400D01*
X1457750Y2604950D02*
Y2619250D01*
X1522600D02*
X1540250D01*
Y2605050D02*
Y2619250D01*
X1467850Y2872000D02*
X1528750D01*
X1521850Y2831500D02*
X1539500D01*
Y2845800D01*
X1457000Y2831500D02*
X1474650D01*
X1457000D02*
Y2845700D01*
X1366600Y2871250D02*
X1427500D01*
X1420600Y2830750D02*
X1438250D01*
Y2845050D01*
X1355750Y2830750D02*
X1373400D01*
X1355750D02*
Y2844950D01*
X1568850Y2871000D02*
X1629750D01*
X1622850Y2830500D02*
X1640500D01*
Y2844800D01*
X1558000Y2830500D02*
X1575650D01*
X1558000D02*
Y2844700D01*
X1562500Y2578750D02*
X1623400D01*
X1551750Y2619250D02*
X1569400D01*
X1551750Y2604950D02*
Y2619250D01*
X1616600D02*
X1634250D01*
Y2605050D02*
Y2619250D01*
X1372500Y2578750D02*
X1433400D01*
X1361750Y2619250D02*
X1379400D01*
X1361750Y2604950D02*
Y2619250D01*
X1426600D02*
X1444250D01*
Y2605050D02*
Y2619250D01*
D13*
X1421301Y2738050D02*
Y2733385D01*
X1418969Y2735717D02*
X1423634D01*
X1421301Y2724055D02*
Y2719389D01*
M02*
